<svg width="371" height="499" viewBox="0 0 371 499" fill="none" xmlns="http://www.w3.org/2000/svg">
<path d="M84.6324 2.99525C86.2331 2.31581 87.8338 1.63636 89.483 0.936319C89.638 1.30163 89.7931 1.66695 89.9529 2.04333C91.3535 1.44881 92.7541 0.854296 94.1971 0.241764C94.6623 1.33771 95.1275 2.43365 95.6068 3.5628C94.8064 3.90253 94.0061 4.24225 93.1815 4.59227C93.4141 5.14024 93.6467 5.68821 93.8864 6.25279C95.3195 6.29118 95.3195 6.29118 96.7815 6.33034C96.9366 6.69565 97.0917 7.06096 97.2514 7.43735C97.8517 7.18255 98.4519 6.92776 99.0704 6.66525C98.6827 5.75196 98.2951 4.83867 97.8956 3.89771C98.2958 3.72785 98.696 3.55799 99.1083 3.38298C99.496 4.29626 99.8836 5.20955 100.283 6.15051C100.883 5.89572 101.484 5.64092 102.102 5.37841C102.335 5.92639 102.567 6.47436 102.807 7.03893C102.207 7.29372 101.606 7.54852 100.988 7.81103C101.143 8.17634 101.298 8.54166 101.458 8.91804C100.858 9.17284 100.257 9.42763 99.6388 9.69014C100.026 10.6034 100.414 11.5167 100.814 12.4577C101.414 12.2029 102.014 11.9481 102.633 11.6856C102.865 12.2335 103.098 12.7815 103.337 13.3461C102.537 13.6858 101.737 14.0255 100.912 14.3756C100.557 14.0952 100.202 13.8148 99.8359 13.5259C100.534 15.1698 101.231 16.8137 101.95 18.5075C102.196 17.9723 102.441 17.4371 102.693 16.8857C105.773 22.208 107.835 27.6678 109.742 33.4909C110.342 33.2361 110.942 32.9813 111.561 32.7188C113.454 37.7355 115.347 42.7522 117.298 47.9209C117.698 47.751 118.098 47.5811 118.511 47.4061C118.556 46.9559 118.601 46.5056 118.647 46.0418C118.837 46.4267 119.027 46.8116 119.223 47.2083C120.866 50.3907 122.409 52.7353 125.301 54.9754C125.501 54.8905 125.702 54.8055 125.908 54.718C126.295 55.6313 126.683 56.5446 127.082 57.4856C127.483 57.3157 127.883 57.1458 128.295 56.9708C128.14 56.6055 127.985 56.2402 127.825 55.8638C128.225 55.694 128.626 55.5241 129.038 55.3491C129.163 56.165 129.163 56.165 129.29 56.9975C129.884 59.0781 130.43 59.923 132.229 61.1803C132.906 61.1082 133.584 61.036 134.282 60.9617C134.528 60.4265 134.773 59.8913 135.025 59.34C135.826 59.0002 136.626 58.6605 137.45 58.3105C137.549 60.2284 137.549 60.2284 137.413 61.5928C141.492 60.0768 145.571 58.5608 149.774 56.9989C149.741 56.366 149.709 55.7331 149.675 55.081C151.076 54.4865 152.477 53.892 153.92 53.2795C153.332 52.4511 152.744 51.6227 152.139 50.7693C154.251 49.0018 156.363 47.2343 158.475 45.4669C158.52 45.0166 158.565 44.5664 158.611 44.1025C157.088 44.9646 155.565 45.8267 153.995 46.7149C154.15 47.0802 154.306 47.4456 154.465 47.8219C153.865 48.0767 153.265 48.3315 152.646 48.594C152.259 47.6808 151.871 46.7675 151.472 45.8265C152.672 45.3169 153.873 44.8073 155.11 44.2823C154.954 43.917 154.799 43.5517 154.64 43.1753C155.64 42.7506 156.64 42.326 157.671 41.8885C157.904 42.4364 158.136 42.9844 158.376 43.549C159.099 43.0266 159.822 42.5042 160.566 41.966C160.379 40.9678 160.191 39.9696 159.998 38.9411C161.399 38.3466 162.799 37.7521 164.242 37.1395C163.855 36.2262 163.467 35.313 163.067 34.372C163.668 34.1172 164.268 33.8624 164.886 33.5999C167.073 38.2707 167.073 38.2707 166.493 40.7567C166.893 40.5868 167.293 40.417 167.706 40.242C167.551 39.8767 167.396 39.5114 167.236 39.135C167.636 38.9651 168.036 38.7952 168.449 38.6202C169.269 39.9966 170.089 41.3729 170.934 42.7909C171.335 42.6211 171.735 42.4512 172.147 42.2762C171.372 40.4496 170.596 38.623 169.798 36.7411C170.398 36.4863 170.998 36.2315 171.617 35.969C172.004 36.8823 172.392 37.7956 172.791 38.7365C173.191 38.5667 173.592 38.3968 174.004 38.2218C174.392 39.1351 174.779 40.0484 175.179 40.9894C174.778 41.1592 174.378 41.3291 173.966 41.5041C174.121 41.8694 174.276 42.2347 174.436 42.6111C173.313 43.3033 172.19 43.9956 171.033 44.7088C171.776 45.9025 172.519 47.0961 173.284 48.326C172.884 48.4958 172.484 48.6657 172.071 48.8407C172.259 49.8389 172.446 50.8372 172.64 51.8656C172.24 52.0355 171.839 52.2053 171.427 52.3803C170.994 51.9173 170.562 51.4543 170.116 50.9772C170.348 51.6257 170.58 52.2741 170.819 52.9423C171.118 53.7892 171.417 54.6362 171.716 55.4832C171.869 55.9111 172.023 56.339 172.181 56.7798C173.311 59.9988 173.311 59.9988 172.897 60.9015C173.576 62.9801 174.327 65.0275 175.076 67.0808C175.242 67.6838 175.409 68.2867 175.58 68.908C175.258 69.2605 174.935 69.613 174.603 69.9762C174.898 70.6428 174.898 70.6428 175.199 71.3228C175.584 72.2066 175.584 72.2066 175.977 73.1082C176.232 73.6896 176.487 74.271 176.75 74.87C177.363 76.4634 177.737 77.9506 177.991 79.6432C177.59 79.8131 177.19 79.9829 176.778 80.158C177.226 81.1603 177.226 81.1603 177.682 82.1829C178.445 83.9705 178.963 85.6643 179.226 87.6109C178.826 87.7808 178.426 87.9506 178.013 88.1256C179.83 90.3644 179.83 90.3644 181.947 92.3351C182.547 92.0803 183.147 91.8255 183.766 91.563C183.611 91.1977 183.456 90.8324 183.296 90.456C183.896 90.2012 184.496 89.9464 185.115 89.6839C186.123 92.0584 187.131 94.433 188.169 96.8795C187.569 97.1343 186.969 97.3891 186.35 97.6516C186.118 97.1036 185.885 96.5556 185.645 95.991C184.322 96.7682 182.999 97.5454 181.636 98.3461C181.779 99.5364 181.927 100.726 182.078 101.915C182.2 102.908 182.2 102.908 182.326 103.922C182.583 105.873 182.583 105.873 183.576 107.974C184.054 107.987 184.532 108 185.024 108.013C185.179 108.378 185.334 108.744 185.494 109.12C186.694 108.611 187.895 108.101 189.132 107.576C189.364 108.124 189.597 108.672 189.837 109.236C190.237 109.067 190.637 108.897 191.049 108.722C191.282 109.27 191.514 109.818 191.754 110.382C191.354 110.552 190.954 110.722 190.541 110.897C191.317 112.724 192.092 114.55 192.891 116.432C192.291 116.687 191.69 116.942 191.072 117.204C190.684 116.291 190.297 115.378 189.897 114.437C189.497 114.606 189.097 114.776 188.685 114.951C188.84 115.317 188.995 115.682 189.154 116.058C188.754 116.228 188.354 116.398 187.942 116.573C187.587 116.293 187.232 116.012 186.866 115.723C186.214 119.964 187.819 124.012 190.352 127.308C190.752 127.138 191.152 126.969 191.565 126.794C191.72 127.159 191.875 127.524 192.034 127.901C192.635 127.646 193.235 127.391 193.853 127.128C194.241 128.042 194.629 128.955 195.028 129.896C194.428 130.151 193.828 130.406 193.209 130.668C193.442 131.216 193.674 131.764 193.914 132.329C194.514 132.074 195.115 131.819 195.733 131.557C195.888 131.922 196.043 132.287 196.203 132.664C196.603 132.494 197.003 132.324 197.416 132.149C197.26 131.783 197.105 131.418 196.946 131.042C197.546 130.787 198.146 130.532 198.765 130.27C198.997 130.818 199.23 131.366 199.469 131.93C198.869 132.185 198.269 132.44 197.651 132.702C197.806 133.068 197.961 133.433 198.12 133.809C197.72 133.979 197.32 134.149 196.908 134.324C197.14 134.872 197.373 135.42 197.613 135.985C198.013 135.815 198.413 135.645 198.825 135.47C198.98 135.835 199.135 136.2 199.295 136.577C198.295 137.002 197.294 137.426 196.264 137.864C196.546 138.215 196.828 138.567 197.119 138.93C198.087 140.44 198.387 141.627 198.613 143.399C198.013 143.654 197.413 143.908 196.794 144.171C197.627 144.464 198.46 144.757 199.318 145.059C199.416 146.977 199.416 146.977 199.28 148.342C199.68 148.172 200.08 148.002 200.493 147.827C200.648 148.192 200.803 148.557 200.963 148.934C201.563 148.679 202.163 148.424 202.782 148.162C203.014 148.71 203.247 149.258 203.486 149.822C203.887 149.652 204.287 149.482 204.699 149.307C204.932 149.855 205.164 150.403 205.404 150.968C204.604 151.308 203.803 151.647 202.979 151.997C202.546 151.534 202.113 151.071 201.667 150.594C202.365 152.238 203.063 153.882 203.782 155.576C204.105 155.223 204.427 154.871 204.76 154.508C205.502 155.701 206.245 156.895 207.011 158.125C207.411 157.955 207.811 157.785 208.223 157.61C208.921 159.254 209.619 160.898 210.338 162.592C210.66 162.239 210.983 161.887 211.315 161.523C212.621 163.176 213.321 164.379 213.43 166.505C213.83 166.335 214.23 166.165 214.643 165.99C215.03 166.904 215.418 167.817 215.817 168.758C216.218 168.588 216.618 168.418 217.03 168.243C217.54 168.889 218.05 169.534 218.576 170.2C218.976 170.03 219.377 169.86 219.789 169.685C220.021 170.233 220.254 170.781 220.494 171.345C221.171 171.273 221.849 171.201 222.548 171.127C223.626 171.615 224.704 172.105 225.77 172.614C228.681 173.92 230.967 174.564 234.342 173.837C234.982 173.606 235.622 173.375 236.281 173.136C236.436 173.502 236.591 173.867 236.751 174.243C241.233 173.883 244.913 172.236 249.035 170.417C250.044 169.98 250.044 169.98 251.074 169.534C252.724 168.818 254.371 168.097 256.016 167.372C255.861 167.007 255.706 166.641 255.546 166.265C257.626 164.771 259.521 163.936 261.97 163.171C262.586 162.976 263.201 162.781 263.836 162.581C264.534 162.366 264.534 162.366 265.248 162.147C265.093 161.782 264.937 161.416 264.778 161.04C265.116 160.829 265.455 160.618 265.803 160.401C267.06 159.55 267.06 159.55 267.347 158.296C268.465 156.362 269.984 156.028 272.093 155.2C272.814 154.911 273.536 154.622 274.279 154.325C275.113 154.005 275.113 154.005 275.964 153.679C276.009 153.228 276.054 152.778 276.101 152.314C276.701 152.06 277.301 151.805 277.92 151.542C277.364 151.347 276.809 151.151 276.237 150.95C278.339 149.191 280.746 148.338 283.278 147.308C283.2 147.125 283.123 146.943 283.043 146.755C284.566 145.892 286.089 145.03 287.659 144.142C287.626 143.509 287.594 142.876 287.56 142.224C288.193 141.978 288.193 141.978 288.839 141.727C289.39 141.505 289.94 141.283 290.507 141.055C291.328 140.729 291.328 140.729 292.165 140.397C293.82 139.686 293.82 139.686 294.972 137.771C297.34 136.078 299.406 135.284 302.248 134.683C302.016 134.135 301.783 133.587 301.543 133.023C300.943 133.277 300.343 133.532 299.724 133.795C299.337 132.881 298.949 131.968 298.55 131.027C299.15 130.772 299.75 130.518 300.369 130.255C300.524 130.62 300.679 130.986 300.838 131.362C301.239 131.192 301.639 131.022 302.051 130.847C302.794 132.041 303.537 133.235 304.302 134.464C305.38 134.222 306.458 133.98 307.569 133.731C306.826 132.537 306.083 131.344 305.318 130.114C305.918 129.859 306.518 129.604 307.137 129.342C307.524 130.255 307.912 131.168 308.311 132.109C308.712 131.94 309.112 131.77 309.524 131.595C310.267 132.788 311.01 133.982 311.775 135.212C312.175 135.042 312.575 134.872 312.988 134.697C312.833 134.332 312.677 133.966 312.518 133.59C313.118 133.335 313.718 133.08 314.337 132.818C314.524 133.816 314.712 134.814 314.905 135.843C314.305 136.098 313.705 136.352 313.086 136.615C313.816 138.892 314.547 141.169 315.299 143.514C314.776 143.952 314.254 144.389 313.715 144.84C313.237 144.827 312.76 144.814 312.268 144.801C312.035 144.253 311.802 143.705 311.563 143.141C311.163 143.311 310.762 143.48 310.35 143.655C310.505 144.021 310.66 144.386 310.82 144.762C309.82 145.187 308.819 145.612 307.788 146.049C308.021 146.597 308.254 147.145 308.493 147.71C307.893 147.965 307.293 148.219 306.674 148.482C306.829 148.847 306.984 149.213 307.144 149.589C306.621 150.026 306.099 150.464 305.56 150.915C305.515 151.365 305.47 151.815 305.424 152.279C304.824 152.534 304.223 152.789 303.605 153.051C303.76 153.416 303.915 153.782 304.075 154.158C303.752 154.511 303.429 154.863 303.097 155.226C303.375 155.324 303.652 155.422 303.938 155.522C304.354 156.434 304.748 157.357 305.113 158.29C304.513 158.545 303.913 158.8 303.294 159.062C303.184 158.247 303.074 157.431 302.961 156.591C302.56 156.761 302.16 156.93 301.748 157.105C301.903 157.471 302.058 157.836 302.218 158.212C301.618 158.467 301.017 158.722 300.399 158.985C300.632 159.532 300.864 160.08 301.104 160.645C300.704 160.815 300.303 160.985 299.891 161.16C300.124 161.708 300.356 162.256 300.596 162.82C300.196 162.99 299.796 163.16 299.383 163.335C299.493 164.151 299.603 164.966 299.717 165.806C299.317 165.976 298.916 166.146 298.504 166.321C299.247 167.515 299.99 168.708 300.755 169.938C300.355 170.108 299.955 170.278 299.543 170.453C299.73 171.451 299.918 172.45 300.111 173.478C299.711 173.648 299.311 173.818 298.898 173.993C299.053 174.358 299.208 174.723 299.368 175.1C298.845 175.537 298.323 175.975 297.784 176.425C297.029 176.315 296.274 176.204 295.495 176.09C296.393 177.649 297.291 179.208 298.216 180.815C297.816 180.984 297.416 181.154 297.004 181.329C296.693 180.599 296.383 179.868 296.064 179.115C295.664 179.285 295.263 179.455 294.851 179.63C294.956 180.017 295.061 180.403 295.169 180.801C295.499 183.244 295.361 185.64 294.874 188.112C294.551 188.465 294.229 188.817 293.896 189.181C294.361 190.277 294.827 191.373 295.306 192.502C294.951 192.221 294.596 191.941 294.23 191.652C293.83 191.822 293.429 191.992 293.017 192.167C293.327 192.897 293.637 193.628 293.957 194.381C294.757 194.041 295.558 193.701 296.382 193.351C296.615 193.899 296.847 194.447 297.087 195.012C296.287 195.352 295.486 195.691 294.662 196.041C294.507 195.676 294.352 195.311 294.192 194.934C293.592 195.189 292.991 195.444 292.373 195.706C292.713 195.953 293.054 196.199 293.405 196.452C294.525 197.406 294.525 197.406 295.23 199.066C294.83 199.236 294.43 199.406 294.017 199.581C293.862 199.216 293.707 198.85 293.548 198.474C293.147 198.644 292.747 198.814 292.335 198.989C292.523 199.987 292.71 200.985 292.903 202.014C292.503 202.184 292.103 202.353 291.691 202.528C292.001 203.259 292.311 203.99 292.631 204.742C292.23 204.912 291.83 205.082 291.418 205.257C291.806 206.17 292.193 207.084 292.593 208.025C292.27 208.377 291.947 208.73 291.615 209.093C291.51 210.367 291.51 210.367 291.584 211.76C291.606 212.469 291.606 212.469 291.628 213.193C291.644 213.556 291.659 213.919 291.676 214.293C291.275 214.463 290.875 214.633 290.463 214.808C290.643 215.405 290.822 216.002 291.008 216.618C291.495 218.91 291.446 220.684 291.092 223.033C290.692 223.203 290.292 223.373 289.879 223.548C290.267 224.461 290.655 225.374 291.054 226.315C290.654 226.485 290.254 226.655 289.842 226.83C289.97 227.341 290.098 227.852 290.231 228.379C290.632 230.345 290.784 232.226 290.842 234.244C290.442 234.414 290.042 234.584 289.629 234.759C289.894 235.94 290.16 237.121 290.433 238.337C290.033 238.507 289.632 238.677 289.22 238.852C289.763 240.13 290.306 241.409 290.865 242.726C290.542 243.079 290.219 243.431 289.887 243.795C289.967 245.083 289.967 245.083 290.22 246.266C289.82 246.436 289.42 246.606 289.008 246.781C289.431 247.672 289.431 247.672 289.862 248.582C290.653 250.655 290.653 250.655 290.145 252.831C290.3 253.846 290.484 254.857 290.713 255.856C290.313 256.025 289.913 256.195 289.5 256.37C289.874 257.038 289.874 257.038 290.255 257.719C290.574 258.299 290.893 258.879 291.222 259.477C291.541 260.054 291.861 260.631 292.19 261.225C292.926 262.755 292.926 262.755 292.79 264.119C293.19 263.949 293.59 263.78 294.002 263.605C293.615 262.691 293.227 261.778 292.828 260.837C293.26 261.3 293.693 261.763 294.139 262.24C294.739 261.985 295.339 261.731 295.958 261.468C295.57 260.555 295.182 259.642 294.783 258.701C295.383 258.446 295.984 258.191 296.602 257.928C297.377 259.755 298.153 261.582 298.952 263.464C298.351 263.718 297.751 263.973 297.133 264.236C297.52 265.149 297.908 266.062 298.307 267.003C297.507 267.343 296.707 267.683 295.882 268.033C295.494 267.119 295.107 266.206 294.707 265.265C294.307 265.435 293.907 265.605 293.495 265.78C293.792 266.338 294.089 266.897 294.395 267.472C294.781 268.209 295.168 268.946 295.554 269.683C295.75 270.05 295.946 270.418 296.148 270.797C297.046 272.519 297.622 273.763 297.724 275.743C298.324 275.488 298.924 275.233 299.543 274.971C299.775 275.519 300.008 276.067 300.248 276.631C300.848 276.377 301.448 276.122 302.066 275.859C301.601 274.763 301.136 273.667 300.657 272.538C301.657 272.114 302.658 271.689 303.688 271.251C304.231 272.53 304.774 273.809 305.333 275.126C304.933 275.296 304.533 275.466 304.12 275.641C304.275 276.006 304.431 276.371 304.59 276.748C306.236 275.618 307.882 274.488 309.577 273.324C309.5 273.142 309.422 272.959 309.342 272.771C312.466 271.229 315.59 269.688 318.808 268.1C318.731 267.917 318.653 267.734 318.574 267.546C321.497 266.089 324.421 264.633 327.433 263.132C327.278 262.767 327.123 262.401 326.963 262.025C327.564 261.77 328.164 261.515 328.782 261.253C328.937 261.618 329.093 261.983 329.252 262.36C329.652 262.19 330.053 262.02 330.465 261.845C330.31 261.48 330.155 261.115 329.995 260.738C330.595 260.483 331.196 260.229 331.814 259.966C331.969 260.331 332.124 260.697 332.284 261.073C332.684 260.903 333.084 260.733 333.497 260.558C333.341 260.193 333.186 259.828 333.027 259.451C336.173 257.381 336.173 257.381 338.483 257.135C338.639 257.5 338.794 257.866 338.953 258.242C340.954 257.393 342.955 256.543 345.017 255.668C344.661 255.388 344.306 255.108 343.94 254.819C348.406 252.682 348.406 252.682 350.356 253.075C350.672 253.264 350.989 253.453 351.315 253.648C351.547 253.118 351.78 252.588 352.02 252.043C352.8 250.405 352.8 250.405 353.407 250.147C353.794 251.061 354.182 251.974 354.581 252.915C356.582 252.066 358.583 251.216 360.644 250.341C360.877 250.889 361.11 251.437 361.349 252.002C360.349 252.426 359.348 252.851 358.318 253.289C358.473 253.654 358.628 254.019 358.788 254.396C358.187 254.65 357.587 254.905 356.969 255.168C356.814 254.802 356.659 254.437 356.499 254.061C356.099 254.231 355.698 254.4 355.286 254.575C355.874 255.404 356.462 256.232 357.067 257.086C356.667 257.255 356.267 257.425 355.855 257.6C356.11 257.923 356.365 258.246 356.628 258.579C357.881 260.484 358.666 262.429 359.515 264.538C358.783 264.62 358.05 264.702 357.295 264.787C354.605 265.226 354.605 265.226 352.611 266.816C352.566 267.266 352.521 267.716 352.474 268.18C351.874 268.435 351.274 268.69 350.655 268.952C351.153 270.681 351.651 272.41 352.164 274.191C351.163 274.616 350.163 275.041 349.132 275.478C349.287 275.844 349.442 276.209 349.602 276.585C349.202 276.755 348.802 276.925 348.389 277.1C348.622 277.648 348.854 278.196 349.094 278.761C348.494 279.015 347.894 279.27 347.275 279.533C347.165 278.717 347.055 277.901 346.942 277.061C346.695 277.489 346.449 277.917 346.195 278.358C345.221 279.751 345.221 279.751 343.402 280.523C343.557 280.889 343.712 281.254 343.872 281.63C344.072 281.545 344.272 281.46 344.479 281.373C345.566 281.124 346.655 280.879 347.745 280.64C347.978 281.188 348.21 281.736 348.45 282.3C347.45 282.725 346.449 283.149 345.418 283.587C345.573 283.952 345.728 284.318 345.888 284.694C345.288 284.949 344.688 285.204 344.069 285.466C344.302 286.014 344.534 286.562 344.774 287.127C344.051 287.649 343.329 288.171 342.584 288.71C342.694 289.525 342.804 290.341 342.917 291.181C342.517 291.351 342.117 291.521 341.705 291.696C341.86 292.061 342.015 292.426 342.175 292.803C341.774 292.973 341.374 293.142 340.962 293.317C341.057 293.681 341.153 294.045 341.251 294.42C341.295 295.789 341.295 295.789 340.347 296.926C340.015 297.256 339.682 297.586 339.34 297.925C339.295 298.376 339.25 298.826 339.204 299.29C338.803 299.46 338.403 299.629 337.991 299.804C337.558 299.341 337.126 298.878 336.68 298.401C336.635 298.852 336.59 299.302 336.543 299.766C336.021 300.203 335.498 300.641 334.959 301.091C334.914 301.542 334.869 301.992 334.823 302.456C335.501 302.384 336.179 302.311 336.877 302.237C337.032 302.602 337.187 302.968 337.347 303.344C336.424 303.951 335.501 304.559 334.55 305.184C334.705 305.55 334.86 305.915 335.02 306.291C335.42 306.122 335.82 305.952 336.233 305.777C336.388 306.142 336.543 306.507 336.703 306.884C335.58 307.576 334.457 308.268 333.3 308.981C333.145 308.616 332.989 308.251 332.83 307.874C332.429 308.044 332.029 308.214 331.617 308.389C332.282 309.4 332.948 310.411 333.633 311.453C333.233 311.623 332.833 311.793 332.42 311.968C332.686 313.148 332.951 314.329 333.224 315.546C332.824 315.716 332.423 315.886 332.011 316.061C332.166 316.426 332.321 316.791 332.481 317.168C331.003 317.58 329.525 317.991 328.002 318.416C328.157 318.781 328.312 319.146 328.472 319.523C328.072 319.693 327.671 319.863 327.259 320.038C327.492 320.585 327.724 321.133 327.964 321.698C327.564 321.868 327.164 322.038 326.751 322.213C326.984 322.761 327.217 323.309 327.456 323.873C326.943 325.193 326.943 325.193 326.342 326.306C326.742 326.136 327.142 325.966 327.555 325.791C327.4 325.426 327.245 325.061 327.085 324.684C327.485 324.514 327.885 324.344 328.297 324.169C328.485 325.168 328.673 326.166 328.866 327.194C328.466 327.364 328.066 327.534 327.653 327.709C327.808 328.074 327.963 328.44 328.123 328.816C327.723 328.986 327.323 329.156 326.91 329.331C326.555 329.05 326.2 328.77 325.834 328.481C325.789 328.931 325.744 329.382 325.698 329.846C325.22 329.833 324.742 329.82 324.25 329.807C324.311 330.158 324.372 330.51 324.434 330.872C324.585 332.293 324.497 333.573 324.311 335.007C323.911 335.177 323.511 335.347 323.098 335.522C323.253 335.887 323.408 336.252 323.568 336.629C324.091 336.191 324.614 335.754 325.152 335.303C325.385 335.851 325.617 336.399 325.857 336.964C325.457 337.133 325.057 337.303 324.644 337.478C324.799 337.844 324.955 338.209 325.114 338.585C324.714 338.755 324.314 338.925 323.902 339.1C324.134 339.648 324.367 340.196 324.607 340.761C324.206 340.93 323.806 341.1 323.394 341.275C323.239 340.91 323.084 340.545 322.924 340.168C322.686 340.754 322.686 340.754 322.443 341.352C321.81 342.601 321.81 342.601 320.597 343.116C320.862 344.297 321.127 345.477 321.401 346.694C321.801 346.524 322.201 346.354 322.613 346.179C322.846 346.727 323.078 347.275 323.318 347.84C322.918 348.01 322.518 348.18 322.105 348.355C322.261 348.72 322.416 349.085 322.575 349.462C322.123 350.715 322.123 350.715 321.461 351.894C321.061 352.064 320.661 352.234 320.249 352.409C320.245 352.922 320.242 353.436 320.238 353.965C320.211 355.691 320.211 355.691 320.074 357.056C319.674 357.225 319.274 357.395 318.862 357.57C318.429 357.107 317.996 356.644 317.55 356.167C317.505 356.617 317.46 357.068 317.414 357.532C317.014 357.701 316.614 357.871 316.201 358.046C316.434 358.594 316.667 359.142 316.906 359.707C316.506 359.877 316.106 360.047 315.694 360.222C315.681 361.305 315.669 362.388 315.656 363.504C315.778 363.236 315.901 362.969 316.027 362.693C316.427 362.523 316.827 362.353 317.24 362.178C317.627 363.092 318.015 364.005 318.415 364.946C317.614 365.285 316.814 365.625 315.989 365.975C315.834 365.61 315.679 365.245 315.519 364.868C314.919 365.123 314.319 365.378 313.7 365.64C314.041 365.886 314.382 366.133 314.733 366.386C315.853 367.34 315.853 367.34 316.558 369C316.158 369.17 315.757 369.34 315.345 369.515C315.733 370.428 316.12 371.341 316.52 372.282C315.92 372.537 315.319 372.792 314.701 373.054C314.733 373.687 314.766 374.32 314.799 374.972C314.399 375.142 313.999 375.312 313.587 375.487C313.742 375.852 313.897 376.218 314.057 376.594C313.656 376.764 313.256 376.934 312.844 377.109C312.534 376.378 312.224 375.648 311.904 374.895C311.504 375.065 311.104 375.235 310.692 375.41C310.847 375.775 311.002 376.14 311.161 376.517C310.785 377.738 310.785 377.738 310.047 378.949C309.247 379.289 308.447 379.629 307.622 379.979C308.778 379.919 309.933 379.86 311.124 379.799C311.279 380.164 311.434 380.529 311.593 380.906C311.269 381.219 310.944 381.532 310.61 381.854C309.411 383.065 309.411 383.065 309.737 384.96C309.336 385.13 308.936 385.3 308.524 385.475C308.679 385.84 308.834 386.206 308.994 386.582C308.594 386.752 308.194 386.922 307.781 387.097C308.014 387.645 308.246 388.193 308.486 388.757C308.086 388.927 307.686 389.097 307.273 389.272C307.306 389.905 307.338 390.538 307.372 391.19C306.972 391.36 306.572 391.53 306.159 391.705C306.314 392.07 306.469 392.435 306.629 392.812C305.629 393.236 304.628 393.661 303.598 394.098C303.443 393.733 303.288 393.368 303.128 392.991C303.005 393.259 302.883 393.527 302.756 393.802C301.956 394.142 301.156 394.482 300.331 394.832C300.486 395.197 300.641 395.562 300.801 395.939C300.425 397.16 300.425 397.16 299.687 398.371C298.887 398.711 298.086 399.051 297.262 399.401C297.417 399.766 297.572 400.131 297.732 400.508C298.209 400.521 298.687 400.533 299.179 400.547C297.979 401.056 296.778 401.566 295.541 402.091C295.496 402.541 295.451 402.991 295.405 403.455C294.065 404.603 292.651 405.627 291.227 406.678C289.886 407.605 289.886 407.605 289.91 409.054C288.978 409.667 288.046 410.281 287.113 410.894C287.068 411.344 287.023 411.795 286.977 412.259C286.177 412.598 285.376 412.938 284.552 413.288C284.707 413.653 284.862 414.019 285.022 414.395C284.099 415.002 283.176 415.61 282.225 416.235C283.191 417.63 284.149 418.898 285.317 420.149C285.917 419.894 286.518 419.639 287.136 419.377C286.548 418.548 285.961 417.72 285.355 416.866C285.955 416.612 286.556 416.357 287.174 416.094C286.941 415.546 286.709 414.998 286.469 414.434C287.069 414.179 287.67 413.924 288.288 413.662C288.908 415.123 289.529 416.584 290.168 418.09C291.568 417.495 292.969 416.901 294.412 416.288C294.645 416.836 294.877 417.384 295.117 417.949C293.716 418.543 292.316 419.138 290.873 419.75C291.028 420.116 291.183 420.481 291.342 420.857C291.743 420.687 292.143 420.518 292.555 420.343C292.943 421.256 293.33 422.169 293.73 423.11C293.13 423.365 292.529 423.62 291.911 423.882C291.523 422.969 291.136 422.056 290.736 421.115C290.336 421.284 289.936 421.454 289.524 421.629C289.368 421.264 289.213 420.899 289.054 420.522C288.053 420.947 287.053 421.372 286.022 421.809C286.907 424.451 287.793 427.093 288.705 429.816C289.105 429.646 289.505 429.476 289.918 429.301C290.583 430.312 291.248 431.323 291.934 432.365C291.901 431.732 291.869 431.099 291.835 430.447C292.435 430.192 293.036 429.937 293.654 429.675C293.749 430.06 293.845 430.446 293.943 430.843C294.771 433.914 295.51 436.1 298.02 438.273C298.542 437.836 299.065 437.398 299.604 436.948C299.946 438.311 300.289 439.675 300.642 441.08C301.165 440.642 301.687 440.205 302.226 439.754C302.49 440.167 302.754 440.581 303.026 441.007C303.512 441.629 303.512 441.629 304.007 442.264C304.485 442.277 304.962 442.29 305.455 442.303C305.487 442.936 305.52 443.569 305.553 444.221C305.953 444.051 306.353 443.881 306.766 443.706C306.811 443.256 306.856 442.806 306.902 442.342C307.367 443.438 307.833 444.534 308.312 445.663C308.68 444.86 309.047 444.057 309.426 443.23C309.622 443.726 309.818 444.223 310.019 444.734C310.742 446.344 311.542 447.659 312.617 449.061C313.295 448.989 313.972 448.917 314.671 448.843C314.981 449.573 315.291 450.304 315.61 451.057C316.011 450.887 316.411 450.717 316.823 450.542C317.411 451.37 317.999 452.199 318.604 453.052C319.004 452.882 319.404 452.712 319.817 452.537C320.049 453.085 320.282 453.633 320.522 454.198C321.044 453.761 321.567 453.323 322.106 452.872C322.571 453.968 323.036 455.064 323.515 456.193C323.915 456.024 324.316 455.854 324.728 455.679C326.41 456.271 326.41 456.271 327.722 457.674C328.122 457.504 328.522 457.334 328.934 457.159C328.424 456.514 327.914 455.868 327.388 455.203C327.988 454.948 328.589 454.693 329.207 454.431C329.261 454.974 329.314 455.517 329.369 456.077C330.201 458.583 331.477 459.063 333.845 460.301C334.001 460.666 334.156 461.031 334.315 461.408C334.716 461.238 335.116 461.068 335.528 460.893C336.116 461.721 336.704 462.55 337.309 463.403C337.709 463.233 338.109 463.063 338.522 462.888C338.754 463.436 338.987 463.984 339.227 464.549C339.827 464.294 340.427 464.039 341.046 463.777C341.433 464.69 341.821 465.603 342.22 466.544C342.62 466.374 343.021 466.205 343.433 466.03C344.712 466.303 344.712 466.303 345.957 466.918C346.267 467.649 346.577 468.379 346.897 469.132C347.774 468.975 348.652 468.818 349.557 468.656C349.512 469.106 349.467 469.557 349.42 470.02C349.82 469.851 350.221 469.681 350.633 469.506C350.833 469.421 351.033 469.336 351.239 469.248C351.129 468.433 351.019 467.617 350.906 466.777C351.306 466.607 351.706 466.437 352.118 466.262C352.351 466.81 352.584 467.358 352.823 467.923C353.223 467.753 353.624 467.583 354.036 467.408C354.191 467.773 354.346 468.139 354.506 468.515C354.183 468.867 353.861 469.22 353.528 469.583C353.561 470.216 353.593 470.849 353.627 471.501C354.027 471.331 354.427 471.161 354.839 470.986C354.884 470.536 354.929 470.086 354.976 469.622C355.286 470.353 355.596 471.083 355.916 471.836C356.748 472.15 357.591 472.444 358.439 472.724C359.791 473.906 359.791 473.906 360.827 474.977C361.427 474.722 362.027 474.468 362.646 474.205C363.782 474.566 364.905 474.961 366.011 475.39C366.488 475.402 366.966 475.415 367.458 475.428C366.948 474.783 366.438 474.137 365.912 473.472C366.512 473.217 367.113 472.962 367.731 472.7C367.964 473.248 368.196 473.796 368.436 474.36C369.837 473.766 371.237 473.171 372.68 472.559C372.913 473.107 373.145 473.655 373.385 474.219C373.985 473.964 374.586 473.71 375.204 473.447C376.856 477.167 378.348 480.803 379.297 484.775C379.697 484.605 380.097 484.435 380.509 484.26C380.205 483.891 379.901 483.521 379.587 483.141C378.728 481.75 378.728 481.75 379.236 479.574C379.469 480.122 379.701 480.67 379.941 481.235C380.541 480.98 381.141 480.725 381.76 480.463C382.148 481.376 382.535 482.289 382.935 483.23C382.334 483.485 381.734 483.74 381.116 484.002C381.271 484.368 381.426 484.733 381.586 485.11C380.985 485.364 380.385 485.619 379.767 485.882C380.354 486.38 380.354 486.38 380.954 486.888C382.154 488.134 382.154 488.134 382.253 490.052C379.651 491.156 377.05 492.26 374.37 493.398C374.681 494.129 374.991 494.859 375.31 495.612C374.31 496.037 373.309 496.461 372.279 496.899C372.124 496.534 371.968 496.168 371.809 495.792C369.885 496.824 367.962 497.856 365.98 498.919C365.748 498.371 365.515 497.823 365.276 497.259C364.275 497.683 363.275 498.108 362.244 498.545C361.424 497.169 360.603 495.793 359.758 494.375C359.358 494.545 358.958 494.714 358.545 494.889C358.39 494.524 358.235 494.159 358.076 493.782C357.675 493.952 357.275 494.122 356.863 494.297C356.63 493.749 356.398 493.201 356.158 492.637C355.558 492.891 354.958 493.146 354.339 493.409C354.727 494.322 355.114 495.235 355.514 496.176C355.114 496.346 354.714 496.516 354.301 496.691C353.526 494.864 352.751 493.038 351.952 491.156C351.351 491.411 350.751 491.666 350.133 491.928C350.52 492.841 350.908 493.755 351.308 494.696C350.907 494.865 350.507 495.035 350.095 495.21C349.397 493.566 348.699 491.922 347.98 490.229C346.902 490.471 345.824 490.713 344.714 490.962C344.326 490.049 343.938 489.135 343.539 488.195C342.939 488.449 342.339 488.704 341.72 488.967C342.34 490.428 342.961 491.889 343.6 493.395C344.6 492.97 345.601 492.545 346.631 492.108C347.019 493.021 347.407 493.934 347.806 494.875C347.406 495.045 347.006 495.215 346.593 495.39C346.748 495.755 346.904 496.121 347.063 496.497C345.863 497.007 344.662 497.516 343.425 498.041C343.27 497.676 343.115 497.311 342.956 496.934C342.555 497.104 342.155 497.274 341.743 497.449C341.355 496.536 340.968 495.623 340.568 494.682C340.968 494.512 341.368 494.342 341.781 494.167C341.46 493.44 341.46 493.44 341.133 492.699C340.715 491.738 340.715 491.738 340.289 490.758C340.012 490.125 339.735 489.493 339.45 488.841C338.815 487.2 338.413 485.691 338.158 483.946C337.558 484.201 336.957 484.456 336.339 484.718C337.114 486.545 337.89 488.372 338.689 490.253C338.288 490.423 337.888 490.593 337.476 490.768C337.708 491.316 337.941 491.864 338.181 492.429C338.581 492.259 338.981 492.089 339.393 491.914C339.548 492.279 339.704 492.645 339.863 493.021C338.863 493.446 337.862 493.87 336.832 494.308C336.444 493.395 336.056 492.481 335.657 491.54C336.057 491.37 336.457 491.201 336.87 491.026C336.482 490.112 336.094 489.199 335.695 488.258C335.295 488.428 334.894 488.598 334.482 488.773C334.25 488.225 334.017 487.677 333.777 487.112C334.178 486.942 334.578 486.773 334.99 486.598C334.525 485.502 334.06 484.406 333.58 483.277C333.103 483.264 332.625 483.251 332.133 483.238C332.165 483.871 332.198 484.504 332.231 485.156C331.754 485.143 331.276 485.13 330.784 485.117C330.629 484.752 330.473 484.386 330.314 484.01C329.914 484.18 329.513 484.35 329.101 484.525C329.644 485.803 330.187 487.082 330.746 488.399C330.145 488.654 329.545 488.909 328.927 489.171C328.772 488.806 328.617 488.441 328.457 488.064C328.057 488.234 327.657 488.404 327.244 488.579C326.857 487.666 326.469 486.752 326.07 485.811C325.469 486.066 324.869 486.321 324.251 486.583C324.018 486.035 323.785 485.488 323.546 484.923C324.546 484.498 325.547 484.074 326.577 483.636C326.422 483.271 326.267 482.906 326.107 482.529C325.107 482.954 324.107 483.378 323.076 483.816C322.456 482.355 321.835 480.893 321.196 479.388C320.796 479.558 320.396 479.728 319.984 479.903C319.596 478.989 319.208 478.076 318.809 477.135C319.209 476.965 319.609 476.795 320.021 476.62C319.773 476.064 319.773 476.064 319.519 475.496C319.197 474.759 319.197 474.759 318.868 474.007C318.653 473.522 318.439 473.037 318.218 472.537C317.718 471.208 317.463 470.034 317.338 468.614C316.938 468.784 316.538 468.954 316.126 469.129C315.506 468.745 314.885 468.362 314.246 467.967C313.601 467.594 312.956 467.221 312.291 466.837C311.691 467.092 311.09 467.347 310.472 467.609C310.732 467.943 310.992 468.278 311.26 468.622C312.394 470.332 313.14 472.097 313.898 473.994C313.297 474.249 312.697 474.503 312.079 474.766C311.691 473.853 311.303 472.939 310.904 471.998C310.381 472.436 309.858 472.873 309.32 473.324C309.055 472.143 308.79 470.962 308.517 469.746C307.916 470 307.316 470.255 306.698 470.518C306.543 470.152 306.387 469.787 306.228 469.411C305.627 469.666 305.027 469.92 304.409 470.183C304.176 469.635 303.944 469.087 303.704 468.522C303.304 468.692 302.904 468.862 302.491 469.037C302.104 468.124 301.716 467.21 301.316 466.27C300.716 466.524 300.116 466.779 299.498 467.042C298.68 464.034 298.17 461.077 297.792 457.967C299.475 458.559 299.475 458.559 300.18 460.22C301.057 460.063 301.935 459.906 302.84 459.744C302.685 459.378 302.53 459.013 302.37 458.637C301.97 458.807 301.57 458.976 301.157 459.151C300.77 458.238 300.382 457.325 299.983 456.384C299.382 456.639 298.782 456.894 298.164 457.156C296.535 455.464 295.062 453.774 293.76 451.84C293.36 452.009 292.96 452.179 292.548 452.354C290.862 450.052 289.176 447.75 287.439 445.377C287.039 445.547 286.639 445.717 286.227 445.892C286.072 445.527 285.917 445.161 285.757 444.785C285.034 445.307 284.311 445.83 283.566 446.368C283.877 447.099 284.187 447.829 284.506 448.582C285.107 448.327 285.707 448.072 286.325 447.81C286.37 447.36 286.415 446.909 286.462 446.446C287.204 447.639 287.947 448.833 288.713 450.063C289.113 449.893 289.513 449.723 289.925 449.548C290.158 450.096 290.39 450.644 290.63 451.209C290.23 451.378 289.83 451.548 289.417 451.723C290.348 453.915 291.278 456.107 292.237 458.365C291.314 458.973 290.391 459.58 289.44 460.206C289.208 459.658 288.975 459.11 288.735 458.545C289.336 458.29 289.936 458.036 290.554 457.773C289.779 455.946 289.004 454.12 288.205 452.238C287.605 452.493 287.004 452.748 286.386 453.01C286.541 453.375 286.696 453.741 286.856 454.117C286.456 454.287 286.055 454.457 285.643 454.632C285.255 453.719 284.868 452.805 284.468 451.864C283.868 452.119 283.268 452.374 282.649 452.636C282.494 452.271 282.339 451.906 282.18 451.529C282.78 451.275 283.38 451.02 283.998 450.757C282.403 447.554 280.807 444.352 279.163 441.052C279.486 440.699 279.808 440.347 280.141 439.983C280.528 440.897 280.916 441.81 281.315 442.751C281.916 442.496 282.516 442.241 283.134 441.979C282.469 440.968 281.804 439.957 281.118 438.915C280.718 439.085 280.318 439.255 279.906 439.43C279.673 438.882 279.441 438.334 279.201 437.769C277.683 439.462 277.683 439.462 277.999 440.857C278.132 441.27 278.266 441.683 278.404 442.109C278.642 442.843 278.88 443.577 279.125 444.334C278.725 444.504 278.325 444.674 277.913 444.849C278.3 445.762 278.688 446.675 279.087 447.616C278.487 447.871 277.887 448.126 277.268 448.388C276.26 446.014 275.252 443.639 274.214 441.193C274.614 441.023 275.014 440.853 275.427 440.678C274.884 439.399 274.341 438.121 273.782 436.803C272.982 437.143 272.181 437.483 271.357 437.833C271.512 438.198 271.667 438.563 271.827 438.94C271.226 439.195 270.626 439.449 270.008 439.712C269.62 438.799 269.232 437.885 268.833 436.944C269.233 436.775 269.633 436.605 270.046 436.43C269.642 435.53 269.642 435.53 269.229 434.612C268.401 432.555 268.401 432.555 268.302 430.637C266.702 431.317 265.101 431.996 263.452 432.696C263.019 432.233 262.586 431.77 262.141 431.293C259.585 431.947 257.028 432.601 254.395 433.274C254.24 432.909 254.085 432.544 253.925 432.167C253.525 432.337 253.125 432.507 252.712 432.682C252.48 432.134 252.247 431.586 252.008 431.022C252.408 430.852 252.808 430.682 253.22 430.507C253.065 430.142 252.91 429.776 252.75 429.4C253.428 429.328 254.106 429.256 254.804 429.181C255.037 429.729 255.269 430.277 255.509 430.842C258.11 429.738 260.711 428.634 263.391 427.496C261.373 426.785 260.905 427.058 258.863 427.785C256.204 428.732 256.204 428.732 254.334 428.074C252.623 428.377 252.623 428.377 251.068 428.808C250.913 428.442 250.758 428.077 250.598 427.701C249.797 428.04 248.997 428.38 248.173 428.73C247.817 428.45 247.462 428.169 247.096 427.88C245.716 428.04 245.716 428.04 244.436 428.356C244.281 427.991 244.126 427.626 243.966 427.249C242.243 428.196 240.52 429.143 238.744 430.119C238.589 429.754 238.434 429.388 238.274 429.012C238.875 428.757 239.475 428.503 240.093 428.24C239.938 427.875 239.783 427.509 239.623 427.133C238.423 427.643 237.222 428.152 235.986 428.677C235.83 428.312 235.675 427.947 235.516 427.57C234.238 427.897 232.96 428.224 231.643 428.561C231.488 428.196 231.333 427.83 231.173 427.454C229.772 428.048 228.372 428.643 226.929 429.255C226.774 428.89 226.619 428.525 226.459 428.148C224.981 428.56 223.502 428.972 221.98 429.396C222.29 430.127 222.6 430.858 222.919 431.611C223.997 431.369 225.075 431.127 226.186 430.877C226.729 432.156 227.271 433.434 227.831 434.752C227.23 435.007 226.63 435.261 226.012 435.524C225.624 434.611 225.236 433.697 224.837 432.756C222.836 433.606 220.835 434.455 218.774 435.33C218.386 434.417 217.998 433.503 217.599 432.562C216.598 432.987 215.598 433.412 214.567 433.849C214.025 432.571 213.482 431.292 212.923 429.975C213.323 429.805 213.723 429.635 214.135 429.46C214.646 430.106 215.156 430.751 215.681 431.417C217.56 430.835 219.438 430.253 221.373 429.654C221.218 429.289 221.063 428.923 220.903 428.547C219.903 428.971 218.902 429.396 217.872 429.834C217.639 429.286 217.407 428.738 217.167 428.173C216.367 428.513 215.566 428.853 214.742 429.203C214.587 428.837 214.431 428.472 214.272 428.096C213.471 428.435 212.671 428.775 211.846 429.125C211.491 428.845 211.136 428.564 210.77 428.275C209.389 428.436 209.389 428.436 208.11 428.751C207.955 428.386 207.8 428.021 207.64 427.644C206.64 428.069 205.639 428.494 204.609 428.931C204.253 428.651 203.898 428.37 203.532 428.082C202.152 428.242 202.152 428.242 200.872 428.558C200.717 428.192 200.562 427.827 200.402 427.451C199.852 427.563 199.852 427.563 199.291 427.677C197.58 427.953 195.959 428.099 194.24 428.106C193.885 427.826 193.53 427.546 193.164 427.257C192.486 427.329 191.809 427.401 191.11 427.475C190.955 427.11 190.8 426.745 190.64 426.368C189.84 426.708 189.04 427.048 188.215 427.398C187.079 427.037 185.956 426.642 184.85 426.213C184.172 426.285 183.495 426.357 182.796 426.432C182.641 426.066 182.486 425.701 182.326 425.325C181.948 425.337 181.569 425.35 181.179 425.362C179.431 425.247 179.431 425.247 177.01 424.601C174.944 424.102 173.995 423.878 171.958 424.5C172.113 424.865 172.268 425.23 172.428 425.607C173.028 425.352 173.629 425.097 174.247 424.835C174.402 425.2 174.557 425.565 174.717 425.942C175.317 425.687 175.917 425.432 176.536 425.17C176.691 425.535 176.846 425.9 177.006 426.277C175.685 427.086 174.347 427.871 172.997 428.632C172.155 428.336 172.155 428.336 171.515 426.933C171.339 426.483 171.162 426.032 170.981 425.568C169.58 426.163 168.179 426.757 166.736 427.37C166.504 426.822 166.271 426.274 166.031 425.709C165.431 425.964 164.831 426.219 164.212 426.481C164.057 426.116 163.902 425.751 163.743 425.374C163.342 425.544 162.942 425.714 162.53 425.889C162.142 424.976 161.755 424.062 161.355 423.121C160.355 423.546 159.354 423.971 158.324 424.408C158.091 423.86 157.858 423.312 157.619 422.748C158.019 422.578 158.419 422.408 158.831 422.233C158.599 421.685 158.366 421.137 158.127 420.572C157.604 421.01 157.081 421.447 156.543 421.898C156.698 422.263 156.853 422.629 157.012 423.005C156.612 423.175 156.212 423.345 155.8 423.52C155.645 423.154 155.49 422.789 155.33 422.413C154.93 422.583 154.53 422.753 154.117 422.928C154.272 423.293 154.427 423.658 154.587 424.035C153.987 424.289 153.387 424.544 152.768 424.807C152.381 423.893 151.993 422.98 151.593 422.039C152.639 421.164 153.684 420.289 154.761 419.388C154.361 419.558 153.961 419.728 153.549 419.903C152.664 420.073 151.777 420.233 150.889 420.379C150.378 419.733 149.868 419.087 149.343 418.422C148.142 418.932 146.941 419.441 145.705 419.966C145.86 420.331 146.015 420.697 146.174 421.073C145.574 421.328 144.974 421.583 144.356 421.845C143.968 420.932 143.58 420.019 143.181 419.078C143.981 418.738 144.781 418.398 145.606 418.048C145.451 417.683 145.296 417.318 145.136 416.941C144.136 417.366 143.135 417.791 142.105 418.228C141.717 417.315 141.329 416.402 140.93 415.461C140.53 415.63 140.129 415.8 139.717 415.975C140.493 417.802 141.268 419.628 142.067 421.51C141.667 421.68 141.266 421.85 140.854 422.025C140.079 420.199 139.303 418.372 138.505 416.49C137.904 416.745 137.304 417 136.686 417.262C137.073 418.175 137.461 419.089 137.86 420.03C137.46 420.2 137.06 420.369 136.648 420.544C136.26 419.631 135.872 418.718 135.473 417.777C134.873 418.032 134.272 418.286 133.654 418.549C133.421 418.001 133.189 417.453 132.949 416.888C133.549 416.634 134.15 416.379 134.768 416.116C134.063 414.885 133.31 413.679 132.517 412.499C132.039 412.486 131.562 412.474 131.07 412.46C131.457 413.374 131.845 414.287 132.244 415.228C131.844 415.398 131.444 415.568 131.032 415.743C130.489 414.464 129.946 413.185 129.387 411.868C129.987 411.613 130.588 411.359 131.206 411.096C130.851 410.816 130.496 410.535 130.13 410.246C128.443 410.534 128.443 410.534 126.863 410.98C127.251 411.893 127.639 412.806 128.038 413.747C127.438 414.002 126.837 414.257 126.219 414.519C125.831 413.606 125.444 412.693 125.044 411.752C124.244 412.091 123.444 412.431 122.619 412.781C122.464 412.416 122.309 412.051 122.149 411.674C121.549 411.929 120.949 412.184 120.33 412.446C119.942 411.533 119.555 410.62 119.155 409.679C119.556 409.509 119.956 409.339 120.368 409.164C119.905 408.312 119.439 407.462 118.972 406.613C118.713 406.139 118.454 405.666 118.187 405.178C117.422 403.799 117.422 403.799 116.101 402.483C115.101 402.908 114.1 403.333 113.069 403.77C113.225 404.135 113.38 404.501 113.539 404.877C112.939 405.132 112.339 405.387 111.72 405.649C111.565 405.284 111.41 404.919 111.25 404.542C110.85 404.712 110.45 404.882 110.038 405.057C109.805 404.509 109.573 403.961 109.333 403.396C108.733 403.651 108.132 403.906 107.514 404.168C107.359 403.803 107.204 403.438 107.044 403.061C106.644 403.231 106.244 403.401 105.831 403.576C105.444 402.663 105.056 401.75 104.657 400.809C103.656 401.233 102.656 401.658 101.625 402.095C101.393 401.548 101.16 401 100.92 400.435C101.32 400.265 101.721 400.095 102.133 399.92C101.978 399.555 101.823 399.19 101.663 398.813C100.262 399.408 98.8619 400.002 97.4188 400.615C97.1862 400.067 96.9536 399.519 96.714 398.954C97.1141 398.784 97.5143 398.615 97.9266 398.44C97.7715 398.074 97.6165 397.709 97.4567 397.333C96.4563 397.757 95.4559 398.182 94.4251 398.619C93.8048 397.158 93.1846 395.697 92.5455 394.191C92.9457 394.021 93.3459 393.852 93.7581 393.677C94.1458 394.59 94.5335 395.503 94.9329 396.444C95.5332 396.189 96.1334 395.935 96.7519 395.672C96.2091 394.393 95.6664 393.115 95.1072 391.797C95.5074 391.628 95.9076 391.458 96.3198 391.283C97.6538 393.357 98.859 395.37 99.7456 397.667C100.146 397.498 100.546 397.328 100.958 397.153C100.415 395.874 99.8727 394.596 99.3136 393.278C99.7137 393.108 100.114 392.938 100.526 392.763C100.371 392.398 100.216 392.033 100.056 391.656C99.6561 391.826 99.256 391.996 98.8437 392.171C98.6886 391.806 98.5335 391.441 98.3738 391.064C97.9736 391.234 97.5734 391.404 97.1611 391.579C96.3733 390.835 95.5854 390.092 94.7737 389.326C94.3736 389.496 93.9734 389.666 93.5611 389.841C92.2528 389.498 92.2528 389.498 91.0373 388.952C90.8822 388.587 90.7272 388.222 90.5674 387.845C89.8896 387.918 89.2118 387.99 88.5135 388.064C88.3584 387.699 88.2034 387.333 88.0436 386.957C87.0882 386.931 86.1328 386.906 85.1484 386.879C85.381 387.427 85.6136 387.975 85.8533 388.54C85.4531 388.71 85.0529 388.88 84.6406 389.055C85.0536 389.715 85.4666 390.375 85.8921 391.055C87.1436 393.055 87.1436 393.055 86.9901 394.59C86.5899 394.76 86.1898 394.929 85.7775 395.104C85.0021 393.278 84.2268 391.451 83.428 389.569C82.8277 389.824 82.2275 390.079 81.609 390.342C81.8416 390.889 82.0742 391.437 82.3139 392.002C81.9137 392.172 81.5135 392.342 81.1012 392.517C80.2809 391.14 79.4605 389.764 78.6153 388.346C78.2152 388.516 77.815 388.686 77.4027 388.861C77.6353 389.409 77.8679 389.957 78.1075 390.521C77.7074 390.691 77.3072 390.861 76.8949 391.036C76.6623 390.488 76.4297 389.94 76.1901 389.376C75.5898 389.63 74.9895 389.885 74.3711 390.148C74.6037 390.696 74.8363 391.244 75.0759 391.808C74.6758 391.978 74.2756 392.148 73.8633 392.323C73.243 390.862 72.6228 389.4 71.9837 387.895C70.9833 388.319 69.9828 388.744 68.9521 389.182C68.2093 387.988 67.4665 386.794 66.7011 385.564C67.3014 385.31 67.9017 385.055 68.5201 384.792C68.0116 384.429 67.5031 384.065 66.9792 383.691C65.3547 382.298 64.7369 381.445 64.1167 379.476C63.7165 379.646 63.3164 379.816 62.9041 379.991C62.5164 379.077 62.1287 378.164 61.7293 377.223C62.3296 376.968 62.9298 376.714 63.5483 376.451C63.3932 376.086 63.2381 375.72 63.0784 375.344C65.0792 374.495 67.0801 373.645 69.1416 372.77C69.2966 373.136 69.4517 373.501 69.6115 373.877C71.0896 373.465 72.5677 373.054 74.0906 372.629C73.8455 373.164 73.6004 373.7 73.3479 374.251C74.4259 374.009 75.5038 373.767 76.6144 373.518C76.7695 373.883 76.9246 374.248 77.0844 374.625C77.5386 374.513 77.9929 374.401 78.4609 374.285C80.48 373.864 82.4144 373.582 84.4587 373.454C84.8139 373.735 85.169 374.015 85.5349 374.304C86.9157 374.144 86.9157 374.144 88.1951 373.828C88.3502 374.193 88.5053 374.559 88.665 374.935C89.3633 374.598 89.3633 374.598 90.0757 374.254C91.6966 373.648 91.6966 373.648 93.3792 374.24C94.6779 373.87 94.6779 373.87 96.0635 373.228C96.835 372.895 96.835 372.895 97.6221 372.554C98.1574 372.316 98.6928 372.078 99.2444 371.832C100.057 371.479 100.057 371.479 100.886 371.118C102.226 370.533 103.564 369.944 104.899 369.35C104.618 367.853 104.618 367.853 104.331 366.325C103.931 366.495 103.53 366.665 103.118 366.84C102.886 366.292 102.653 365.744 102.413 365.18C102.813 365.01 103.214 364.84 103.626 364.665C103.471 364.3 103.316 363.934 103.156 363.558C103.756 363.303 104.357 363.048 104.975 362.786C104.742 362.238 104.51 361.69 104.27 361.125C105.671 360.531 107.071 359.936 108.514 359.324C108.669 359.689 108.825 360.054 108.984 360.431C108.384 360.686 107.784 360.94 107.165 361.203C107.814 361.897 107.814 361.897 108.477 362.606C108.954 362.619 109.432 362.632 109.924 362.645C109.833 362.118 109.833 362.118 109.74 361.58C109.589 360.159 109.677 358.879 109.863 357.445C110.264 357.275 110.664 357.105 111.076 356.93C110.843 356.382 110.611 355.834 110.371 355.269C109.971 355.439 109.571 355.609 109.159 355.784C108.926 355.236 108.693 354.688 108.454 354.124C107.853 354.378 107.253 354.633 106.635 354.896C106.48 354.53 106.325 354.165 106.165 353.789C106.765 353.534 107.365 353.279 107.984 353.017C107.751 352.469 107.519 351.921 107.279 351.356C107.679 351.186 108.079 351.016 108.492 350.841C108.724 351.389 108.957 351.937 109.196 352.502C109.997 352.162 110.797 351.822 111.622 351.472C111.301 350.787 110.981 350.101 110.65 349.394C109.764 347.498 109.727 347.109 110.25 344.869C108.894 345.013 107.539 345.158 106.142 345.306C106.53 346.22 106.917 347.133 107.317 348.074C106.917 348.244 106.517 348.414 106.104 348.589C104.709 345.301 103.313 342.013 101.875 338.625C102.824 339.193 102.824 339.193 103.793 339.771C103.683 338.956 103.573 338.14 103.459 337.3C102.781 337.372 102.104 337.444 101.405 337.518C101.018 336.605 100.63 335.692 100.231 334.751C100.406 336.832 100.581 338.914 100.761 341.058C100.361 341.228 99.9607 341.398 99.5484 341.573C98.9607 340.744 98.3729 339.916 97.7673 339.063C97.3672 339.232 96.967 339.402 96.5547 339.577C96.3221 339.029 96.0895 338.481 95.8499 337.917C94.8494 338.341 93.849 338.766 92.8183 339.204C92.2755 337.925 91.7328 336.646 91.1736 335.329C90.1732 335.754 89.1728 336.178 88.142 336.616C87.7544 335.703 87.3667 334.789 86.9673 333.848C87.3674 333.679 87.7676 333.509 88.1799 333.334C87.9473 332.786 87.7147 332.238 87.4751 331.673C86.4746 332.098 85.4742 332.522 84.4435 332.96C84.0558 332.047 83.6681 331.133 83.2687 330.192C82.2683 330.617 81.2679 331.042 80.2371 331.479C79.8495 330.566 79.4618 329.653 79.0624 328.712C78.6622 328.882 78.262 329.051 77.8497 329.226C77.6171 328.679 77.3846 328.131 77.1449 327.566C76.5446 327.821 75.9444 328.076 75.3259 328.338C75.1709 327.973 75.0158 327.607 74.856 327.231C74.4559 327.401 74.0557 327.571 73.6434 327.746C73.2557 326.833 72.8681 325.919 72.4687 324.978C71.8684 325.233 71.2682 325.488 70.6497 325.75C69.7968 323.741 68.944 321.732 68.0653 319.662C67.6651 319.832 67.2649 320.002 66.8526 320.177C66.6976 319.811 66.5425 319.446 66.3827 319.07C65.7825 319.324 65.1822 319.579 64.5638 319.842C64.4087 319.476 64.2536 319.111 64.0939 318.735C63.6937 318.904 63.2935 319.074 62.8812 319.249C63.2689 320.163 63.6566 321.076 64.056 322.017C63.4557 322.272 62.8555 322.526 62.237 322.789C61.7718 321.693 61.3066 320.597 60.8273 319.468C61.4276 319.213 62.0278 318.958 62.6463 318.696C62.4912 318.331 62.3361 317.965 62.1764 317.589C62.5765 317.419 62.9767 317.249 63.389 317.074C63.1564 316.526 62.9238 315.978 62.6842 315.414C60.4359 316.743 60.4359 316.743 59.1448 318.876C58.5445 319.13 57.9443 319.385 57.3258 319.648C56.9382 318.734 56.5505 317.821 56.1511 316.88C56.9514 316.541 57.7518 316.201 58.5764 315.851C58.4213 315.485 58.2662 315.12 58.1065 314.744C56.8284 315.071 55.5504 315.398 54.2336 315.734C54.4212 316.733 54.6088 317.731 54.802 318.759C54.4019 318.929 54.0017 319.099 53.5894 319.274C53.1178 318.209 52.6508 317.141 52.1859 316.073C51.9253 315.479 51.6648 314.884 51.3964 314.272C50.77 312.632 50.77 312.632 50.6715 310.714C49.8711 311.054 49.0708 311.394 48.2462 311.744C48.8665 313.205 49.4867 314.666 50.1258 316.172C49.7256 316.342 49.3254 316.511 48.9132 316.686C48.6805 316.138 48.4479 315.59 48.2083 315.026C47.608 315.281 47.0078 315.535 46.3893 315.798C46.2343 315.433 46.0792 315.067 45.9194 314.691C46.5197 314.436 47.12 314.181 47.7384 313.919C46.918 312.543 46.0977 311.166 45.2525 309.748C44.8523 309.918 44.4521 310.088 44.0398 310.263C44.4275 311.176 44.8152 312.089 45.2146 313.03C44.2142 313.455 43.2137 313.88 42.183 314.317C42.0279 313.952 41.8729 313.587 41.7131 313.21C42.3134 312.955 42.9136 312.701 43.5321 312.438C42.9893 311.16 42.4466 309.881 41.8874 308.564C41.2872 308.818 40.6869 309.073 40.0685 309.336C40.3786 310.066 40.6887 310.797 41.0082 311.55C40.6081 311.72 40.2079 311.889 39.7956 312.064C38.2775 309.044 36.7593 306.024 35.1952 302.912C34.7174 302.899 34.2397 302.887 33.7476 302.873C33.5844 302.35 33.4212 301.826 33.253 301.287C32.5372 299.413 32.5372 299.413 30.6847 299.029C28.6878 298.258 28.5775 297.897 27.8227 296.08C27.582 295.374 27.3412 294.667 27.0932 293.94C25.7745 294.114 25.7745 294.114 24.433 294.416C23.7354 295.939 24.7736 297.563 25.2624 299.004C25.493 299.688 25.7235 300.373 25.9611 301.078C26.1421 301.606 26.3231 302.135 26.5096 302.68C25.9094 302.934 25.3091 303.189 24.6907 303.452C24.5356 303.086 24.3805 302.721 24.2208 302.345C23.8206 302.515 23.4204 302.684 23.0081 302.859C22.7755 302.311 22.5429 301.763 22.3033 301.199C22.7035 301.029 23.1036 300.859 23.5159 300.684C22.1203 297.396 20.7247 294.108 19.2868 290.721C20.2422 290.747 21.1977 290.772 22.182 290.799C21.9494 290.251 21.7168 289.703 21.4772 289.138C20.7994 289.21 20.1216 289.282 19.4233 289.357C18.803 287.895 18.1827 286.434 17.5437 284.929C17.1435 285.098 16.7433 285.268 16.331 285.443C15.8658 284.347 15.4006 283.251 14.9213 282.122C13.6433 282.449 12.3652 282.776 11.0485 283.113C12.2115 285.853 13.3745 288.593 14.5727 291.416C13.9724 291.67 13.3722 291.925 12.7537 292.188C12.3661 291.274 11.9784 290.361 11.579 289.42C11.1788 289.59 10.7787 289.76 10.3664 289.935C9.97869 289.022 9.59103 288.108 9.19162 287.167C9.59179 286.997 9.99196 286.828 10.4043 286.653C10.0166 285.739 9.62892 284.826 9.2295 283.885C8.82933 284.055 8.42916 284.225 8.01687 284.4C7.3966 282.939 6.77633 281.477 6.13727 279.972C6.73753 279.717 7.33778 279.462 7.95623 279.2C7.72363 278.652 7.49102 278.104 7.25138 277.539C6.65112 277.794 6.05087 278.049 5.43242 278.311C5.27735 277.946 5.12229 277.581 4.96252 277.204C3.96209 277.629 2.96167 278.054 1.93093 278.491C1.69833 277.943 1.46573 277.395 1.22608 276.831C1.62625 276.661 2.02642 276.491 2.43872 276.316C1.89598 275.037 1.35325 273.759 0.794066 272.441C1.39432 272.186 1.99458 271.932 2.61302 271.669C3.0007 272.582 3.38836 273.496 3.78777 274.437C4.38803 274.182 4.98829 273.927 5.60673 273.665C5.37413 273.117 5.14153 272.569 4.90188 272.004C5.30205 271.834 5.70222 271.664 6.11452 271.489C5.95945 271.124 5.80438 270.759 5.64462 270.382C6.04479 270.212 6.44496 270.043 6.85725 269.868C6.62465 269.32 6.39206 268.772 6.15241 268.207C5.75224 268.377 5.35207 268.547 4.93977 268.722C4.78471 268.356 4.62964 267.991 4.46987 267.615C5.4703 267.19 6.47072 266.765 7.50146 266.328C7.73406 266.876 7.96666 267.424 8.20631 267.988C8.60648 267.819 9.00666 267.649 9.41895 267.474C9.97419 267.669 10.5294 267.865 11.1015 268.066C11.7017 267.811 12.302 267.556 12.9204 267.294C12.6878 266.746 12.4552 266.198 12.2156 265.633C11.8154 265.803 11.4153 265.973 11.003 266.148C10.8479 265.783 10.6928 265.418 10.5331 265.041C11.5335 264.616 12.5339 264.192 13.5647 263.754C14.1524 264.583 14.7402 265.411 15.3457 266.264C16.1461 265.925 16.9464 265.585 17.771 265.235C17.9261 265.6 18.0811 265.966 18.2409 266.342C17.1179 267.034 15.9949 267.726 14.8379 268.44C17.8345 269.637 17.8345 269.637 21.0982 269.702C21.2532 270.067 21.4083 270.432 21.5681 270.809C21.9598 270.723 22.3515 270.638 22.7551 270.55C24.2283 270.333 24.2283 270.333 26.5172 270.668C26.6722 271.033 26.8273 271.398 26.9871 271.775C28.3101 270.998 29.6332 270.22 30.9963 269.42C31.1514 269.785 31.3065 270.15 31.4662 270.527C31.1436 270.879 30.821 271.232 30.4886 271.595C31.1663 271.523 31.8441 271.451 32.5425 271.376C32.6975 271.742 32.8526 272.107 33.0124 272.483C34.413 271.889 35.8136 271.294 37.2566 270.682C37.6117 270.962 37.9669 271.243 38.3328 271.531C40.3241 271.116 40.3241 271.116 42.2057 270.541C42.3607 270.906 42.5158 271.271 42.6756 271.648C45.9995 270.021 49.3234 268.395 52.748 266.719C52.7155 266.086 52.683 265.453 52.6495 264.801C53.85 264.292 55.0505 263.782 56.2874 263.257C56.9364 263.952 56.9364 263.952 57.5986 264.66C58.2764 264.588 58.9542 264.516 59.6525 264.441C59.4199 263.894 59.1873 263.346 58.9476 262.781C59.3478 262.611 59.748 262.441 60.1603 262.266C60.3929 262.814 60.6255 263.362 60.8651 263.927C62.3883 263.065 63.9114 262.203 65.4807 261.314C65.3257 260.949 65.1706 260.584 65.0108 260.207C65.5982 259.966 66.1855 259.724 66.7907 259.475C67.9428 258.995 67.9428 258.995 69.1182 258.505C70.2618 258.031 70.2618 258.031 71.4285 257.547C73.1034 256.784 74.2412 256.076 75.6896 255.021C77.1486 254.481 77.1486 254.481 78.6724 254.041C79.1809 253.892 79.6894 253.742 80.2133 253.588C80.7915 253.425 80.7915 253.425 81.3814 253.258C81.1939 252.26 81.0063 251.262 80.813 250.234C81.3515 249.938 81.89 249.642 82.4449 249.337C84.2341 248.124 84.7258 247.608 85.3301 245.703C85.4851 246.068 85.6402 246.434 85.8 246.81C86.2001 246.64 86.6003 246.47 87.0126 246.295C86.7475 245.115 86.4824 243.934 86.2092 242.717C86.6094 242.547 87.0096 242.377 87.4219 242.202C87.0342 241.289 86.6465 240.376 86.2471 239.435C86.7698 238.997 87.2926 238.56 87.8311 238.109C86.9007 235.917 85.9703 233.725 85.0117 231.467C86.0122 231.042 87.0126 230.618 88.0433 230.18C88.2759 230.728 88.5085 231.276 88.7482 231.841C88.348 232.011 87.9478 232.18 87.5355 232.356C87.9323 233.238 87.9323 233.238 88.337 234.138C88.9886 235.755 89.4026 236.976 89.5137 238.701C89.9138 238.532 90.314 238.362 90.7263 238.187C90.4937 237.639 90.2611 237.091 90.0215 236.526C90.4216 236.356 90.8218 236.186 91.2341 236.011C90.8295 235.013 90.4203 234.016 90.0091 233.02C89.6681 232.187 89.6681 232.187 89.3201 231.338C88.7625 229.885 88.7625 229.885 87.5734 229.073C86.8642 227.629 86.2967 226.138 85.6938 224.645C85.2937 224.815 84.8935 224.985 84.4812 225.16C84.2486 224.612 84.016 224.064 83.7763 223.499C84.1765 223.33 84.5767 223.16 84.989 222.985C84.4463 221.706 83.9035 220.427 83.3443 219.11C82.9442 219.28 82.544 219.45 82.1317 219.625C81.8991 219.077 81.6665 218.529 81.4269 217.964C81.827 217.794 82.2272 217.625 82.6395 217.45C82.2968 216.086 81.9542 214.723 81.6012 213.318C81.0009 213.572 80.4006 213.827 79.7822 214.09C80.1699 215.003 80.5575 215.916 80.957 216.857C79.9565 217.282 78.9561 217.707 77.9254 218.144C77.6928 217.596 77.4602 217.048 77.2205 216.484C77.6207 216.314 78.0209 216.144 78.4331 215.969C78.2781 215.604 78.123 215.238 77.9632 214.862C77.5631 215.032 77.1629 215.202 76.7506 215.377C76.518 214.829 76.2854 214.281 76.0458 213.716C76.4459 213.546 76.8461 213.376 77.2584 213.201C77.1033 212.836 76.9483 212.471 76.7885 212.094C76.3883 212.264 75.9882 212.434 75.5759 212.609C75.3433 212.061 75.1107 211.513 74.871 210.949C75.2712 210.779 75.6714 210.609 76.0836 210.434C75.5409 209.155 74.9982 207.877 74.439 206.559C74.0388 206.729 73.6387 206.899 73.2264 207.074C72.9938 206.526 72.7612 205.978 72.5215 205.414C72.9217 205.244 73.3219 205.074 73.7342 204.899C73.5016 204.351 73.269 203.803 73.0293 203.238C72.0289 203.663 71.0285 204.088 69.9977 204.525C69.8426 204.16 69.6876 203.794 69.5278 203.418C69.1276 203.588 68.7275 203.758 68.3152 203.933C68.0826 203.385 67.85 202.837 67.6103 202.272C66.6099 202.697 65.6095 203.122 64.5787 203.559C63.6483 201.367 62.7179 199.175 61.7593 196.917C61.1591 197.172 60.5588 197.427 59.9404 197.689C58.5448 194.401 57.1492 191.113 55.7113 187.726C55.111 187.981 54.5108 188.236 53.8923 188.498C54.28 189.411 54.6677 190.325 55.0671 191.266C54.2667 191.605 53.4664 191.945 52.6418 192.295C52.0215 190.834 51.4013 189.373 50.7622 187.867C50.162 188.122 49.5617 188.377 48.9433 188.639C48.7882 188.274 48.6331 187.909 48.4734 187.532C49.0736 187.277 49.6739 187.023 50.2923 186.76C50.1047 185.762 49.9171 184.764 49.7239 183.735C48.9235 184.075 48.1232 184.415 47.2986 184.765C47.066 184.217 46.8334 183.669 46.5938 183.104C45.9935 183.359 45.3932 183.614 44.7748 183.876C44.5872 182.878 44.3996 181.88 44.2064 180.851C43.6061 181.106 43.0059 181.361 42.3874 181.623C42.1548 181.075 41.9222 180.527 41.6826 179.963C43.1607 179.551 44.6388 179.139 46.1618 178.715C46.3168 179.08 46.4719 179.445 46.6316 179.822C47.2319 179.567 47.8322 179.312 48.4506 179.05C48.218 178.502 47.9854 177.954 47.7458 177.389C48.1459 177.219 48.5461 177.05 48.9584 176.874C49.3461 177.788 49.7337 178.701 50.1331 179.642C50.8109 179.57 51.4887 179.498 52.187 179.423C52.4237 180.051 52.6604 180.678 52.9042 181.324C53.5926 183.428 53.5926 183.428 55.5142 183.89C56.2068 185.311 56.2068 185.311 56.689 186.658C57.0892 186.488 57.4893 186.318 57.9016 186.143C56.3621 183.967 56.3621 183.967 54.2031 182.487C53.49 181.045 52.9264 179.551 52.3235 178.059C51.9233 178.229 51.5231 178.399 51.1108 178.574C50.6567 178.026 50.2026 177.477 49.7348 176.912C48.5282 175.236 48.5282 175.236 47.4123 174.918C46.8179 173.91 46.2247 172.902 45.64 171.888C44.6109 170.243 43.373 168.841 42.0691 167.387C42.6118 168.666 43.1545 169.945 43.7137 171.262C43.9138 171.177 44.1139 171.092 44.32 171.005C45.1404 172.381 45.9607 173.757 46.806 175.175C46.4058 175.345 46.0056 175.515 45.5933 175.69C45.7484 176.055 45.9035 176.421 46.0632 176.797C45.463 177.052 44.8627 177.307 44.2443 177.569C43.8566 176.656 43.4689 175.742 43.0695 174.802C42.6693 174.971 42.2692 175.141 41.8569 175.316C41.5017 175.036 41.1466 174.755 40.7807 174.467C39.7027 174.709 38.6247 174.951 37.5141 175.2C36.196 172.095 34.878 168.99 33.52 165.79C32.5195 166.215 31.5191 166.64 30.4884 167.077C29.3254 164.337 28.1624 161.597 26.9641 158.775C27.3643 158.605 27.7645 158.435 28.1768 158.26C27.9442 157.712 27.7116 157.164 27.4719 156.599C26.6716 156.939 25.8712 157.279 25.0466 157.629C24.814 157.081 24.5815 156.533 24.3418 155.968C23.7415 156.223 23.1413 156.478 22.5228 156.74C22.3678 156.375 22.2127 156.01 22.0529 155.633C23.0534 155.209 24.0538 154.784 25.0845 154.347C25.2396 154.712 25.3947 155.077 25.5544 155.454C26.1547 155.199 26.755 154.944 27.3734 154.681C26.2592 152.891 26.2592 152.891 25.1224 151.064C25.5226 150.894 25.9228 150.725 26.3351 150.55C26.0529 150.198 25.7708 149.846 25.4801 149.483C24.5118 147.973 24.2115 146.786 23.9856 145.014C23.7855 145.099 23.5854 145.184 23.3793 145.272C22.779 145.527 22.1787 145.781 21.5603 146.044C21.3277 145.496 21.0951 144.948 20.8554 144.383C20.4553 144.553 20.0551 144.723 19.6428 144.898C19.0394 143.807 18.4424 142.713 17.848 141.618C17.3483 140.705 17.3483 140.705 16.8384 139.773C16.0628 138.131 15.6489 136.737 15.4137 134.935C16.014 134.68 16.6142 134.425 17.2327 134.163C17.0776 133.798 16.9225 133.432 16.7628 133.056C16.1625 133.311 15.5623 133.565 14.9438 133.828C14.7112 133.28 14.4786 132.732 14.239 132.167C14.6391 131.998 15.0393 131.828 15.4516 131.653C15.2965 131.287 15.1415 130.922 14.9817 130.546C14.5815 130.716 14.1814 130.885 13.7691 131.06C13.5365 130.512 13.3039 129.965 13.0642 129.4C14.0646 128.975 15.0651 128.551 16.0958 128.113C15.3205 126.287 14.5451 124.46 13.7463 122.578C14.1465 122.408 14.5467 122.238 14.959 122.063C14.7264 121.515 14.4938 120.967 14.2541 120.403C14.8544 120.148 15.4546 119.893 16.0731 119.631C15.918 119.265 15.7629 118.9 15.6032 118.524C17.0038 117.929 18.4044 117.335 19.8474 116.722C20.0025 117.087 20.1575 117.453 20.3173 117.829C20.9175 117.574 21.5178 117.32 22.1363 117.057C21.9812 116.692 21.8261 116.326 21.6664 115.95C22.2666 115.695 22.8669 115.44 23.4853 115.178C23.7179 115.726 23.9505 116.274 24.1902 116.838C24.5903 116.669 24.9905 116.499 25.4028 116.324C25.8807 116.754 26.3585 117.184 26.8509 117.628C28.4474 119.031 28.4474 119.031 30.1633 118.794C30.5357 118.663 30.908 118.532 31.2917 118.397C32.5974 120.049 33.297 121.252 33.4062 123.378C33.7289 123.026 34.0515 122.673 34.3839 122.31C34.3514 121.677 34.3189 121.044 34.2854 120.392C34.8856 120.137 35.4859 119.883 36.1043 119.62C36.492 120.533 36.8797 121.447 37.2791 122.388C36.4787 122.727 35.6784 123.067 34.8538 123.417C36.0469 124.919 36.0469 124.919 37.8475 125.412C38.1251 125.51 38.4027 125.608 38.6888 125.709C38.6563 125.076 38.6237 124.443 38.5903 123.791C39.3906 123.451 40.1909 123.111 41.0155 122.761C41.1706 123.127 41.3257 123.492 41.4854 123.868C40.8852 124.123 40.2849 124.378 39.6665 124.64C39.7765 125.456 39.8866 126.271 39.9999 127.112C40.4001 126.942 40.8003 126.772 41.2126 126.597C42.5209 126.94 42.5209 126.94 43.7364 127.485C43.8915 127.851 44.0465 128.216 44.2063 128.592C45.0066 128.253 45.807 127.913 46.6316 127.563C46.9867 127.843 47.3419 128.124 47.7078 128.413C48.3856 128.34 49.0634 128.268 49.7617 128.194C49.9167 128.559 50.0718 128.925 50.2316 129.301C51.4321 128.791 52.6326 128.282 53.8695 127.757C54.0246 128.122 54.1796 128.487 54.3394 128.864C55.4174 128.622 56.4953 128.38 57.6059 128.131C57.761 128.496 57.9161 128.861 58.0758 129.238C58.4122 128.987 58.7486 128.736 59.0952 128.478C60.6878 127.51 62.0904 126.9 63.8198 126.228C67.7613 124.605 70.3156 122.117 73.0368 118.968C73.3594 118.615 73.682 118.263 74.0144 117.899C73.3367 117.971 72.6589 118.044 71.9605 118.118C72.3901 117.774 72.8196 117.43 73.2622 117.075C74.6912 115.834 74.6912 115.834 74.5156 114.339C74.4077 113.98 74.2999 113.622 74.1887 113.253C75.1892 112.828 76.1896 112.403 77.2203 111.966C77.1878 111.333 77.1553 110.7 77.1218 110.048C77.4444 109.695 77.7671 109.343 78.0995 108.98C78.1808 108.406 78.2621 107.833 78.3458 107.242C78.7437 105.44 78.7437 105.44 79.8791 104.427C80.2272 104.239 80.5754 104.051 80.934 103.857C80.7465 102.859 80.5589 101.861 80.3656 100.832C79.9654 101.002 79.5653 101.172 79.153 101.347C79.308 101.712 79.4631 102.078 79.6229 102.454C79.1001 102.891 78.5774 103.329 78.0389 103.78C77.4186 102.318 76.7983 100.857 76.1593 99.3515C76.7595 99.0967 77.3598 98.8419 77.9782 98.5794C78.1333 98.9447 78.2883 99.31 78.4481 99.6864C78.8483 99.5166 79.2485 99.3467 79.6608 99.1717C79.7058 98.7214 79.7508 98.2712 79.7972 97.8073C80.3974 97.5525 80.9977 97.2977 81.6161 97.0352C80.6674 93.0633 79.1753 89.428 77.5235 85.7077C77.1233 85.8776 76.7231 86.0474 76.3108 86.2224C75.6906 84.7612 75.0703 83.2999 74.4312 81.7944C75.0315 81.5396 75.6317 81.2848 76.2502 81.0223C76.4828 81.5703 76.7154 82.1182 76.955 82.6828C77.3552 82.5129 77.7554 82.3431 78.1677 82.1681C78.3227 82.5334 78.4778 82.8987 78.6376 83.2751C79.0377 83.1052 79.4379 82.9354 79.8502 82.7604C80.0828 83.3083 80.3154 83.8563 80.5551 84.4209C80.1549 84.5907 79.7547 84.7606 79.3424 84.9356C79.4975 85.3009 79.6525 85.6662 79.8123 86.0426C80.4126 85.7878 81.0128 85.533 81.6313 85.2705C80.8003 83.1815 79.9257 81.2292 78.7437 79.3106C77.5616 77.3921 76.6871 75.4398 75.8561 73.3507C75.4559 73.5206 75.0557 73.6905 74.6434 73.8655C74.4108 73.3175 74.1782 72.7695 73.9386 72.205C74.5388 71.9502 75.1391 71.6954 75.7575 71.4329C75.5249 70.8849 75.2923 70.3369 75.0527 69.7723C75.4529 69.6025 75.853 69.4326 76.2653 69.2576C77.0857 70.6339 77.906 72.0103 78.7512 73.4283C79.1514 73.2584 79.5516 73.0886 79.9639 72.9135C79.8088 72.5482 79.6537 72.1829 79.494 71.8065C79.8941 71.6367 80.2943 71.4668 80.7066 71.2918C80.3315 69.2954 79.9563 67.2989 79.5698 65.242C79.3697 65.3269 79.1696 65.4119 78.9634 65.4994C79.4611 67.2282 79.9589 68.9571 80.4717 70.7383C80.1165 70.4579 79.7614 70.1775 79.3954 69.8887C78.9953 70.0585 78.5951 70.2284 78.1828 70.4034C77.1749 68.0288 76.1669 65.6543 75.1285 63.2078C74.7283 63.3777 74.3281 63.5475 73.9158 63.7225C73.4459 62.6155 73.4459 62.6155 73.8978 61.3622C74.56 60.1829 74.56 60.1829 75.7727 59.6682C76.3604 60.4965 76.9482 61.3249 77.5537 62.1783C78.154 61.9235 78.7542 61.6687 79.3727 61.4062C78.8175 61.2108 78.2622 61.0153 77.6902 60.814C76.8577 59.1821 76.8577 59.1821 76.0578 57.1791C75.7895 56.5166 75.5212 55.8542 75.2448 55.1716C75.0438 54.659 74.8429 54.1465 74.6358 53.6184C74.2356 53.7882 73.8355 53.9581 73.4232 54.1331C73.1906 53.5851 72.958 53.0372 72.7183 52.4726C73.3186 52.2178 73.9188 51.963 74.5373 51.7005C74.3822 51.3352 74.2271 50.9699 74.0674 50.5935C74.4676 50.4236 74.8677 50.2537 75.28 50.0787C77.0433 52.5638 77.0433 52.5638 78.8421 55.0991C78.442 55.2689 78.0418 55.4388 77.6295 55.6138C78.1397 56.2595 78.6499 56.9052 79.1756 57.5705C80.28 55.1591 77.6978 50.7351 76.8083 48.5165C76.1345 46.9291 75.4505 45.3472 74.7495 43.7716C75.1496 43.6017 75.5498 43.4318 75.9621 43.2568C76.5499 44.0852 77.1376 44.9135 77.7432 45.767C77.6253 43.472 76.7869 41.7093 75.8678 39.6632C74.102 35.7305 74.102 35.7305 74.2568 34.1821C74.657 34.0123 75.0572 33.8424 75.4695 33.6674C75.6245 34.0327 75.7796 34.398 75.9394 34.7744C76.5396 34.5196 77.1399 34.2648 77.7583 34.0023C77.2156 32.7237 76.6729 31.4451 76.1137 30.1278C75.5134 30.3826 74.9132 30.6374 74.2947 30.8999C74.0621 30.3519 73.8295 29.8039 73.5899 29.2393C74.1901 28.9846 74.7904 28.7298 75.4088 28.4672C75.1762 27.9193 74.9436 27.3713 74.704 26.8067C75.1041 26.6369 75.5043 26.467 75.9166 26.292C76.1492 26.84 76.3818 27.3879 76.6215 27.9525C77.2217 27.6977 77.822 27.4429 78.4404 27.1804C77.8202 25.7192 77.1999 24.2579 76.5608 22.7524C77.1611 22.4976 77.7613 22.2428 78.3798 21.9803C78.7349 22.2606 79.0901 22.541 79.456 22.8299C80.1238 21.8997 80.1238 21.8997 80.8051 20.9508C80.65 20.5855 80.4949 20.2202 80.3352 19.8438C79.935 20.0136 79.5348 20.1835 79.1225 20.3585C78.8899 19.8105 78.6573 19.2626 78.4177 18.698C78.0175 18.8679 77.6173 19.0377 77.205 19.2127C77.05 18.8474 76.8949 18.4821 76.7351 18.1057C78.1458 17.4253 78.1458 17.4253 79.7667 16.8189C80.322 17.0143 80.8772 17.2098 81.4493 17.4112C80.9065 16.1326 80.3638 14.854 79.8046 13.5366C80.4049 13.2818 81.0051 13.027 81.6236 12.7645C81.391 12.2165 81.1584 11.6686 80.9187 11.104C81.3189 10.9341 81.7191 10.7643 82.1314 10.5893C81.9763 10.2239 81.8212 9.85863 81.6615 9.48225C82.2617 9.22745 82.862 8.97265 83.4804 8.71014C83.0152 7.6142 82.55 6.51826 82.0707 5.38911C82.671 5.13431 83.2712 4.87951 83.8897 4.617C84.1223 5.16497 84.3549 5.71295 84.5945 6.27752C85.3949 5.9378 86.1952 5.59807 87.0198 5.24806C86.7872 4.70008 86.5546 4.15211 86.3149 3.58754C85.9148 3.7574 85.5146 3.92726 85.1023 4.10227C84.9473 3.73695 84.7922 3.37164 84.6324 2.99525ZM84.4581 7.6419C84.7682 8.37253 85.0784 9.10316 85.3979 9.85593C85.9206 9.41848 86.4433 8.98103 86.9819 8.53032C86.5492 8.06728 86.1165 7.60424 85.6707 7.12717C85.2706 7.29703 84.8704 7.46689 84.4581 7.6419ZM81.4872 14.1289C81.9974 14.7746 82.5076 15.4203 83.0333 16.0855C83.1233 15.1851 83.2133 14.2846 83.3061 13.3568C82.7059 13.6116 82.1056 13.8664 81.4872 14.1289ZM77.819 39.2025C78.2842 40.2984 78.7494 41.3943 79.2287 42.5235C80.1049 40.6102 79.8514 39.7906 79.403 37.8769C78.6436 38.1505 78.6436 38.1505 77.819 39.2025ZM78.8194 46.6166C79.8956 47.4663 79.8956 47.4663 79.8956 47.4663L78.8194 46.6166ZM110.447 35.1514C111.523 36.0011 111.523 36.0011 111.523 36.0011L110.447 35.1514ZM79.7441 60.5954C81.0552 61.9985 81.0552 61.9985 81.0552 61.9985L79.7441 60.5954ZM80.0624 74.8314C80.2175 75.1968 80.3725 75.5621 80.5323 75.9385C80.1321 76.1083 79.732 76.2782 79.3197 76.4532C79.7399 77.9994 80.16 79.5456 80.5929 81.1386C80.9931 80.9687 81.3933 80.7989 81.8056 80.6239C82.2756 78.2021 81.7049 76.7127 80.6687 74.5741C80.4686 74.659 80.2685 74.7439 80.0624 74.8314ZM82.1391 83.0953C83.2153 83.9449 83.2153 83.9449 83.2153 83.9449L82.1391 83.0953ZM80.5172 87.7031C81.1374 89.1644 81.7577 90.6257 82.3968 92.1312C82.2867 91.3156 82.1767 90.5001 82.0633 89.6598C82.4634 89.4899 82.8636 89.3201 83.2759 89.1451C82.9658 88.4144 82.6556 87.6838 82.3361 86.931C81.7359 87.1858 81.1356 87.4406 80.5172 87.7031ZM14.959 122.063C15.114 122.429 15.2691 122.794 15.4289 123.17C15.829 123 16.2292 122.831 16.6415 122.656C16.4864 122.29 16.3314 121.925 16.1716 121.549C15.7714 121.718 15.3713 121.888 14.959 122.063ZM30.5489 120.018C30.5039 120.469 30.4589 120.919 30.4125 121.383C30.9678 121.578 31.523 121.774 32.0951 121.975C31.5848 121.329 31.0746 120.684 30.5489 120.018ZM16.8992 131.692C17.9754 132.541 17.9754 132.541 17.9754 132.541L16.8992 131.692ZM26.2365 148.632C27.0894 150.641 27.9423 152.65 28.821 154.72C29.0211 154.635 29.2212 154.55 29.4273 154.463C28.5744 152.454 27.7216 150.444 26.8429 148.374C26.6428 148.459 26.4427 148.544 26.2365 148.632ZM30.2686 154.759C30.5784 155.58 30.8975 156.397 31.2207 157.213C31.3974 157.668 31.5742 158.124 31.7562 158.593C32.3037 159.914 32.3037 159.914 34.0656 160.333C35.0613 161.625 35.0613 161.625 35.8467 162.843C36.2469 162.673 36.6471 162.503 37.0594 162.328C36.1615 160.769 35.2636 159.21 34.3385 157.604C33.9383 157.774 33.5382 157.944 33.1259 158.119C32.5831 156.84 32.0404 155.562 31.4812 154.244C31.081 154.414 30.6809 154.584 30.2686 154.759ZM32.2467 161.105C33.5579 162.508 33.5579 162.508 33.5579 162.508L32.2467 161.105ZM32.8151 164.13C33.0477 164.678 33.2803 165.226 33.52 165.79C34.1202 165.536 34.7205 165.281 35.3389 165.018C35.1063 164.47 34.8737 163.922 34.6341 163.358C34.0338 163.613 33.4336 163.867 32.8151 164.13ZM37.0594 162.328C37.1786 162.711 37.2978 163.094 37.4207 163.489C38.1999 166.027 38.9116 168.519 39.371 171.146C39.6036 171.694 39.8362 172.242 40.0758 172.806C40.476 172.636 40.8762 172.466 41.2884 172.291C40.9465 168.623 40.0862 165.661 38.5069 162.367C38.0292 162.354 37.5515 162.341 37.0594 162.328ZM47.3365 181.482C47.4916 181.848 47.6466 182.213 47.8064 182.589C48.4067 182.335 49.0069 182.08 49.6254 181.817C49.4703 181.452 49.3152 181.087 49.1555 180.71C48.5552 180.965 47.9549 181.22 47.3365 181.482ZM53.3239 185.473C53.479 185.839 53.634 186.204 53.7938 186.58C54.194 186.41 54.5941 186.241 55.0064 186.066C54.8514 185.7 54.6963 185.335 54.5365 184.959C54.1364 185.128 53.7362 185.298 53.3239 185.473ZM58.5079 185.886C58.8517 189.379 59.569 192.105 61.0545 195.257C61.4547 195.087 61.8548 194.917 62.2671 194.742C61.8795 193.829 61.4918 192.915 61.0924 191.974C61.4925 191.804 61.8927 191.635 62.305 191.46C62.7377 191.923 63.1704 192.386 63.6162 192.863C64.1741 191.891 64.1741 191.891 63.3059 190.341C63.0657 189.809 62.8254 189.278 62.5779 188.731C61.9776 188.986 61.3773 189.24 60.7589 189.503C60.2162 188.224 59.6734 186.946 59.1143 185.628C58.9142 185.713 58.7141 185.798 58.5079 185.886ZM64.5939 191.794C64.8265 192.342 65.0591 192.89 65.2987 193.455C64.8986 193.625 64.4984 193.795 64.0861 193.97C64.4738 194.883 64.8614 195.796 65.2608 196.737C66.0612 196.398 66.8615 196.058 67.6861 195.708C68.1963 196.353 68.7065 196.999 69.2322 197.664C69.4323 197.579 69.6324 197.495 69.8385 197.407C69.4509 196.494 69.0632 195.58 68.6638 194.64C68.2636 194.809 67.8635 194.979 67.4512 195.154C66.7083 193.961 65.9655 192.767 65.2002 191.537C65.0001 191.622 64.8 191.707 64.5939 191.794ZM193.8 142.175C193.955 142.541 194.111 142.906 194.27 143.282C194.593 142.93 194.916 142.577 195.248 142.214C194.77 142.201 194.293 142.189 193.8 142.175ZM70.4449 197.15C71.991 199.106 71.991 199.106 71.991 199.106L70.4449 197.15ZM71.8546 200.471C73.1657 201.874 73.1657 201.874 73.1657 201.874L71.8546 200.471ZM73.3021 200.509C74.0775 202.336 74.8528 204.163 75.6516 206.045C76.0518 205.875 76.452 205.705 76.8643 205.53C76.9242 205.949 76.984 206.368 77.0457 206.8C77.4876 208.803 78.2391 210.567 79.0774 212.429C79.4775 212.259 79.8777 212.09 80.29 211.915C80.335 211.464 80.38 211.014 80.4264 210.55C81.0142 211.379 81.6019 212.207 82.2075 213.06C82.5301 212.708 82.8528 212.355 83.1852 211.992C82.4836 210.058 82.4836 210.058 81.5405 208.118C80.9853 207.922 80.43 207.727 79.858 207.525C79.0881 206.331 78.3368 205.126 77.607 203.908C77.3294 203.81 77.0518 203.713 76.7657 203.612C75.9959 202.418 75.2446 201.212 74.5148 199.995C74.1146 200.165 73.7144 200.334 73.3021 200.509ZM88.5511 228.005C89.8623 229.408 89.8623 229.408 89.8623 229.408L88.5511 228.005ZM297.39 168.754C297.623 169.302 297.855 169.85 298.095 170.414C297.695 170.584 297.295 170.754 296.882 170.929C297.315 171.392 297.748 171.855 298.193 172.332C298.639 171.712 299.084 171.092 299.543 170.453C299.232 169.722 298.922 168.992 298.603 168.239C298.203 168.409 297.802 168.579 297.39 168.754ZM296.238 174.469C296.393 174.834 296.548 175.199 296.708 175.576C297.108 175.406 297.508 175.236 297.921 175.061C297.766 174.696 297.61 174.33 297.451 173.954C297.051 174.124 296.65 174.294 296.238 174.469ZM36.6427 302.951C36.8753 303.499 37.1079 304.047 37.3476 304.611C37.7478 304.442 38.1479 304.272 38.5602 304.097C38.3276 303.549 38.095 303.001 37.8554 302.436C37.4552 302.606 37.055 302.776 36.6427 302.951ZM39.4015 304.393C39.5566 304.758 39.7116 305.124 39.8714 305.5C40.194 305.147 40.5167 304.795 40.8491 304.432C40.3714 304.419 39.8937 304.406 39.4015 304.393ZM41.9253 305.281C43.0015 306.131 43.0015 306.131 43.0015 306.131L41.9253 305.281ZM43.8428 306.427C43.9979 306.792 44.1529 307.158 44.3127 307.534C44.7129 307.364 45.113 307.194 45.5253 307.019C45.3703 306.654 45.2152 306.289 45.0554 305.912C44.6552 306.082 44.2551 306.252 43.8428 306.427ZM49.1253 308.757C50.2016 309.607 50.2016 309.607 50.2016 309.607L49.1253 308.757ZM51.0428 309.903C51.398 310.184 51.7531 310.464 52.119 310.753C52.1641 310.303 52.2091 309.852 52.2555 309.389C51.8553 309.558 51.4551 309.728 51.0428 309.903ZM52.4525 313.224C52.6851 313.772 52.9177 314.32 53.1574 314.885C53.7576 314.63 54.3579 314.375 54.9763 314.113C54.7437 313.565 54.5111 313.017 54.2715 312.452C53.6712 312.707 53.071 312.962 52.4525 313.224ZM55.4841 311.937C55.7167 312.485 55.9493 313.033 56.189 313.598C56.5891 313.428 56.9893 313.258 57.4016 313.083C56.9689 312.62 56.5362 312.157 56.0904 311.68C55.8904 311.765 55.6903 311.85 55.4841 311.937ZM58.2429 313.379C59.3191 314.229 59.3191 314.229 59.3191 314.229L58.2429 313.379ZM66.6556 316.341C67.7318 317.19 67.7318 317.19 67.7318 317.19L66.6556 316.341ZM68.5731 317.487C68.7281 317.852 68.8832 318.217 69.0429 318.594C69.4431 318.424 69.8433 318.254 70.2556 318.079C70.1005 317.713 69.9454 317.348 69.7857 316.972C69.3855 317.142 68.9853 317.312 68.5731 317.487ZM70.8619 317.821C71.9381 318.671 71.9381 318.671 71.9381 318.671L70.8619 317.821ZM71.6653 321.4C71.6978 322.033 71.7303 322.666 71.7638 323.318C72.164 323.148 72.5642 322.978 72.9765 322.803C72.5438 322.34 72.1111 321.877 71.6653 321.4ZM76.9857 320.448C77.1408 320.813 77.2959 321.179 77.4556 321.555C77.8558 321.385 78.256 321.215 78.6683 321.04C78.5132 320.675 78.3581 320.31 78.1984 319.933C77.7982 320.103 77.398 320.273 76.9857 320.448ZM75.5003 323.691C76.043 324.97 76.5857 326.249 77.1449 327.566C78.1453 327.141 79.1458 326.717 80.1765 326.279C80.5642 327.192 80.9518 328.106 81.3512 329.047C81.7514 328.877 82.1516 328.707 82.5639 328.532C81.8661 326.888 81.1683 325.244 80.4493 323.55C79.7715 323.623 79.0938 323.695 78.3954 323.769C78.0403 323.489 77.6851 323.208 77.3192 322.919C76.719 323.174 76.1187 323.429 75.5003 323.691ZM82.2683 322.778C82.3775 324.904 83.0771 326.107 84.3828 327.76C84.783 327.59 85.1832 327.42 85.5955 327.245C85.4404 326.88 85.2853 326.514 85.1256 326.138C85.5257 325.968 85.9259 325.798 86.3382 325.623C85.0224 324.553 83.7502 323.664 82.2683 322.778ZM87.1795 325.92C88.2557 326.769 88.2557 326.769 88.2557 326.769L87.1795 325.92ZM85.0877 329.42C85.2428 329.786 85.3978 330.151 85.5576 330.527C85.9578 330.358 86.3579 330.188 86.7702 330.013C86.6152 329.647 86.4601 329.282 86.3003 328.906C85.9001 329.075 85.5 329.245 85.0877 329.42ZM94.0082 330.207C94.1037 330.988 94.1992 331.769 94.2976 332.574C94.3513 333.014 94.405 333.453 94.4604 333.906C94.6447 335.254 94.6447 335.254 95.38 336.81C95.9802 336.555 96.5805 336.3 97.1989 336.038C96.3786 334.661 95.5582 333.285 94.713 331.867C95.1132 331.697 95.5133 331.527 95.9256 331.352C96.5134 332.181 97.1011 333.009 97.7067 333.862C98.1069 333.693 98.5071 333.523 98.9193 333.348C98.2541 332.337 97.5888 331.326 96.9033 330.284C96.5032 330.454 96.103 330.624 95.6907 330.799C95.5356 330.433 95.3806 330.068 95.2208 329.692C94.8206 329.862 94.4205 330.031 94.0082 330.207ZM90.4688 333.669C90.7014 334.217 90.934 334.765 91.1736 335.329C91.5738 335.159 91.974 334.989 92.3863 334.814C92.1537 334.266 91.9211 333.718 91.6814 333.154C91.2812 333.324 90.8811 333.494 90.4688 333.669ZM63.5483 376.451C63.7033 376.816 63.8584 377.182 64.0182 377.558C64.741 377.036 65.4638 376.513 66.2085 375.975C65.3306 376.132 64.4528 376.289 63.5483 376.451ZM111.311 357.483C112.387 358.333 112.387 358.333 112.387 358.333L111.311 357.483ZM298.664 277.957C298.819 278.322 298.974 278.688 299.133 279.064C299.534 278.894 299.934 278.724 300.346 278.549C300.191 278.184 300.036 277.819 299.876 277.442C299.476 277.612 299.076 277.782 298.664 277.957ZM68.5201 384.792C68.8302 385.523 69.1404 386.254 69.4599 387.006C71.0768 386.643 71.0768 386.643 72.7264 386.273C73.1141 387.186 73.5018 388.1 73.9012 389.041C74.5014 388.786 75.1017 388.531 75.7201 388.269C75.0224 386.625 74.3246 384.981 73.6056 383.287C72.4826 383.979 71.3596 384.671 70.2026 385.385C70.0476 385.019 69.8925 384.654 69.7327 384.278C69.3326 384.448 68.9324 384.617 68.5201 384.792ZM75.2881 383.879C75.5207 384.427 75.7533 384.975 75.993 385.54C76.2381 385.005 76.4832 384.469 76.7357 383.918C76.258 383.905 75.7803 383.892 75.2881 383.879ZM76.2279 386.093C76.4605 386.641 76.6931 387.189 76.9328 387.754C77.333 387.584 77.7331 387.414 78.1454 387.239C77.9904 386.874 77.8353 386.508 77.6755 386.132C78.0757 385.962 78.4759 385.792 78.8882 385.617C78.7331 385.252 78.578 384.887 78.4183 384.51C77.1254 384.962 77.1254 384.962 76.2279 386.093ZM348.935 271.642C350.246 273.046 350.246 273.046 350.246 273.046L348.935 271.642ZM347.586 273.522C347.741 273.887 347.896 274.252 348.056 274.629C348.456 274.459 348.856 274.289 349.268 274.114C349.113 273.749 348.958 273.383 348.799 273.007C348.398 273.177 347.998 273.347 347.586 273.522ZM81.2755 387.87C82.3518 388.72 82.3518 388.72 82.3518 388.72L81.2755 387.87ZM341.545 284.578C341.701 284.943 341.856 285.308 342.015 285.685C341.493 286.122 340.97 286.56 340.431 287.01C340.586 287.376 340.742 287.741 340.901 288.117C340.501 288.287 340.101 288.457 339.689 288.632C339.844 288.997 339.999 289.363 340.159 289.739C342.106 288.109 342.332 286.897 342.993 284.616C342.515 284.604 342.038 284.591 341.545 284.578ZM338.946 290.254C338.901 290.704 338.856 291.154 338.809 291.618C339.21 291.448 339.61 291.278 340.022 291.103C339.667 290.823 339.312 290.543 338.946 290.254ZM100.761 393.317C101.471 393.878 102.182 394.438 102.914 395.016C103.436 394.579 103.959 394.141 104.498 393.691C103.302 393.191 103.302 393.191 101.974 392.802C101.574 392.972 101.173 393.142 100.761 393.317ZM337.832 292.686C338.908 293.536 338.908 293.536 338.908 293.536L337.832 292.686ZM101.701 395.531C101.856 395.896 102.011 396.262 102.171 396.638C102.571 396.468 102.971 396.298 103.383 396.123C103.228 395.758 103.073 395.393 102.914 395.016C102.513 395.186 102.113 395.356 101.701 395.531ZM105.574 394.54C106.65 395.39 106.65 395.39 106.65 395.39L105.574 394.54ZM337.188 296.226C338.264 297.076 338.264 297.076 338.264 297.076L337.188 296.226ZM106.279 396.201C106.511 396.749 106.744 397.297 106.983 397.861C107.384 397.691 107.784 397.522 108.196 397.347C108.164 396.714 108.131 396.081 108.098 395.429C107.497 395.683 106.897 395.938 106.279 396.201ZM103.482 398.041C103.637 398.406 103.792 398.772 103.952 399.148C104.352 398.978 104.752 398.808 105.165 398.633C105.009 398.268 104.854 397.903 104.695 397.526C104.294 397.696 103.894 397.866 103.482 398.041ZM109.78 396.021C110.485 397.681 110.485 397.681 110.485 397.681L109.78 396.021ZM107.688 399.522C108.231 400.8 108.774 402.079 109.333 403.396C109.733 403.226 110.133 403.057 110.546 402.882C110.391 402.516 110.236 402.151 110.076 401.775C110.676 401.52 111.276 401.265 111.895 401.003C112.05 401.368 112.205 401.733 112.365 402.11C112.765 401.94 113.165 401.77 113.577 401.595C113.345 401.047 113.112 400.499 112.872 399.934C112.417 399.939 111.961 399.944 111.492 399.949C109.977 399.857 109.977 399.857 108.901 399.007C108.501 399.177 108.101 399.347 107.688 399.522ZM112.168 398.274C113.244 399.123 113.244 399.123 113.244 399.123L112.168 398.274ZM114.32 399.973C114.475 400.338 114.63 400.704 114.79 401.08C115.19 400.91 115.59 400.74 116.002 400.565C115.847 400.2 115.692 399.835 115.533 399.458C115.132 399.628 114.732 399.798 114.32 399.973ZM330.503 310.822C330.658 311.187 330.813 311.552 330.973 311.929C330.573 312.099 330.172 312.269 329.76 312.444C329.948 313.442 330.135 314.44 330.329 315.468C330.851 315.031 331.374 314.594 331.913 314.143C331.68 313.595 331.447 313.047 331.208 312.482C331.608 312.312 332.008 312.143 332.42 311.968C332.188 311.42 331.955 310.872 331.716 310.307C331.315 310.477 330.915 310.647 330.503 310.822ZM119.603 402.303C120.914 403.707 120.914 403.707 120.914 403.707L119.603 402.303ZM329.116 315.983C329.271 316.348 329.426 316.714 329.586 317.09C329.986 316.92 330.386 316.75 330.799 316.575C330.643 316.21 330.488 315.845 330.329 315.468C329.928 315.638 329.528 315.808 329.116 315.983ZM121.012 405.624C121.788 407.451 122.563 409.278 123.362 411.16C123.762 410.99 124.162 410.82 124.574 410.645C123.922 408.551 123.269 406.456 122.596 404.299C121.837 404.572 121.837 404.572 121.012 405.624ZM123.672 405.148C124.183 405.794 124.693 406.44 125.219 407.105C125.619 406.935 126.019 406.765 126.431 406.59C126.619 407.589 126.806 408.587 127 409.615C127.8 409.276 128.6 408.936 129.425 408.586C128.477 406.353 127.078 405.77 124.885 404.634C124.485 404.804 124.085 404.973 123.672 405.148ZM130.872 408.625C131.028 408.99 131.183 409.355 131.342 409.732C131.743 409.562 132.143 409.392 132.555 409.217C132.4 408.852 132.245 408.486 132.085 408.11C131.685 408.28 131.285 408.45 130.872 408.625ZM133.161 408.96C134.473 410.363 134.473 410.363 134.473 410.363L133.161 408.96ZM135.041 413.388C135.351 414.118 135.661 414.849 135.981 415.602C136.581 415.347 137.181 415.092 137.8 414.83C137.289 414.184 136.779 413.538 136.254 412.873C135.853 413.043 135.453 413.213 135.041 413.388ZM138.073 412.101C138.383 412.831 138.693 413.562 139.012 414.315C139.413 414.145 139.813 413.975 140.225 413.8C140.658 414.263 141.09 414.726 141.536 415.203C141.426 414.388 141.316 413.572 141.203 412.732C140.802 412.902 140.402 413.072 139.99 413.247C139.757 412.699 139.525 412.151 139.285 411.586C138.885 411.756 138.485 411.926 138.073 412.101ZM141.908 414.392C142.34 414.855 142.773 415.318 143.219 415.795C143.541 415.443 143.864 415.09 144.196 414.727C143.841 414.447 143.486 414.166 143.12 413.878C142.72 414.047 142.32 414.217 141.908 414.392ZM322.59 337.697C322.623 338.33 322.656 338.963 322.689 339.615C323.089 339.445 323.489 339.275 323.902 339.1C323.469 338.637 323.036 338.174 322.59 337.697ZM145.273 415.577C145.428 415.942 145.583 416.307 145.742 416.684C146.065 416.331 146.388 415.979 146.72 415.616C146.242 415.603 145.765 415.59 145.273 415.577ZM146.955 416.169C147.388 416.632 147.82 417.095 148.266 417.572C148.034 417.024 147.801 416.476 147.561 415.912C147.361 415.997 147.161 416.082 146.955 416.169ZM149.479 417.058C149.434 417.508 149.389 417.958 149.343 418.422C149.865 417.984 150.388 417.547 150.927 417.096C150.449 417.084 149.971 417.071 149.479 417.058ZM151.396 418.203C151.551 418.569 151.707 418.934 151.866 419.31C152.266 419.14 152.667 418.971 153.079 418.796C152.924 418.43 152.769 418.065 152.609 417.689C152.209 417.858 151.809 418.028 151.396 418.203ZM155.603 419.684C155.758 420.049 155.913 420.415 156.073 420.791C156.473 420.621 156.873 420.451 157.285 420.276C157.13 419.911 156.975 419.546 156.815 419.169C156.415 419.339 156.015 419.509 155.603 419.684ZM318.703 350.452C318.657 350.903 318.612 351.353 318.566 351.817C319.121 352.012 319.677 352.208 320.249 352.409C320.139 351.593 320.029 350.778 319.915 349.938C319.515 350.107 319.115 350.277 318.703 350.452ZM317.588 352.885C317.821 353.433 318.054 353.981 318.293 354.545C318.693 354.376 319.094 354.206 319.506 354.031C319.273 353.483 319.041 352.935 318.801 352.37C318.401 352.54 318.001 352.71 317.588 352.885ZM159.809 421.165C159.964 421.53 160.119 421.895 160.279 422.272C160.679 422.102 161.079 421.932 161.492 421.757C161.337 421.392 161.182 421.026 161.022 420.65C160.622 420.82 160.221 420.99 159.809 421.165ZM161.727 422.311C162.282 422.506 162.837 422.701 163.409 422.903C163.454 422.453 163.499 422.002 163.546 421.538C162.945 421.793 162.345 422.048 161.727 422.311ZM164.015 422.645C164.171 423.011 164.326 423.376 164.485 423.752C165.008 423.315 165.531 422.878 166.069 422.427C165.392 422.499 164.714 422.571 164.015 422.645ZM166.304 422.98C166.214 423.881 166.124 424.781 166.031 425.709C166.432 425.539 166.832 425.369 167.244 425.194C167.089 424.829 166.934 424.464 166.774 424.087C167.141 424.255 167.507 424.423 167.885 424.596C169.474 425.185 169.474 425.185 171.723 423.946C171.568 423.581 171.413 423.216 171.253 422.839C170.653 423.094 170.053 423.349 169.434 423.611C169.279 423.246 169.124 422.881 168.965 422.504C168.087 422.661 167.209 422.819 166.304 422.98ZM313.193 367.816C313.625 368.279 314.058 368.742 314.504 369.219C314.471 368.586 314.439 367.953 314.405 367.301C314.005 367.471 313.605 367.641 313.193 367.816ZM312.548 371.355C312.703 371.721 312.859 372.086 313.018 372.462C313.418 372.292 313.819 372.122 314.231 371.947C314.076 371.582 313.921 371.217 313.761 370.84C313.361 371.01 312.961 371.18 312.548 371.355ZM311.806 372.977C311.961 373.342 312.116 373.708 312.276 374.084C312.676 373.914 313.076 373.744 313.488 373.569C313.333 373.204 313.178 372.839 313.018 372.462C312.618 372.632 312.218 372.802 311.806 372.977ZM306.508 382.411C306.663 382.777 306.818 383.142 306.978 383.518C307.378 383.348 307.778 383.179 308.19 383.004C308.035 382.638 307.88 382.273 307.721 381.897C307.32 382.066 306.92 382.236 306.508 382.411ZM305.159 384.29C305.314 384.656 305.469 385.021 305.629 385.397C306.152 384.96 306.674 384.523 307.213 384.072C306.535 384.144 305.857 384.216 305.159 384.29ZM304.651 386.466C304.884 387.014 305.116 387.562 305.356 388.126C305.756 387.956 306.156 387.786 306.569 387.611C306.336 387.063 306.103 386.515 305.864 385.951C305.464 386.121 305.063 386.291 304.651 386.466ZM304.143 388.641C304.253 389.456 304.363 390.272 304.477 391.112C304.877 390.942 305.277 390.773 305.689 390.598C305.179 389.952 304.669 389.306 304.143 388.641ZM284.673 423.688C284.704 424.911 284.704 424.911 285.006 426.16C285.562 426.355 286.117 426.551 286.689 426.752C286.224 425.656 285.759 424.56 285.279 423.431C285.079 423.516 284.879 423.601 284.673 423.688ZM271.432 431.268C271.588 431.634 271.743 431.999 271.902 432.375C271.502 432.545 271.102 432.715 270.69 432.89C270.922 433.438 271.155 433.986 271.395 434.551C272.195 434.211 272.995 433.871 273.82 433.521C274.53 434.082 275.24 434.643 275.972 435.22C275.507 434.124 275.042 433.028 274.563 431.899C274.162 432.069 273.762 432.239 273.35 432.414C272.917 431.951 272.485 431.488 272.039 431.011C271.839 431.096 271.639 431.181 271.432 431.268ZM285.211 450.243C285.366 450.608 285.521 450.973 285.681 451.35C286.281 451.095 286.882 450.84 287.5 450.577C287.345 450.212 287.19 449.847 287.03 449.47C286.43 449.725 285.83 449.98 285.211 450.243ZM303.681 460.04C303.914 460.588 304.146 461.136 304.386 461.7C304.709 461.348 305.031 460.995 305.364 460.632C304.808 460.437 304.253 460.241 303.681 460.04ZM306.44 461.482C307.145 463.142 307.145 463.142 307.145 463.142L306.44 461.482ZM302.529 465.755C302.762 466.303 302.994 466.851 303.234 467.415C303.757 466.978 304.279 466.54 304.818 466.09C304.463 465.809 304.108 465.529 303.742 465.24C303.342 465.41 302.941 465.58 302.529 465.755ZM308.827 463.735C309.137 464.465 309.448 465.196 309.767 465.949C310.167 465.779 310.567 465.609 310.98 465.434C310.67 464.703 310.359 463.973 310.04 463.22C309.64 463.39 309.24 463.56 308.827 463.735ZM306.872 465.871C307.059 466.869 307.247 467.868 307.44 468.896C308.041 468.641 308.641 468.386 309.259 468.124C308.872 467.211 308.484 466.297 308.085 465.356C307.684 465.526 307.284 465.696 306.872 465.871ZM319.12 471.124C320.017 472.683 320.915 474.242 321.84 475.848C322.241 475.678 322.641 475.509 323.053 475.334C323.024 473.524 322.778 472.924 321.505 471.581C321.118 471.261 320.731 470.94 320.332 470.609C319.932 470.779 319.532 470.949 319.12 471.124ZM324.031 474.265C324.263 474.813 324.496 475.361 324.736 475.926C325.136 475.756 325.536 475.586 325.948 475.411C325.716 474.863 325.483 474.315 325.243 473.751C324.843 473.92 324.443 474.09 324.031 474.265ZM326.555 475.154C328.101 477.11 328.101 477.11 328.101 477.11L326.555 475.154ZM322.545 477.509C323.088 478.787 323.631 480.066 324.19 481.383C324.59 481.213 324.99 481.044 325.403 480.869C325.06 479.505 324.717 478.142 324.364 476.737C323.764 476.991 323.164 477.246 322.545 477.509ZM326.282 477.882C326.979 479.526 327.677 481.17 328.396 482.864C328.796 482.694 329.197 482.524 329.609 482.349C328.911 480.705 328.213 479.061 327.494 477.368C327.094 477.538 326.694 477.707 326.282 477.882ZM329.313 476.596C329.423 477.411 329.533 478.227 329.647 479.067C330.047 478.897 330.447 478.727 330.859 478.552C330.349 477.907 329.839 477.261 329.313 476.596ZM331.701 478.848C331.856 479.214 332.011 479.579 332.171 479.955C332.493 479.603 332.816 479.25 333.148 478.887C332.671 478.874 332.193 478.862 331.701 478.848ZM333.618 479.994C334.051 480.457 334.484 480.92 334.929 481.397C334.897 480.764 334.864 480.132 334.831 479.479C334.431 479.649 334.03 479.819 333.618 479.994ZM336.142 480.883C336.497 481.163 336.852 481.443 337.218 481.732C337.263 481.282 337.308 480.832 337.355 480.368C336.954 480.538 336.554 480.708 336.142 480.883ZM338.294 482.582C338.805 483.228 339.315 483.873 339.841 484.539C339.808 483.906 339.775 483.273 339.742 482.621C339.264 482.608 338.787 482.595 338.294 482.582ZM340.818 483.47C342.364 485.427 342.364 485.427 342.364 485.427L340.818 483.47ZM340.545 486.199C340.778 486.747 341.011 487.295 341.25 487.86C341.65 487.69 342.051 487.52 342.463 487.345C342.23 486.797 341.998 486.249 341.758 485.684C341.358 485.854 340.958 486.024 340.545 486.199ZM343.206 485.723C343.361 486.088 343.516 486.454 343.675 486.83C344.198 486.393 344.721 485.955 345.26 485.505C344.582 485.577 343.904 485.649 343.206 485.723ZM368.3 475.725C368.455 476.09 368.61 476.455 368.769 476.832C369.17 476.662 369.57 476.492 369.982 476.317C370.137 476.682 370.292 477.048 370.452 477.424C370.852 477.254 371.252 477.084 371.665 476.909C371.355 476.179 371.044 475.448 370.725 474.695C369.925 475.035 369.124 475.375 368.3 475.725ZM345.729 486.612C346.085 486.892 346.44 487.172 346.806 487.461C346.851 487.011 346.896 486.561 346.942 486.097C346.542 486.267 346.142 486.437 345.729 486.612ZM348.018 486.946C348.173 487.312 348.328 487.677 348.488 488.054C348.811 487.701 349.133 487.348 349.466 486.985C348.988 486.972 348.51 486.96 348.018 486.946ZM373.112 476.948C373.067 477.398 373.022 477.848 372.976 478.312C373.576 478.058 374.176 477.803 374.795 477.54C374.64 477.175 374.485 476.81 374.325 476.433C373.925 476.603 373.525 476.773 373.112 476.948ZM349.936 488.092C350.091 488.458 350.246 488.823 350.406 489.199C350.806 489.029 351.206 488.86 351.618 488.685C351.463 488.319 351.308 487.954 351.148 487.578C350.748 487.747 350.348 487.917 349.936 488.092ZM354.142 489.573C354.297 489.938 354.452 490.304 354.612 490.68C355.012 490.51 355.412 490.34 355.825 490.165C355.67 489.8 355.514 489.435 355.355 489.058C354.955 489.228 354.554 489.398 354.142 489.573ZM342.857 495.016C343.09 495.564 343.322 496.112 343.562 496.677C344.362 496.337 345.163 495.998 345.987 495.648C345.754 495.099 345.522 494.552 345.282 493.987C344.482 494.327 343.682 494.666 342.857 495.016ZM353.399 491.195C353.554 491.56 353.709 491.925 353.869 492.302C354.269 492.132 354.67 491.962 355.082 491.787C354.927 491.422 354.772 491.056 354.612 490.68C354.212 490.85 353.812 491.02 353.399 491.195ZM356.431 489.908C356.586 490.273 356.741 490.639 356.901 491.015C357.223 490.662 357.546 490.31 357.879 489.947C357.401 489.934 356.923 489.921 356.431 489.908ZM358.348 491.054C358.503 491.419 358.659 491.784 358.818 492.161C359.218 491.991 359.619 491.821 360.031 491.646C359.876 491.281 359.721 490.915 359.561 490.539C359.161 490.709 358.761 490.879 358.348 491.054ZM363.161 492.277C364.237 493.127 364.237 493.127 364.237 493.127L363.161 492.277ZM365.079 493.423C365.234 493.788 365.389 494.153 365.548 494.53C366.071 494.092 366.594 493.655 367.132 493.204C366.455 493.276 365.777 493.348 365.079 493.423ZM365.783 495.083C366.016 495.631 366.249 496.179 366.488 496.744C367.089 496.489 367.689 496.234 368.307 495.972C367.875 495.509 367.442 495.046 366.996 494.569C366.596 494.738 366.196 494.908 365.783 495.083Z" fill="#6D9773" fill-opacity="0.1"/>
</svg>
