<?xml version="1.0" encoding="UTF-8"?>
<svg xmlns="http://www.w3.org/2000/svg" viewBox="0 0 26.94 26.72">
  <defs>
    <style>
      .cls-1 {
        isolation: isolate;
      }

      .cls-2 {
        fill: #bce3f9;
      }

      .cls-2, .cls-3, .cls-4, .cls-5 {
        stroke-width: 0px;
      }

      .cls-3 {
        fill: #29b7e7;
      }

      .cls-6 {
        fill: none;
        stroke: #70b533;
        stroke-linecap: round;
        stroke-linejoin: round;
        stroke-width: 2.33px;
      }

      .cls-4 {
        fill: #81cff4;
      }

      .cls-5 {
        fill: #fff;
        mix-blend-mode: overlay;
        opacity: .75;
      }
    </style>
  </defs>
  <g class="cls-1">
    <g id="_Слой_2" data-name="Слой 2">
      <g id="_Слой_1-2" data-name="Слой 1">
        <g>
          <path class="cls-6" d="M4.55,4.93c2.22-2.32,5.35-3.76,8.81-3.76,6.74,0,12.2,5.46,12.2,12.2"/>
          <path class="cls-6" d="M13.36,25.56c-6.74,0-12.2-5.46-12.2-12.2,0-1.4.23-2.74.67-3.98"/>
          <g>
            <path class="cls-3" d="M24.71,15.59c-.74,0-1.4.38-1.79.95-1.66.03-4.1-.08-7.64-.55-8.75-1.15-10.32-4.69-9.48-6.51.12-.25.27-.51.44-.77,1.29.46,2.77.89,4.28,1.13,4.27.7,8.78-.09,9.2-1.44.42-1.35-.06-4.53-6.36-4.65-4.47-.09-7.36,1.95-8.84,3.43-1.58-.76-2.33-1.31-2.33-1.31v1.09s.67.36,1.76.84c-.27.33-.46.59-.55.74-.48.82-1.09,3.72.39,6.57s6.45,5.93,9.57,7.24c3.12,1.3,7.05,2.3,7.05,2.3l.02-.02c.13.09.29.15.46.15.45,0,.81-.36.81-.81,0-.15-.04-.3-.12-.42.43-.16.76-.52.89-.96.02,0,.04,0,.06,0,.58,0,1.05-.47,1.05-1.05,0-.09-.01-.19-.04-.27.44-.29.73-.79.73-1.35,0-.01,0-.02,0-.03.14.03.28.04.42.04,1.2,0,2.16-.97,2.16-2.16s-.97-2.16-2.16-2.16ZM12.64,5.45c3.72-.12,5.24.43,5.6.9.36.47.18.62.18.62,0,0-.97,1.43-3.88,1.85-2.74.4-5.27.25-7.85-.7,1.17-1.36,3.15-2.57,5.95-2.66Z"/>
            <path class="cls-2" d="M24.51,15.67c-.44,0-.84.13-1.18.36-1.59,0-10.34.17-14.1-1.43s-5.65-3.35-5.43-5.36,3.38-3.98,3.38-3.98c0,0-2.94,1.63-3.53,2.85-1.13,2.31,0,5.16,1.09,6.24s2.87,2.1,6.71,3.25c3.84,1.15,12.82,2.33,12.82,2.33h0c.08,0,.16,0,.24,0,1.17,0,2.12-.95,2.12-2.12s-.95-2.12-2.12-2.12Z"/>
            <path class="cls-2" d="M23.59,21.54c0-.09-.01-.19-.04-.27h0s0,0,0,0c-.12-.45-.53-.78-1.02-.78-.35,0-.66.17-.85.44-1.84-.35-4.83-.94-8.02-1.68-5.21-1.21-8.6-3.69-9.57-4.63,0,0,1.76,3.51,8.96,6.06,5.4,1.91,9.48,1.91,9.48,1.91h0c.58,0,1.05-.47,1.05-1.05Z"/>
            <path class="cls-2" d="M21.59,23.54h0s0,0,0,0c-.14-.23-.4-.39-.69-.39-.18,0-.35.06-.49.16-1.61-.32-4.5-.94-6.26-1.6-2.54-.96-5.15-2.32-5.78-2.71-.64-.39,2.56,1.96,5.87,3.39s6.33,2.37,6.33,2.37l.04-.05c.09.03.18.05.29.05.45,0,.81-.36.81-.81,0-.15-.04-.3-.12-.42Z"/>
            <path class="cls-4" d="M2.2,5.79s3.75,3.13,9.28,3.27c5.04.13,7.24-2.39,7.24-2.39,0,0,.27-.61-.73-1.33-.7-.51-2.94-1.67-6.27-1.33s4.21-1.48,7.27,1.48c3.06,2.97-1.21,4.42-1.21,4.42,0,0-3.03.88-6.9,0S2.2,5.79,2.2,5.79Z"/>
            <path class="cls-2" d="M19.11,6.06s.23,2.19-1.57,2.91-6.39.51-6.39.51c0,0,4.01.78,6.48,0s1.48-3.43,1.48-3.43Z"/>
            <circle class="cls-5" cx="14.38" cy="20.78" r=".94"/>
            <circle class="cls-5" cx="13.36" cy="18.42" r="1.08"/>
            <circle class="cls-5" cx="9.75" cy="15.92" r="1.16"/>
            <circle class="cls-5" cx="22.65" cy="19.91" r="1.63"/>
            <circle class="cls-5" cx="24.78" cy="17.75" r="2.16"/>
            <circle class="cls-5" cx="22.54" cy="21.54" r="1.05"/>
            <circle class="cls-5" cx="20.9" cy="23.96" r=".81"/>
            <circle class="cls-5" cx="21.06" cy="22.16" r="1.48"/>
          </g>
        </g>
      </g>
    </g>
  </g>
</svg>