<?xml version="1.0" encoding="UTF-8"?>
<svg xmlns="http://www.w3.org/2000/svg" viewBox="0 0 83.56 80">
  <defs>
    <style>
      .cls-1 {
        fill: #83d0f5;
      }

      .cls-1, .cls-2, .cls-3, .cls-4 {
        stroke-width: 0px;
      }

      .cls-5 {
        isolation: isolate;
      }

      .cls-2 {
        fill: #28b8e8;
      }

      .cls-6 {
        fill: none;
        stroke: #70b634;
        stroke-linecap: round;
        stroke-linejoin: round;
        stroke-width: 1.75px;
      }

      .cls-3 {
        fill: #bce4fa;
      }

      .cls-4 {
        fill: #fff;
        mix-blend-mode: overlay;
        opacity: .75;
      }
    </style>
  </defs>
  <g class="cls-5">
    <g id="_Слой_2" data-name="Слой 2">
      <g id="_Шар_1" data-name="Шар 1">
        <g>
          <path class="cls-6" d="M11.74,12.94C18.86,5.5,28.89.87,40,.87c21.61,0,39.13,17.52,39.13,39.13"/>
          <path class="cls-6" d="M40,79.13C18.39,79.13.87,61.61.87,40c0-4.48.75-8.78,2.14-12.78"/>
          <g>
            <path class="cls-2" d="M76.39,47.14c-2.39,0-4.5,1.21-5.75,3.04-5.31.09-13.15-.27-24.51-1.76-28.07-3.69-33.12-15.05-30.4-20.88.38-.81.85-1.65,1.41-2.47,4.13,1.46,8.89,2.85,13.74,3.64,13.69,2.23,28.17-.29,29.53-4.61,1.36-4.32-.19-14.52-20.4-14.91-14.33-.28-23.62,6.24-28.37,10.99-5.08-2.43-7.47-4.19-7.47-4.19v3.5s2.16,1.16,5.63,2.68c-.88,1.05-1.46,1.89-1.75,2.37-1.55,2.62-3.5,11.95,1.26,21.08,4.76,9.13,20.69,19.04,30.69,23.21,10,4.18,22.63,7.38,22.63,7.38l.05-.08c.42.3.93.47,1.49.47,1.43,0,2.59-1.16,2.59-2.59,0-.49-.14-.96-.38-1.35,1.36-.52,2.43-1.66,2.85-3.07.07,0,.13.01.2.01,1.86,0,3.38-1.51,3.38-3.37,0-.3-.04-.6-.12-.87,1.4-.94,2.33-2.53,2.33-4.35,0-.04,0-.07,0-.11.44.09.9.13,1.36.13,3.84,0,6.94-3.11,6.94-6.94s-3.11-6.94-6.94-6.94ZM37.69,14.62c11.95-.39,16.8,1.38,17.97,2.88,1.17,1.5.58,1.98.58,1.98,0,0-3.11,4.57-12.43,5.93-8.79,1.28-16.89.8-25.2-2.26,3.75-4.38,10.1-8.24,19.08-8.53Z"/>
            <path class="cls-3" d="M75.76,47.42c-1.4,0-2.69.42-3.77,1.14-5.09-.01-33.16.54-45.24-4.6-12.08-5.14-18.14-10.74-17.42-17.2.72-6.46,10.85-12.75,10.85-12.75,0,0-9.42,5.23-11.33,9.14-3.62,7.42-.01,16.56,3.51,20,3.52,3.44,9.19,6.73,21.53,10.42,12.33,3.69,41.12,7.46,41.12,7.46v-.04c.24.03.5.04.75.04,3.76,0,6.81-3.05,6.81-6.81s-3.05-6.81-6.81-6.81Z"/>
            <path class="cls-3" d="M72.82,66.23c0-.3-.04-.6-.12-.87h0s0,0,0,0c-.39-1.44-1.7-2.5-3.26-2.5-1.13,0-2.12.56-2.74,1.41-5.9-1.11-15.48-3-25.72-5.37-16.73-3.87-27.58-11.85-30.69-14.86,0,0,5.65,11.25,28.75,19.44,17.34,6.14,30.4,6.14,30.4,6.14h0c1.86,0,3.37-1.51,3.37-3.37Z"/>
            <path class="cls-3" d="M66.4,72.66h0s0,0,0,0c-.45-.74-1.27-1.24-2.2-1.24-.59,0-1.12.2-1.56.52-5.16-1.02-14.43-3.01-20.09-5.14-8.16-3.07-16.51-7.44-18.55-8.7-2.04-1.26,8.23,6.28,18.84,10.88,10.61,4.59,20.3,7.61,20.3,7.61l.14-.17c.28.11.59.17.92.17,1.43,0,2.59-1.16,2.59-2.59,0-.49-.14-.96-.38-1.35Z"/>
            <path class="cls-1" d="M4.18,15.71s12.04,10.03,29.79,10.49c16.17.42,23.21-7.67,23.21-7.67,0,0,.87-1.94-2.33-4.27-2.26-1.64-9.42-5.34-20.1-4.27-10.68,1.07,13.5-4.76,23.31,4.76,9.81,9.52-3.88,14.18-3.88,14.18,0,0-9.71,2.82-22.14,0S4.18,15.71,4.18,15.71Z"/>
            <path class="cls-3" d="M58.43,16.58s.73,7.04-5.05,9.32c-5.78,2.29-20.49,1.65-20.49,1.65,0,0,12.86,2.5,20.78.02,7.92-2.49,4.76-10.99,4.76-10.99Z"/>
            <circle class="cls-4" cx="43.26" cy="63.79" r="3.02"/>
            <circle class="cls-4" cx="40" cy="56.22" r="3.45"/>
            <circle class="cls-4" cx="28.42" cy="48.2" r="3.72"/>
            <circle class="cls-4" cx="69.81" cy="61.01" r="5.22"/>
            <circle class="cls-4" cx="76.62" cy="54.09" r="6.94"/>
            <circle class="cls-4" cx="69.45" cy="66.23" r="3.37"/>
            <circle class="cls-4" cx="64.19" cy="74.01" r="2.59"/>
            <circle class="cls-4" cx="64.69" cy="68.22" r="4.76"/>
          </g>
        </g>
      </g>
    </g>
  </g>
</svg>