<svg xmlns="http://www.w3.org/2000/svg" version="1.1" xmlns:xlink="http://www.w3.org/1999/xlink" xmlns:svgjs="http://svgjs.dev/svgjs" width="2000" height="2250" viewBox="0 0 2000 2250"><g transform="matrix(1,0,0,1,3.410605131648481e-13,0)"><svg viewBox="0 0 320 360" data-background-color="#ffffff" preserveAspectRatio="xMidYMid meet" height="2250" width="2000" xmlns="http://www.w3.org/2000/svg" xmlns:xlink="http://www.w3.org/1999/xlink"><g id="tight-bounds" transform="matrix(1,0,0,1,0,0)"><svg viewBox="0 0 320 360" height="360" width="320"><g><svg></svg></g><g><svg viewBox="0 0 320 360" height="360" width="320"><g><path d="M20.961 227.22l3.726 4.658-1.863-6.056c-0.466-2.795-3.726 0.466-1.863 1.398M25.153 224.425c1.397 2.329 2.795 4.658 2.795 6.987 0 3.261 2.795 4.658 5.123 5.589-3.261-3.726-5.124-13.974-7.918-12.576M204.017 26.929c7.918 0 15.371-0.932 23.756 0.931 20.495 5.124 37.729 15.371 49.374 29.811l32.606 52.169c1.397 13.042 4.192 27.482 3.726 43.319 3.261 0 2.795-4.658 6.521-5.59-3.726 9.316-5.59 20.961-6.521 34.469-2.329-7.453 0-18.632 0.466-24.687-3.261 5.124-5.124 1.397-5.124-0.932 0.466-3.726-1.397-3.261-2.795-4.658-5.124-4.658-8.384-9.782-12.11-17.7 2.329-6.055 2.795-14.905-4.658-19.563-2.329-1.397-5.124-3.726-6.521-7.453-1.863-5.124-5.124-11.179-4.193-19.097 0.466-2.329-6.987 5.124-11.179 1.863-18.166-12.576-36.332-27.016-58.224-39.127-11.645 0-20.029-4.192-24.221-9.316-3.726-4.658-0.932-10.713 4.658-11.179 3.261 0 6.987-0.932 9.782 0.932 0.466-1.863 2.329-4.192 4.657-4.192M157.904 16.215l0.932 0.466c4.658 0.932 6.987 7.453 12.11 5.124 0 3.261 0.466 6.521-0.466 8.85-1.397 3.726-5.59 3.726-8.85 3.726-31.208-1.863-49.374 11.179-68.471 22.358-5.124 3.261-10.713 5.59-14.906 9.782-20.029 18.632-41.921 35.866-47.045 70.335l-4.192 38.195c-0.466 4.192-5.124 8.384-4.192 13.508l3.26 22.824c-3.261-3.261-5.124 0.932-4.192 2.795 0.466 1.397 2.329 6.055 5.124 1.863 3.726 6.987 7.453 20.495 12.576 26.55 15.837 18.632 36.332 35.4 53.101 52.169 4.192-0.932 7.453-0.932 8.384-3.727 1.397 2.795-1.397 5.59-3.726 6.056 7.453 4.658 15.837 8.85 27.016 9.781 14.44 0.932 27.948 3.261 40.524 6.522 6.521-1.863 13.042-2.795 20.029-3.261 2.329 0 3.726-3.726 6.521-4.658l0.466-4.658c2.795 4.192 2.329-1.397 0.466-4.192 3.261 2.795 4.192 5.124 5.589 6.987 0-1.397 3.726-6.521 3.727-0.466l0.931-6.055c1.397-0.932 1.863 5.124 3.261 0.931 1.397-4.192 4.192-0.932 6.987-2.329-0.932 1.863-0.466 5.59 2.794 3.261l3.727-3.261c2.329 5.59 6.055 3.261 7.918 2.329 20.495-13.042 40.99-28.413 60.553-43.784l-0.466 6.055 2.329-7.453c2.329 2.329 4.192 0.466 5.124-0.931 2.795-4.658 6.521-9.316 12.577-13.508-7.453 20.029-16.303 35.866-27.482 48.908l-4.658 5.59c0 3.261-0.932 7.453-4.658 7.918-1.863 0.466-5.59-0.932-8.384 1.863-1.397 1.863 3.261 5.59-0.466 2.795-3.261-2.329-6.521 0-10.248 0.932-2.795 0.932 1.863 3.726 2.795 5.589 0.932 1.863 1.863 3.726 1.398 6.056l-5.124-5.59c-6.055 3.261-9.782 9.316-14.906 13.974-2.329 1.863-1.397 5.124-1.397 7.918-3.261 0-6.987-0.932-8.85 0.932-1.397 1.863-0.932 4.658-0.932 7.453-4.658-0.466-5.124-7.453-9.315-6.056-4.192 0.932-8.85 1.397-12.577 3.727 2.795 5.59-4.658 2.329-3.726 3.26-6.987-4.192-13.042-7.453-20.495-4.658-15.837-5.124-35.4-2.795-49.84-0.931 0-2.329 0.466-4.658-0.466-5.124-0.932 2.329-3.726 1.397-3.26 1.397-8.85-6.055-17.7-9.782-27.016-14.905-8.384 0.932-16.303-3.261-18.632-5.59-6.521-6.055-13.974-2.795-20.029-4.192-13.042-3.261-17.7-16.769-19.098-26.084-0.932-4.658-4.658-6.521-6.055-6.056-6.055-19.563-15.371-37.263-22.824-55.429-1.863-4.658-1.397-9.316-1.397-14.44 2.329 0.932 4.658 0.466 4.192-2.794-2.329-15.371-7.918-27.016-13.974-38.195 3.261-15.837 3.726-34.469 11.179-48.443 6.521-12.576 18.632-19.098 27.016-29.811 2.795-3.726 2.795-8.85 5.59-12.11 9.316-9.316 18.632-19.098 28.879-27.482 4.658-3.726 10.247 0 17.234-1.397 2.329-8.384 11.645-15.837 20.495-13.508 3.726 0.932 11.179-8.85 13.508-9.782 3.726-1.397 1.863 3.726 1.863 6.987 8.85-6.987 20.961-10.713 32.14-14.906" fill="#64c6e3" fill-rule="nonzero" stroke="none" stroke-width="1" stroke-linecap="butt" stroke-linejoin="miter" stroke-miterlimit="10" stroke-dasharray="" stroke-dashoffset="0" font-family="none" font-weight="none" font-size="none" text-anchor="none" style="mix-blend-mode: normal" data-fill-palette-color="tertiary"></path></g><g transform="matrix(1,0,0,1,64,126.95794986393244)"><svg viewBox="0 0 192 106.08410027213512" height="106.08410027213512" width="192"><g><svg viewBox="0 0 192 106.08410027213512" height="106.08410027213512" width="192"><g><svg viewBox="0 0 192 106.08410027213512" height="106.08410027213512" width="192"><g><svg viewBox="0 0 192 106.08410027213512" height="106.08410027213512" width="192"><g id="textblocktransform"><svg viewBox="0 0 192 106.08410027213512" height="106.08410027213512" width="192" id="textblock"><g><svg viewBox="0 0 192 73.6822995461422" height="73.6822995461422" width="192"><g transform="matrix(1,0,0,1,0,0)"><svg width="192" viewBox="2.25 -36.8 99.13 38.05" height="73.6822995461422" data-palette-color="#89cf83"><path d="M2.25 0L2.25-28.7Q3.3-28.95 4.38-29.05 5.45-29.15 7.85-29.15L7.85-29.15Q9.2-29.15 10.05-28.48 10.9-27.8 10.9-26.75L10.9-26.75 10.9-22.5 8.3-22.5 8.05-25.8Q8.05-25.95 7.98-26 7.9-26.05 7.6-26.1L7.6-26.1 5.45-26.35 5.55 0 2.25 0ZM14.25 1.2L14.05-29.1 17.75-29.1 17.35-2.55 18.05-1.05 18 1.2 14.25 1.2ZM13.75-31.9L13.55-36.8 18.2-36.8 18.2-32.05 13.75-31.9ZM25.14 1.25L20.5-29.05 24.34-29.05 26.34-4.85 26.89-4.85 29.09-29.05 32.5-29.05 27.84 1.25 25.14 1.25ZM37.79 0Q36.59 0 35.92-0.48 35.24-0.95 35.24-1.8L35.24-1.8 35.24-26.9Q35.24-29.1 37.79-29.1L37.79-29.1 42.99-29.1Q43.94-29.1 44.54-28.33 45.14-27.55 45.14-26.55L45.14-26.55 45.14-14.5 43.09-12.9 38.69-13.15 38.64-3.25Q38.64-2.85 39.04-2.85L39.04-2.85 41.99-2.8 42.84-6.1 44.99-6.1 44.99 0 37.79 0ZM38.54-15.9L41.34-15.9Q41.59-15.9 41.69-16 41.79-16.1 41.79-16.45L41.79-16.45 42.09-25.75Q42.09-26.2 41.64-26.2L41.64-26.2 38.74-26.2Q38.44-26.2 38.37-26.1 38.29-26 38.29-25.75L38.29-25.75 38.54-15.9ZM49.29 0L49.29-28.7Q50.34-28.95 51.42-29.05 52.49-29.15 54.89-29.15L54.89-29.15Q56.24-29.15 57.09-28.48 57.94-27.8 57.94-26.75L57.94-26.75 57.94-22.5 55.34-22.5 55.09-25.8Q55.09-25.95 55.02-26 54.94-26.05 54.64-26.1L54.64-26.1 52.49-26.35 52.59 0 49.29 0ZM61.04 0L61.34-32.75 60.29-33.8 60.29-35.5 64.19-35.5 64.54-2.65 65.44-2.1 65.49 0 61.04 0ZM69.24 1.2L69.04-29.1 72.74-29.1 72.34-2.55 73.04-1.05 72.99 1.2 69.24 1.2ZM68.74-31.9L68.54-36.8 73.19-36.8 73.19-32.05 68.74-31.9ZM77.13 0L77.13-28.1Q78.08-28.7 79.46-28.93 80.83-29.15 83.53-29.15L83.53-29.15Q84.88-29.15 85.73-28.48 86.58-27.8 86.58-26.75L86.58-26.75 86.53 0 83.43 0 83.73-25.8Q83.73-25.95 83.66-26 83.58-26.05 83.28-26.1L83.28-26.1 80.33-26.1 80.03 0 77.13 0ZM91.88 0L90.93-36.05 94.13-36.05 94.13-16.8 95.18-16.2 97.43-17.65 97.83-29.05 101.38-29.05 99.63-16.65 97.68-15.3 100.48-13.7 100.98 0 97.68 0 97.68-11.65 95.08-13.7 94.63-13.35 94.63 0 91.88 0Z" opacity="1" transform="matrix(1,0,0,1,0,0)" fill="#89cf83" class="wordmark-text-0" data-fill-palette-color="primary" id="text-0"></path></svg></g></svg></g><g transform="matrix(1,0,0,1,0,91.07692209379726)"><svg viewBox="0 0 192 15.007178178337854" height="15.007178178337854" width="192"><g transform="matrix(1,0,0,1,0,0)"><svg width="192" viewBox="2.93 -35.42 459.11 35.88" height="15.007178178337854" data-palette-color="#64c6e3"><path d="M25.34-2.93L25.34-2.93Q25.34-1.12 22.19-1.12L22.19-1.12Q20.41-1.12 19.8-1.98L19.8-1.98Q19.51-2.39 19.51-3.93L19.51-3.93 19.43-5.49Q19.26-8.06 19.26-10.64L19.26-10.64Q19.26-16.24 18.3-18.15 17.33-20.07 15.06-20.07L15.06-20.07Q13.55-20.07 12.27-19.17 10.99-18.26 10.3-16.65L10.3-16.65Q8.89-13.35 8.89-4.47L8.89-4.47Q8.89-2.44 8.12-1.61 7.35-0.78 6.15-0.78L6.15-0.78 5.66-0.78Q2.93-0.78 2.93-2.95L2.93-2.95 2.93-3.54Q2.93-3.81 3.22-4.71L3.22-4.71 3.61-5.83Q4.2-7.81 4.2-14.31L4.2-14.31 4.32-21.56Q4.32-22.95 5.83-22.95 7.35-22.95 8.83-21.95 10.3-20.95 10.71-20.95 11.11-20.95 12.13-21.51L12.13-21.51Q15.58-23.39 17.65-23.39L17.65-23.39 18.29-23.39Q22.02-23.39 23.54-20.02L23.54-20.02Q24.27-18.43 24.27-13.18L24.27-13.18 24.27-13.01Q24.27-12.57 24.24-12.13L24.24-12.13Q24.24-10.94 24.24-10.89L24.24-10.89Q24.24-10.42 24.24-9.99L24.24-9.99Q24.24-9.64 24.24-9.33L24.24-9.33Q24.24-7.45 24.37-6.76L24.37-6.76Q24.54-5.83 24.93-4.83L24.93-4.83Q25.34-3.74 25.34-2.93ZM35.45-14.84L35.45-14.84 35.45-14.45Q35.45-13.72 36.79-13.72L36.79-13.72 37.38-13.72 37.52-13.75 38.72-13.84Q40.6-14.11 41.16-14.11L41.16-14.11Q43.82-14.11 45.16-15.11L45.16-15.11Q45.8-15.6 45.8-16.85L45.8-16.85 45.8-17.11Q45.8-18.95 44.59-20.02 43.38-21.09 41.7-21.09L41.7-21.09 41.53-21.09 41.38-21.07Q39.01-21.07 37.23-19.07 35.45-17.07 35.45-14.84ZM40.77 0.32L40.77 0.32 40.23 0.32Q35.57 0.32 32.81-2.65 30.05-5.62 30.05-10.57L30.05-10.57 30.05-11.65Q30.05-14.01 30.98-16.46L30.98-16.46Q32.86-21.34 37.11-23.19L37.11-23.19Q39.35-24.19 41.67-24.19L41.67-24.19 42.72-24.19Q45.92-24.19 48.13-22.06 50.34-19.92 50.34-16.55L50.34-16.55 50.34-16.06Q50.34-13.67 48.44-12.67L48.44-12.67Q47.12-11.96 42.28-11.25 37.45-10.55 37.01-10.4L37.01-10.4Q35.54-9.89 35.54-8.45L35.54-8.45Q35.54-6.45 37.25-5.03 38.96-3.61 41.84-3.61L41.84-3.61Q43.19-3.61 45.51-4.35 47.82-5.08 48.19-5.08L48.19-5.08Q49.44-5.08 49.44-4L49.44-4Q49.44-2.56 46.63-1.12 43.82 0.32 40.77 0.32ZM68.38-2.61L68.38-2.61Q68.38-1.64 67.19-0.87 66.01-0.1 63.98-0.1L63.98-0.1Q60.2-0.1 58.66-2.91L58.66-2.91Q57.71-4.66 57.71-11.13 57.71-17.6 57.49-18.65 57.27-19.7 56.27-20.7 55.27-21.7 55.27-22.24L55.27-22.24Q55.27-22.44 57.64-24.8L57.64-24.8Q58.15-25.32 58.67-27.08 59.2-28.83 59.42-29.39L59.42-29.39Q60.15-31.15 61.35-31.15L61.35-31.15 61.74-31.15Q62.79-31.15 63.23-30.35L63.23-30.35Q63.4-30.03 63.75-28.06 64.11-26.1 64.57-25.54 65.03-24.98 66.9-24.3 68.77-23.63 68.77-22.88L68.77-22.88 68.77-22.61Q68.77-21.63 66.63-20.96 64.5-20.29 63.89-18.82L63.89-18.82Q62.69-15.87 62.69-9.2L62.69-9.2Q62.69-6.08 63.76-4.96L63.76-4.96Q64.42-4.27 66.4-4 68.38-3.74 68.38-2.61ZM97.14-1.25L97.14-1.25Q95.4-1.25 94.13-3.42L94.13-3.42Q93.3-4.86 91.51-9.29 89.71-13.72 89.47-13.72L89.47-13.72Q89.4-13.72 87.44-9.58 85.49-5.44 84.54-3.91L84.54-3.91Q83.02-1.49 81.63-1.49L81.63-1.49Q80.75-1.49 79.79-2.19 78.83-2.88 78.24-4.47L78.24-4.47Q78.17-4.66 77.13-8.67 76.09-12.67 75-16.19 73.92-19.7 73.92-20.95 73.92-22.19 74.46-22.73 74.99-23.27 75.55-23.27L75.55-23.27Q77.82-23.27 78.75-21.39L78.75-21.39Q79.09-20.7 79.63-17.97L79.63-17.97Q82.19-7.93 83.07-7.32L83.07-7.32Q84-7.32 85.78-13.53L85.78-13.53Q86.52-16.06 86.75-18.09 86.98-20.12 87.05-20.43L87.05-20.43 87.27-21.22Q88.01-23.14 90.19-23.14 92.38-23.14 93.23-20.92L93.23-20.92Q93.57-20.02 93.86-17.76 94.16-15.5 94.69-13.23L94.69-13.23Q96.04-7.42 96.82-7.42L96.82-7.42Q97.77-7.42 99.8-13.5L99.8-13.5Q100.43-15.41 101.13-18.16 101.82-20.92 102.09-21.48L102.09-21.48Q102.97-23.22 104.88-23.22L104.88-23.22Q105.88-23.22 105.88-21.26L105.88-21.26Q105.88-20.12 103.39-12.54 100.9-4.96 100.38-3.87 99.87-2.78 98.92-2.01 97.97-1.25 97.14-1.25ZM115.03-11.89L115.03-10.3Q115.03-7.1 116.49-4.98 117.96-2.86 120.08-2.86L120.08-2.86 120.82-2.86Q123.33-2.86 125.08-5.4 126.82-7.93 126.82-12.16L126.82-12.16 126.82-13.77Q126.82-17.04 125.39-19.13 123.96-21.22 121.72-21.22L121.72-21.22 121.23-21.22Q118.62-21.22 116.85-18.63 115.08-16.04 115.08-12.45L115.08-12.45 115.03-11.89ZM120.55 0.46L120.55 0.46 119.77 0.46Q115.49 0.46 112.81-2.51 110.12-5.49 110.12-10.96L110.12-10.96 110.15-11.38Q110.15-17.38 113.32-20.85L113.32-20.85Q114.98-22.68 117.12-23.55 119.25-24.41 121.18-24.41L121.18-24.41 122.38-24.41Q124.53-24.41 126.5-23.46L126.5-23.46Q132.17-20.73 132.17-13.16L132.17-13.16 132.17-12.77Q132.14-10.3 131.36-7.76L131.36-7.76Q129.8-2.76 125.36-0.68L125.36-0.68Q122.89 0.46 120.55 0.46ZM138.76-12.7L138.76-12.7 138.76-14.58Q138.76-17.97 138.39-19.54 138.02-21.12 138.02-21.75L138.02-21.75Q138.02-23.24 140.2-23.24 142.37-23.24 143.35-22.44L143.35-22.44Q143.62-22.22 144.04-21.58 144.47-20.95 144.81-20.95L144.81-20.95Q144.88-20.95 146.94-22.19 148.99-23.44 150.45-23.44L150.45-23.44 150.82-23.44Q152.01-23.44 152.72-22.86 153.43-22.29 153.43-21.46L153.43-21.46 153.43-21.14Q153.43-20.14 152.73-19.7 152.04-19.26 150.52-19.26L150.52-19.26Q147.08-19.26 145.51-16.85 143.93-14.43 143.93-8.3L143.93-8.3Q143.93-7.42 144.24-5.59 144.54-3.76 144.54-2.83 144.54-1.9 143.54-1.05 142.54-0.2 141-0.2L141-0.2 140.17-0.2Q138.83-0.2 138.11-0.84 137.39-1.49 137.39-2.43 137.39-3.37 137.73-4.35L137.73-4.35Q138.66-6.98 138.66-10.16L138.66-10.16Q138.76-11.91 138.76-12.7ZM166.03-10.69L166.03-10.69Q163.85-10.69 163.85-4.96L163.85-4.96Q163.85-2.47 162.83-1.59 161.8-0.71 160.36-0.71 158.92-0.71 158.32-1.2 157.72-1.68 157.72-3.03L157.72-3.03Q157.72-3.13 157.99-4.96 158.26-6.79 158.68-16.35 159.09-25.9 159.09-28.03 159.09-30.15 158.98-30.8 158.87-31.45 158.64-32.37 158.41-33.3 158.41-33.54L158.41-33.54Q158.41-34.62 159.13-35.02 159.85-35.42 161.55-35.42 163.24-35.42 163.79-34.55 164.34-33.67 164.34-31.01L164.34-31.01 164.02-20.65Q164.02-16.21 165.05-16.21L165.05-16.21Q165.85-16.21 169.02-19.53 172.18-22.85 172.25-22.9L172.25-22.9Q173.23-23.58 175.2-23.58 177.18-23.58 177.18-22.61L177.18-22.61Q177.18-22.12 174.03-18.48 170.88-14.84 170.88-13.13L170.88-13.13Q170.88-12.21 174.47-7.03L174.47-7.03Q175.77-5.18 176.93-3.82 178.09-2.47 178.09-1.88L178.09-1.88Q178.09-0.66 175.83-0.66 173.57-0.66 172.35-1.95L172.35-1.95Q172.06-2.27 170.98-4.1 169.91-5.93 169.47-6.67L169.47-6.67Q166.95-10.69 166.03-10.69ZM199.24-13.64Q197.73-15.14 197.73-17.87 197.73-20.61 200.18-22.57 202.62-24.54 206.23-24.54L206.23-24.54 206.86-24.54Q210.06-24.54 211.96-23.63 213.85-22.73 213.85-20.94 213.85-19.14 212.26-19.14L212.26-19.14Q211.85-19.14 209.92-20.13 207.99-21.12 206.28-21.12 204.57-21.12 203.53-20.35 202.49-19.58 202.49-18.24 202.49-16.89 203.94-15.89L203.94-15.89Q204.77-15.31 207.85-14.04 210.94-12.77 212.26-11.6L212.26-11.6Q214.38-9.72 214.38-6.79 214.38-3.86 211.89-1.77 209.4 0.32 205.42 0.32L205.42 0.32 204.79 0.32Q200.79 0.32 198.78-0.84 196.78-2 196.78-3.87 196.78-5.74 198.34-5.74L198.34-5.74Q198.86-5.74 201.02-4.42 203.18-3.1 205.27-3.1 207.35-3.1 208.4-3.99 209.45-4.88 209.45-6.24 209.45-7.59 208.13-8.62L208.13-8.62Q207.43-9.18 204.08-10.66 200.74-12.13 199.24-13.64ZM229.79-22.6Q231.67-23.29 233.64-23.29 235.62-23.29 237.76-22.12 239.89-20.95 240.09-20.95 240.29-20.95 242.73-22.14 245.17-23.34 247.13-23.34 249.1-23.34 250.38-22.52 251.66-21.7 252.32-20.58L252.32-20.58Q253.57-18.43 253.57-11.04L253.57-11.04Q253.57-7.71 253.63-7.24 253.69-6.76 253.97-5.55 254.25-4.35 254.25-3.58 254.25-2.81 253.62-1.98 252.98-1.15 251.93-1.15L251.93-1.15Q249.86-1.15 249.46-2.83L249.46-2.83Q249.17-4.05 248.78-9.96L248.78-9.96Q248.42-15.87 247.98-16.89L247.98-16.89Q247.1-19.04 244.24-19.04L244.24-19.04Q242.41-19.04 241.38-16.75L241.38-16.75Q239.89-13.45 239.89-7.37L239.89-7.37 240.14-3.86Q240.14-2 238.77-1.05L238.77-1.05Q237.89-0.44 236.44-0.44 234.99-0.44 234.52-0.73L234.52-0.73Q233.72-1.22 233.72-2.81L233.72-2.81Q233.72-3.1 234.19-5.21 234.67-7.32 234.67-12.1 234.67-16.87 233.96-18.18 233.25-19.48 231.5-19.48 229.74-19.48 228.38-18.29 227.03-17.09 226.41-15.67 225.78-14.26 225.31-8.94 224.83-3.61 224.64-2.83L224.64-2.83Q224.29-1.49 222.67-1.49 221.05-1.49 220.45-2.45 219.85-3.42 219.85-4.81L219.85-4.81 219.97-5.66 220.44-7.35Q220.73-8.52 220.78-10.08L220.78-10.08Q221.14-19.78 221.34-21.14 221.54-22.51 223.1-22.51L223.1-22.51 226.74-21.9Q227.91-21.9 229.79-22.6ZM268.09-3.08L268.09-3.08 268.73-3.08Q270.73-3.08 272.25-4.43 273.78-5.79 273.78-7.57L273.78-7.57 273.83-7.89 273.83-8.2 273.88-8.96 273.88-10.35Q273.88-11.77 272.44-11.77L272.44-11.77 271.34-11.77 271.17-11.74 270.21-11.67Q269.53-11.57 269.24-11.57L269.24-11.57Q267.26-11.57 265.58-10.08L265.58-10.08Q264.4-9.03 264.4-7.1L264.4-7.1 264.4-6.62Q264.4-4.98 265.47-4.03 266.53-3.08 268.09-3.08ZM262.65-18.68L262.65-18.68Q261.01-18.68 261.01-20.78L261.01-20.78Q261.01-22.34 263.66-23.5 266.31-24.66 269.16-24.66L269.16-24.66 270.39-24.66Q272.85-24.66 274.73-23.74 276.61-22.83 277.6-21.26 278.59-19.7 278.81-17.19L278.81-17.19Q278.86-16.6 278.86-11.5 278.86-6.4 278.99-5.63 279.13-4.86 279.77-3.76 280.42-2.66 280.42-1.95 280.42-1.25 279.75-0.74 279.08-0.24 277.81-0.24 276.54-0.24 275.05-0.87 273.56-1.49 272.88-1.49L272.88-1.49Q272.8-1.49 270.43-0.62 268.07 0.24 266.43 0.24L266.43 0.24 265.89 0.24Q263.16 0.24 261.24-1.49 259.33-3.22 259.33-6.42 259.33-9.62 261.43-11.41 263.52-13.21 266.53-13.87L266.53-13.87Q267.43-14.06 269.53-14.38 271.63-14.7 272.39-15.04L272.39-15.04Q273.71-15.65 273.71-17.35 273.71-19.04 272.58-20.01 271.46-20.97 269.91-20.97 268.36-20.97 265.84-19.82 263.33-18.68 262.65-18.68ZM287.64-12.7L287.64-12.7 287.64-14.58Q287.64-17.97 287.28-19.54 286.91-21.12 286.91-21.75L286.91-21.75Q286.91-23.24 289.08-23.24 291.26-23.24 292.23-22.44L292.23-22.44Q292.5-22.22 292.93-21.58 293.36-20.95 293.7-20.95L293.7-20.95Q293.77-20.95 295.82-22.19 297.87-23.44 299.34-23.44L299.34-23.44 299.7-23.44Q300.9-23.44 301.61-22.86 302.32-22.29 302.32-21.46L302.32-21.46 302.32-21.14Q302.32-20.14 301.62-19.7 300.92-19.26 299.41-19.26L299.41-19.26Q295.97-19.26 294.39-16.85 292.82-14.43 292.82-8.3L292.82-8.3Q292.82-7.42 293.12-5.59 293.43-3.76 293.43-2.83 293.43-1.9 292.43-1.05 291.43-0.2 289.89-0.2L289.89-0.2 289.06-0.2Q287.72-0.2 287-0.84 286.28-1.49 286.28-2.43 286.28-3.37 286.62-4.35L286.62-4.35Q287.55-6.98 287.55-10.16L287.55-10.16Q287.64-11.91 287.64-12.7ZM319.11-2.61L319.11-2.61Q319.11-1.64 317.93-0.87 316.74-0.1 314.72-0.1L314.72-0.1Q310.93-0.1 309.39-2.91L309.39-2.91Q308.44-4.66 308.44-11.13 308.44-17.6 308.22-18.65 308-19.7 307-20.7 306-21.7 306-22.24L306-22.24Q306-22.44 308.37-24.8L308.37-24.8Q308.88-25.32 309.41-27.08 309.93-28.83 310.15-29.39L310.15-29.39Q310.88-31.15 312.08-31.15L312.08-31.15 312.47-31.15Q313.52-31.15 313.96-30.35L313.96-30.35Q314.13-30.03 314.48-28.06 314.84-26.1 315.3-25.54 315.77-24.98 317.63-24.3 319.5-23.63 319.5-22.88L319.5-22.88 319.5-22.61Q319.5-21.63 317.37-20.96 315.23-20.29 314.62-18.82L314.62-18.82Q313.42-15.87 313.42-9.2L313.42-9.2Q313.42-6.08 314.5-4.96L314.5-4.96Q315.16-4.27 317.13-4 319.11-3.74 319.11-2.61ZM341.35-0.46L341.35-0.46Q338.47-0.46 338.47-2.51L338.47-2.51Q338.47-3.44 338.92-5.27 339.37-7.1 339.52-8.65 339.66-10.21 340.04-18.7 340.42-27.2 340.42-29.05L340.42-29.05 340.42-31.93 340.27-33.98Q340.27-35.13 342.38-35.13 344.5-35.13 345.13-33.5L345.13-33.5Q345.45-32.67 345.45-28.08 345.45-23.49 345.63-22.85 345.81-22.22 346.62-22.22L346.62-22.22Q346.72-22.22 347.55-22.51L347.55-22.51 348.09-22.71Q350.7-23.73 352.6-23.73L352.6-23.73Q356.61-23.73 358.29-20.61L358.29-20.61Q359.41-18.53 359.41-11.57L359.41-11.57Q359.41-8.3 359.46-7.69 359.51-7.08 359.78-5.48 360.05-3.88 360.05-3.71L360.05-3.71Q360.05-2.27 359.4-1.57 358.75-0.88 357.08-0.88 355.41-0.88 354.9-1.9L354.9-1.9Q354.63-2.44 354.63-5L354.63-5 354.55-9.3 354.63-13.18Q354.63-19.7 350.82-19.7L350.82-19.7Q347.45-19.7 346.01-16.87 344.57-14.04 344.57-6.37L344.57-6.37 344.64-3.71Q344.64-2.34 343.79-1.4 342.93-0.46 341.35-0.46ZM370.52-11.89L370.52-10.3Q370.52-7.1 371.98-4.98 373.45-2.86 375.57-2.86L375.57-2.86 376.31-2.86Q378.82-2.86 380.57-5.4 382.31-7.93 382.31-12.16L382.31-12.16 382.31-13.77Q382.31-17.04 380.88-19.13 379.45-21.22 377.21-21.22L377.21-21.22 376.72-21.22Q374.11-21.22 372.34-18.63 370.57-16.04 370.57-12.45L370.57-12.45 370.52-11.89ZM376.04 0.46L376.04 0.46 375.26 0.46Q370.98 0.46 368.3-2.51 365.61-5.49 365.61-10.96L365.61-10.96 365.64-11.38Q365.64-17.38 368.81-20.85L368.81-20.85Q370.47-22.68 372.61-23.55 374.74-24.41 376.67-24.41L376.67-24.41 377.87-24.41Q380.02-24.41 381.99-23.46L381.99-23.46Q387.66-20.73 387.66-13.16L387.66-13.16 387.66-12.77Q387.63-10.3 386.85-7.76L386.85-7.76Q385.29-2.76 380.85-0.68L380.85-0.68Q378.38 0.46 376.04 0.46ZM392.86-21.95L392.86-21.95Q392.86-23.49 395.44-23.49L395.44-23.49 396-23.49Q397.62-23.49 398.18-22.19 398.74-20.9 398.74-17.36L398.74-17.36 398.45-9.2Q398.45-3.52 402.52-3.52L402.52-3.52Q404.01-3.52 405.38-4.57 406.75-5.62 407.41-7.08L407.41-7.08Q408.85-10.3 408.85-18.63L408.85-18.63 408.8-19.7 408.8-20.65Q408.8-21.95 409.38-22.53 409.97-23.12 411.43-23.12 412.9-23.12 413.36-22.41 413.83-21.7 413.83-20.12L413.83-20.12 413.78-18.82 413.68-13.06Q413.68-11.67 413.85-8.79 414.02-5.91 414.22-4.58 414.41-3.25 414.41-3L414.41-3Q414.41-0.83 411.21-0.83L411.21-0.83Q410.12-0.83 409.03-1.65 407.94-2.47 407.49-2.47 407.04-2.47 405.97-1.93L405.97-1.93Q402.91-0.39 400.77-0.39L400.77-0.39 400.16-0.39Q396.66-0.39 395.03-2.54 393.39-4.69 393.39-10.28L393.39-10.28 393.64-17.68Q393.64-19.07 393.25-20.34 392.86-21.61 392.86-21.95ZM422.31-13.64Q420.81-15.14 420.81-17.87 420.81-20.61 423.25-22.57 425.69-24.54 429.3-24.54L429.3-24.54 429.94-24.54Q433.14-24.54 435.03-23.63 436.92-22.73 436.92-20.94 436.92-19.14 435.33-19.14L435.33-19.14Q434.92-19.14 432.99-20.13 431.06-21.12 429.35-21.12 427.64-21.12 426.61-20.35 425.57-19.58 425.57-18.24 425.57-16.89 427.01-15.89L427.01-15.89Q427.84-15.31 430.93-14.04 434.02-12.77 435.33-11.6L435.33-11.6Q437.46-9.72 437.46-6.79 437.46-3.86 434.97-1.77 432.48 0.32 428.5 0.32L428.5 0.32 427.86 0.32Q423.86 0.32 421.86-0.84 419.85-2 419.85-3.87 419.85-5.74 421.42-5.74L421.42-5.74Q421.93-5.74 424.09-4.42 426.25-3.1 428.34-3.1 430.43-3.1 431.48-3.99 432.53-4.88 432.53-6.24 432.53-7.59 431.21-8.62L431.21-8.62Q430.5-9.18 427.15-10.66 423.81-12.13 422.31-13.64ZM447.15-14.84L447.15-14.84 447.15-14.45Q447.15-13.72 448.49-13.72L448.49-13.72 449.08-13.72 449.22-13.75 450.42-13.84Q452.3-14.11 452.86-14.11L452.86-14.11Q455.52-14.11 456.86-15.11L456.86-15.11Q457.5-15.6 457.5-16.85L457.5-16.85 457.5-17.11Q457.5-18.95 456.29-20.02 455.08-21.09 453.4-21.09L453.4-21.09 453.23-21.09 453.08-21.07Q450.71-21.07 448.93-19.07 447.15-17.07 447.15-14.84ZM452.47 0.32L452.47 0.32 451.93 0.32Q447.27 0.32 444.51-2.65 441.75-5.62 441.75-10.57L441.75-10.57 441.75-11.65Q441.75-14.01 442.68-16.46L442.68-16.46Q444.56-21.34 448.81-23.19L448.81-23.19Q451.05-24.19 453.37-24.19L453.37-24.19 454.42-24.19Q457.62-24.19 459.83-22.06 462.04-19.92 462.04-16.55L462.04-16.55 462.04-16.06Q462.04-13.67 460.14-12.67L460.14-12.67Q458.82-11.96 453.98-11.25 449.15-10.55 448.71-10.4L448.71-10.4Q447.25-9.89 447.25-8.45L447.25-8.45Q447.25-6.45 448.95-5.03 450.66-3.61 453.54-3.61L453.54-3.61Q454.89-3.61 457.21-4.35 459.53-5.08 459.89-5.08L459.89-5.08Q461.14-5.08 461.14-4L461.14-4Q461.14-2.56 458.33-1.12 455.52 0.32 452.47 0.32Z" opacity="1" transform="matrix(1,0,0,1,0,0)" fill="#64c6e3" class="slogan-text-1" data-fill-palette-color="secondary" id="text-1"></path></svg></g></svg></g></svg></g></svg></g></svg></g></svg></g></svg></g></svg></g><defs></defs></svg><rect width="320" height="360" fill="none" stroke="none" visibility="hidden"></rect></g></svg></g></svg>