<?xml version="1.0" encoding="UTF-8"?>
<svg id="_Слой_2" data-name="Слой 2" xmlns="http://www.w3.org/2000/svg" viewBox="0 0 23.9 21.89">
  <defs>
    <style>
      .cls-1 {
        fill: #24baeb;
      }

      .cls-1, .cls-2, .cls-3, .cls-4, .cls-5, .cls-6, .cls-7, .cls-8, .cls-9, .cls-10, .cls-11, .cls-12, .cls-13 {
        stroke-width: 0px;
      }

      .cls-2 {
        fill: #cc6a28;
      }

      .cls-3 {
        fill: #e98123;
      }

      .cls-4 {
        fill: #f48934;
      }

      .cls-5 {
        fill: #fff;
      }

      .cls-6 {
        fill: #71b634;
      }

      .cls-7 {
        fill: #0b1e28;
      }

      .cls-8 {
        fill: #111049;
      }

      .cls-9 {
        fill: #263a7a;
      }

      .cls-10 {
        fill: #3866af;
      }

      .cls-11 {
        fill: #f4ab44;
      }

      .cls-12 {
        fill: #005034;
      }

      .cls-13 {
        fill: #d8d8d8;
      }
    </style>
  </defs>
  <g id="_Слой_1-2" data-name="Слой 1">
    <path class="cls-12" d="M15.75,9.05s3.28,1.08,6.03-.7c0,0-3.11-3.22-6.03.7Z"/>
    <path class="cls-12" d="M0,6.03s3.29-2.71,5.75,1.86c0,0-4.34,1.46-5.75-1.86Z"/>
    <path class="cls-4" d="M1.41,5.53c-.06.03-2.03,6.3,3.85,6.68l.31-3.28s-1.51-.28-.54-1.63c0,0-.09-3.47-3.61-1.77Z"/>
    <path class="cls-6" d="M0,6.03S3.02,1.34,8.14,3.33l5.93.88s5.03-1.55,7.71,4.15c0,0-3.4-2.76-6.03.7,0,0,1.06,1.8,3.12,1.8l-.08,5.98s-6.52,3.71-13.45-1.37c0,0,1.16-.75.8-7.71l-.39.13s-1.88-3.87-5.75-1.86Z"/>
    <circle class="cls-7" cx="13.03" cy="1.74" r="1.14"/>
    <circle class="cls-7" cx="11.19" cy="1.14" r="1.14"/>
    <circle class="cls-7" cx="10" cy="2.33" r="1.14"/>
    <circle class="cls-7" cx="13.54" cy="2.84" r=".76"/>
    <circle class="cls-4" cx="11.56" cy="3.51" r="2.32"/>
    <circle class="cls-4" cx="9.24" cy="3.72" r=".77"/>
    <circle class="cls-4" cx="13.82" cy="3.97" r=".77"/>
    <path class="cls-7" d="M14.02,2.9c-.04,1.01-1.15-.47-2.47-.52s-2.38,1.27-2.34.26,1.12-1.78,2.44-1.73,2.41.98,2.37,1.99Z"/>
    <path class="cls-5" d="M10.15,4.38h2.82s-.5.47-.5.47c-.47.45-1.21.47-1.71.05l-.6-.52Z"/>
    <path class="cls-2" d="M9.11,4.23s-.02,0-.03,0c-.22-.15-.33-.31-.33-.49,0-.28.3-.46.31-.47.02-.02.05,0,.07.02.01.02,0,.05-.02.07,0,0-.26.17-.27.39,0,.14.09.27.29.4.02.02.03.05.01.07,0,.01-.03.02-.04.02Z"/>
    <path class="cls-2" d="M13.94,4.43s-.03,0-.04-.02c-.01-.02,0-.05.02-.07,0,0,.26-.17.27-.39,0-.14-.09-.27-.29-.4-.02-.02-.03-.05-.01-.07.02-.02.05-.03.07-.01.22.15.33.31.33.48,0,.28-.3.46-.31.47,0,0-.02,0-.03,0Z"/>
    <path class="cls-11" d="M6.46,9.15c.1.08.64-1.06.64-1.06,0,0-.66-.97-1.1-.58,0,0-.95.6.46,1.63Z"/>
    <path class="cls-2" d="M20.52,7.53c.07.02.31,6.73-5.47,5.59l.56-3.31s1.47-.17,1.01-1.69c0,0,1.16-1.35,3.89-.59Z"/>
    <path class="cls-4" d="M13.91,10.09c-.1.07-.55-.99-.55-.99,0,0,.64-.89,1.03-.51,0,0,.85.57-.48,1.51Z"/>
    <path class="cls-6" d="M16.59,8.16s1.57-1.56,4.18-.4l.16-.19s-.21-.32-.28-.35-1.84-.59-2-.59-1.44.26-1.46.26-.73.24-.73.24"/>
    <path class="cls-6" d="M14.08.97c.01.05.02.1.03.15,5.38.35,9.64,4.83,9.64,10.29s-4.63,10.32-10.32,10.32S3.44,17.42,3.13,12c-.05-.01-.11-.03-.16-.05.27,5.53,4.86,9.94,10.45,9.94s10.47-4.7,10.47-10.47S19.55,1.31,14.08.97Z"/>
    <circle class="cls-1" cx="10.15" cy="10.11" r="4.31"/>
    <path class="cls-10" d="M8.65,12.57l1.5,1.85s1.12.08,2.17-.6c0,0,2.17-1.01,2.15-3.72l-2.48-2.07"/>
    <rect class="cls-5" x="8.04" y="7.27" width="4.24" height="5.68" rx="1.92" ry="1.92"/>
    <path class="cls-13" d="M10.22,7.71v4.8c0,.24-.22.44-.48.44h2.06c.27,0,.48-.2.48-.44v-4.8c0-.24-.22-.44-.48-.44h-2.06c.27,0,.48.2.48.44Z"/>
    <circle class="cls-9" cx="10.19" cy="8.67" r=".91"/>
    <path class="cls-8" d="M10.2,7.76v1.81c.5,0,.9-.41.9-.91s-.4-.9-.9-.91Z"/>
    <circle class="cls-10" cx="10.2" cy="8.67" r=".7"/>
    <path class="cls-9" d="M10.2,7.97s0,0,0,0v1.4s0,0,0,0c.39,0,.7-.31.7-.7s-.31-.7-.7-.7Z"/>
    <rect class="cls-11" x="8.55" y="10.01" width="3.34" height=".59" rx=".27" ry=".27"/>
    <path class="cls-3" d="M11.6,10.01h-1.39v.59h1.39c.16,0,.29-.13.29-.29s-.13-.29-.29-.29Z"/>
    <g>
      <circle class="cls-8" cx="8.85" cy="11.21" r=".17"/>
      <circle class="cls-8" cx="9.35" cy="11.21" r=".17"/>
      <circle class="cls-8" cx="9.84" cy="11.21" r=".17"/>
      <circle class="cls-8" cx="8.85" cy="11.7" r=".17"/>
      <circle class="cls-8" cx="9.35" cy="11.7" r=".17"/>
      <circle class="cls-8" cx="9.84" cy="11.7" r=".17"/>
      <circle class="cls-8" cx="8.85" cy="12.2" r=".17"/>
      <circle class="cls-8" cx="9.35" cy="12.2" r=".17"/>
      <circle class="cls-8" cx="9.84" cy="12.2" r=".17"/>
    </g>
    <circle class="cls-8" cx="11.37" cy="11.9" r=".45"/>
    <path class="cls-11" d="M4.91,9.64s-.4-.93.93-.98c0,0,1.51-.05,1.78,1.08,0,0,.3.65-.38.48,0,0,1.03.93-.28,1.26,0,0,.45.9-.25.95,0,0-2.14.4-1.71-1.06,0,0-.75-.5-.1-1.73Z"/>
    <path class="cls-4" d="M15.86,10.83s.63-.81-.64-1.21c0,0-1.44-.44-2.01.61,0,0-.46.57.24.57,0,0-1.24.65-.06,1.31,0,0-.67.78,0,1.01,0,0,1.96.95,1.93-.6,0,0,.86-.3.55-1.68Z"/>
  </g>
</svg>