<?xml version="1.0" encoding="UTF-8"?>
<svg id="_Слой_2" data-name="Слой 2" xmlns="http://www.w3.org/2000/svg" viewBox="0 0 26.81 24.1">
  <defs>
    <style>
      .cls-1 {
        fill: #24baeb;
      }

      .cls-1, .cls-2, .cls-3, .cls-4, .cls-5, .cls-6, .cls-7, .cls-8, .cls-9, .cls-10, .cls-11, .cls-12, .cls-13, .cls-14, .cls-15 {
        stroke-width: 0px;
      }

      .cls-2 {
        fill: #cc6a28;
      }

      .cls-16 {
        font-family: Etna, Etna;
        font-size: 1.66px;
      }

      .cls-3 {
        fill: #23282b;
      }

      .cls-4 {
        fill: #e98123;
      }

      .cls-5 {
        fill: #0af4ff;
      }

      .cls-6 {
        fill: #fff;
      }

      .cls-7 {
        fill: #71b634;
      }

      .cls-8 {
        fill: #0b1e28;
      }

      .cls-17 {
        letter-spacing: .04em;
      }

      .cls-9 {
        fill: #32373b;
      }

      .cls-10 {
        fill: #3fe6ff;
      }

      .cls-11 {
        fill: #f59325;
      }

      .cls-12 {
        fill: #0f7c00;
      }

      .cls-13 {
        fill: #dfd7ca;
      }

      .cls-14 {
        fill: #b5b0c4;
      }

      .cls-15 {
        fill: #000d4c;
      }
    </style>
  </defs>
  <g id="_Слой_1-2" data-name="Слой 1">
    <g>
      <path class="cls-1" d="M20.13,10.83s-.06,0-.09,0c-.3,4.26-3.3,7.79-7.29,8.89.02.04.04.08.05.13,0,0,0,0,0,.01,4.04-1.13,7.07-4.7,7.37-9.02-.02,0-.04,0-.07,0Z"/>
      <path class="cls-1" d="M10.11,0C4.54,0,0,4.54,0,10.11c0,4.03,2.37,7.51,5.79,9.14,0-.05.02-.1.03-.15C2.47,17.49.15,14.07.15,10.11.15,4.62,4.62.15,10.11.15c3.53,0,6.63,1.85,8.4,4.63.05-.01.1-.03.16-.03C16.88,1.9,13.72,0,10.11,0Z"/>
    </g>
    <path class="cls-15" d="M24.03,5.95s.17,3.49-3.09,4.79l-.64-.63s.03-1.48.43-2.36.55-1.26.72-1.28,1.38-.5,1.57-.5,1.02-.03,1.02-.03Z"/>
    <path class="cls-11" d="M20.86,10.22s1.1.4,1.47,1.08c.07.13.13.25.21.37.18.26.37.64-.62-.1-.18-.14-.43-.18-.64-.08-.24.12-.42.44,0,1.23,0,0,.62,1.68,2.47.69,0,0,.62.72,1.86.31,0,0,1.13.34,1.17-.41,0,0,.38-2.51-1.17-2.82,0,0-.21-3.06-3.06-4.19,0,0-2.54.34-1.68,3.92Z"/>
    <path class="cls-2" d="M22.77,11.44s0,0-.01,0c-.06,0-.09-.06-.09-.11.02-.13.19-1.25.73-1.37.27-.06.56.13.88.59.1-.18.29-.42.55-.43.21,0,.42.15.62.47.07-.07.16-.13.3-.13.22,0,.44.19.68.57.03.05.01.11-.03.14-.05.03-.11.01-.14-.03-.25-.41-.43-.48-.51-.48h0c-.09,0-.16.08-.19.13-.03.04-.07.06-.11.06-.05,0-.09-.03-.11-.07-.17-.31-.33-.47-.49-.46-.17,0-.33.22-.43.42-.02.04-.06.07-.11.07-.05,0-.09-.02-.12-.06-.28-.43-.53-.64-.73-.59-.34.08-.53.91-.57,1.2,0,.05-.05.09-.1.09Z"/>
    <circle class="cls-12" cx="21.42" cy="16.83" r="4.52"/>
    <path class="cls-7" d="M18.96,19.17l2.46,2.18s1.17.08,2.27-.62c0,0,2.27-1.06,2.25-3.89l-1.89-1.62"/>
    <rect class="cls-3" x="20.92" y="13.81" width=".36" height="1.76" rx=".16" ry=".16" transform="translate(-4.61 14.86) rotate(-35.24)"/>
    <rect class="cls-3" x="21.51" y="13.81" width=".36" height="1.76" rx=".16" ry=".16" transform="translate(11.15 -9.29) rotate(32.18)"/>
    <rect class="cls-9" x="18.25" y="14.8" width="6.26" height="4.37" rx="1.98" ry="1.98"/>
    <path class="cls-3" d="M21.39,19.17h2.53c.33,0,.6-.26.6-.59v-3.19c0-.33-.27-.59-.6-.59h-2.53v4.37Z"/>
    <rect class="cls-13" x="18.79" y="15.27" width="5.12" height="3.51" rx="1.59" ry="1.59"/>
    <path class="cls-14" d="M21.35,18.78h2.07c.27,0,.49-.21.49-.47v-2.56c0-.26-.22-.47-.49-.47h-2.07v3.51Z"/>
    <text class="cls-16" transform="translate(19.72 17.63)"><tspan x="0" y="0">IP</tspan><tspan class="cls-17" x="1.28" y="0">T</tspan><tspan x="2.17" y="0">V</tspan></text>
    <path class="cls-15" d="M6.24,21.21s5.7-1.62,6.19-2.84l-2.75-.98-3.26,2.9-.18.92Z"/>
    <path class="cls-4" d="M11.53,18.38s-.14,1.27,1.96,1.89c0,0-.21-2.96.65-3.02,0,0,.86-.52.86,2.1,0,0,1.75-2.13,3.16-1.82,0,0,.96.72-1.31,1.92,0,0,2.06-.76,2.58-.24,0,0,.76.48-1.2,1.31,0,0,1.89-.17,1.75.34,0,0,.62.82-1.79,1,0,0-1.82,2.85-6.22,2.13,0,0-4.16-.72-5.12-4.57,0,0,1.44-2.61,4.67-1.03Z"/>
    <path class="cls-1" d="M12.43,18.38s-.77-8.4,8.51-7.63c0,0-.98-3.87,3.09-4.79,0,0-2.68-1.49-6.8-.88l-2.06-3.66S5.78-3.74.78,6.47l5.93,6.19s-1.44,4.43-.46,8.56c0,0,2.27-3.14,6.19-2.84Z"/>
    <path class="cls-10" d="M6.95,19.15s-.03,0-.04,0c-.05-.02-.08-.08-.05-.13,0-.02,1.03-2.41,4.38-1.64.05.01.09.07.08.12-.01.05-.07.09-.12.08-3.17-.73-4.11,1.43-4.15,1.52-.02.04-.05.06-.09.06Z"/>
    <path class="cls-10" d="M3.92,7.05s-.09-.03-.1-.08c0-.03-.67-2.78,2.59-4.85.05-.03.11-.02.14.03.03.05.02.11-.03.14-3.13,2-2.51,4.61-2.5,4.63.01.05-.02.11-.07.12,0,0-.02,0-.03,0Z"/>
    <circle class="cls-4" cx="12.33" cy="9.41" r="2.01"/>
    <circle class="cls-4" cx="14.08" cy="8.21" r=".49"/>
    <circle class="cls-4" cx="10.7" cy="10.7" r=".49"/>
    <path class="cls-8" d="M13.71,7.85c.65.93-1.27,0-2.2.65s-.51,2.64-1.16,1.71-.43-2.21.5-2.87,2.21-.43,2.87.5Z"/>
    <path class="cls-8" d="M9.14,5.88h0c.34-.28.81-.32,1.17-.12.2.1.33.3.37.52l.24,1.28-.43.37-1.23-.45c-.23-.09-.42-.28-.47-.52-.09-.38.03-.8.35-1.07Z"/>
    <path class="cls-5" d="M10.32,7.98s-.01,0-.02,0c-.05,0-.09-.06-.08-.11,0-.02.08-.48.65-.63.05-.01.11.02.12.07s-.02.11-.07.12c-.43.11-.49.45-.5.47,0,.05-.05.08-.1.08Z"/>
    <path class="cls-6" d="M12.01,10.56s1.17-.06,1.48-1.1c0,0,.38,1.73-1.48,1.1Z"/>
  </g>
</svg>