<?xml version="1.0" encoding="UTF-8"?>
<svg id="_Слой_2" data-name="Слой 2" xmlns="http://www.w3.org/2000/svg" viewBox="0 0 37.49 23.88">
  <defs>
    <style>
      .cls-1 {
        fill: #07003f;
      }

      .cls-1, .cls-2, .cls-3, .cls-4, .cls-5, .cls-6, .cls-7, .cls-8, .cls-9, .cls-10, .cls-11, .cls-12, .cls-13, .cls-14 {
        stroke-width: 0px;
      }

      .cls-2 {
        fill: #24baeb;
      }

      .cls-3 {
        fill: #cc6a28;
      }

      .cls-4 {
        fill: #e98123;
      }

      .cls-5 {
        fill: #f48934;
      }

      .cls-6 {
        fill: #fff;
      }

      .cls-7 {
        fill: #0b1e28;
      }

      .cls-8 {
        fill: #111049;
      }

      .cls-9 {
        fill: #263a7a;
      }

      .cls-10 {
        fill: #3866af;
      }

      .cls-11 {
        fill: #f4ab44;
      }

      .cls-12 {
        fill: #005034;
      }

      .cls-13 {
        fill: #dfd7ca;
      }

      .cls-14 {
        fill: #b5b0c4;
      }
    </style>
  </defs>
  <g id="_Слой_1-2" data-name="Слой 1">
    <path class="cls-7" d="M28.12,19.56s.82.91,1.18,2.17c0,0,3.86-1.03,6.33-6.88l-2.62-1.06-4.89,5.76Z"/>
    <circle class="cls-13" cx="5.65" cy="18.23" r="5.65"/>
    <path class="cls-12" d="M32.97,4.5s1.68,1.85-1.07,5.34c0,0-1.48-2.95,1.07-5.34Z"/>
    <path class="cls-5" d="M31.82,9.86s-1.08-2.55.24-3.96c0,0,1.71.26,2.77.97.23.15.41.37.54.62.47.92,1.83,3.63,2.11,4.76.04.17-.09.34-.26.33h0s-2.28-2.32-2.63-.41c0,0-.51-.17-.73.25l-1.04-2.59-.99.03Z"/>
    <path class="cls-12" d="M21.84,20.59s-3.2-.56-4.74-4.37c0,0,3.02-1.7,4.74,4.37Z"/>
    <path class="cls-4" d="M13.14,16.5l3.14.57c.12.02.25-.03.32-.13l.52-.73s2.32-.01,3.63,2.17c0,0-.82,2.1-2.41,2.6-.19.06-.4.07-.6.05l-6.92-.69c-.06,0-.12,0-.18.02-.35.13-1.65.57-2.13-.22l.89-2.54s1.8.42,1.83-1.59c0,0,.18-1.22-.82-.3-.03.03-.06.05-.09.07-.11.09-.25.14-.39.15h0s-.51.08-.7-.55c-.11-.36,0-.76.28-1.01.1-.09.24-.19.41-.27.59-.29,1.3-.29,1.87.05.49.3,1,.89,1.12,2.1.01.12.1.22.22.24Z"/>
    <path class="cls-10" d="M17.1,16.22s1.83-4.78,5.76-8.68c.33-.33.73-.57,1.16-.74.16-.06.34-.16.52-.31.26-.21.56-.38.88-.47,1.67-.47,6.58-1.8,7.55-1.52,0,0-2.03,2.19-1.11,5.35l1.02-.2.96,2.78s-.27,4.4-5.94,7.7c0,0-1.73-2.49-4.23-3.93l-1.83,4.39s-1.95-4.42-4.74-4.37Z"/>
    <path class="cls-9" d="M23.73,7.77s-.27,3.86,8.25,2.1c0,0-7.14.79-8.25-2.1Z"/>
    <path class="cls-9" d="M19.9,12.18s1.09,3.01,3.83,4.22c0,0-2.74-2.07-3.83-4.22Z"/>
    <circle class="cls-11" cx="20.4" cy="9.1" r="2.27"/>
    <circle class="cls-11" cx="22.49" cy="8.67" r=".93"/>
    <path class="cls-2" d="M22.08,7.5c-.56-.68-1.5-1-2.4-.72-.82.25-1.39.93-1.55,1.71l-1.94.6-.16.28,5.88-1.81h0s.17-.06.17-.06Z"/>
    <path class="cls-6" d="M19.16,10.63s1.17-.41,1.11-1.31c0,0,.74,2.41-1.11,1.31Z"/>
    <path class="cls-11" d="M37.21,12.29s-1.55-2.25-2.62-.46c0,0-1.75.37-1.32,1.32,0,0-1.43.17-.51,1.67,0,0,1.28,1.71,2.62.81,0,0,.26-.13.24-.64,0,0,1.26-.2.83-1.45,0,0,1.18.18.79-1.23"/>
    <path class="cls-14" d="M4.25,21.56l3.06,2.07s1.43-.33,2.48-1.58c0,0,2.32-2.1,1.26-5.48l-3.89-1.64"/>
    <circle class="cls-9" cx="5.64" cy="18.28" r="3.58"/>
    <path class="cls-8" d="M4.76,14.67c-.9.28-1.67.87-2.1,1.63.17-.08.39-.15.58-.2,1.89-.58,3.89.48,4.47,2.37.3.99.14,2.11-.34,2.94,1.56-.76,2.39-2.67,1.86-4.37-.58-1.89-2.58-2.95-4.47-2.37Z"/>
    <path class="cls-1" d="M6.91,21.63s0,0,0,0c-.02,0-.03,0-.04-.02-.58-2.52-2.22-6.81-2.24-6.85,0-.02,0-.04.02-.04.02,0,.04,0,.04.02.02.04,1.66,4.34,2.24,6.86,0,.02,0,.03-.02.04Z"/>
    <path class="cls-1" d="M9.36,18.12s-.03,0-.04-.02c-1.63-3.62-6-2.54-6.04-2.53-.02,0-.03,0-.04-.02,0-.02,0-.04.02-.04.01,0,1.13-.28,2.43-.11,1.2.16,2.82.76,3.69,2.67,0,.02,0,.04-.02.04,0,0,0,0,0,0Z"/>
    <path class="cls-1" d="M8.57,20.43s-.03,0-.04-.02c-1.56-4.24-3.61-4.98-3.63-4.99l-.05-.02.03-.04c.74-.85,1.76-.81,1.77-.81.02,0,.03.02.03.03,0,.02-.02.03-.03.03,0,0-.97-.04-1.69.75.31.13,2.18,1.08,3.63,5.01,0,.02,0,.04-.02.04,0,0,0,0,0,0Z"/>
    <path class="cls-1" d="M4.9,21.77h0s-.03,0-.04-.02c-.01-.04-1.12-4,.03-6.37,0-.02.03-.02.04-.01.02,0,.02.03.02.04-1.14,2.35-.03,6.29-.02,6.33,0,.02,0,.03-.02.04Z"/>
    <path class="cls-1" d="M3.03,20.71s0,0,0,0c-.02,0-.03,0-.04-.02,0-.03-.9-3.49,1.91-5.35.01,0,.03,0,.04,0,0,.01,0,.03,0,.04-2.77,1.84-1.89,5.25-1.88,5.28,0,.02,0,.03-.02.04Z"/>
    <path class="cls-1" d="M6.34,20.06c-1.09.34-1.81.21-1.82.2-1.58-.09-2.42-1.42-2.43-1.43,0-.02,0-.03.01-.04.01,0,.03,0,.04.01,0,.01.83,1.31,2.38,1.4.02,0,1.51.28,3.52-1.03.01,0,1.02-.64,1.21-1.68,0-.02.02-.03.04-.03.02,0,.03.02.03.04-.19,1.07-1.23,1.72-1.24,1.73-.64.42-1.24.67-1.74.83Z"/>
    <path class="cls-1" d="M6.14,18.55c-.07.02-.11.03-.11.03-2.88.83-3.85-1.15-3.86-1.17,0-.02,0-.04.02-.04.02,0,.04,0,.04.02,0,.02.96,1.95,3.79,1.13.03,0,2.39-.6,2.57-2.6,0-.02.02-.03.03-.03s.03.02.03.03c-.17,1.79-2.03,2.48-2.51,2.63Z"/>
    <path class="cls-1" d="M5.51,17.1c-1.26.39-2.46.16-2.66-.52s.65-1.53,1.91-1.92,2.46-.16,2.66.52-.65,1.53-1.91,1.92ZM4.78,14.72c-1.23.38-2.07,1.2-1.87,1.84s1.35.85,2.58.47,2.07-1.2,1.87-1.84-1.35-.85-2.58-.47Z"/>
    <path class="cls-1" d="M5.12,16c-.5.15-.95.07-1.04-.2s.25-.59.75-.74.95-.07,1.04.2-.25.59-.75.74ZM4.85,15.12c-.45.14-.77.44-.7.66s.51.29.96.15.77-.44.7-.66-.51-.29-.96-.15Z"/>
    <path class="cls-2" d="M3.06,21.83c-.36.11-.64.1-.82-.04-.39-.29-.22-1.01-.22-1.04.45-3.5,3.77-6.13,3.81-6.15.79-.75,1.38-1.04,1.76-.85.54.27.42,1.4.42,1.44,0,.02-.02.04-.05.04-.02,0-.04-.02-.04-.05,0-.01.12-1.12-.37-1.36-.34-.17-.9.11-1.67.84-.04.03-3.34,2.64-3.78,6.1,0,.01-.16.7.18.95.27.2.79.09,1.53-.33.02-.01.05,0,.06.02s0,.05-.02.06c-.3.17-.57.3-.8.37Z"/>
    <circle class="cls-2" cx="6.6" cy="14.05" r=".31"/>
    <circle class="cls-2" cx="2.98" cy="18.02" r=".27"/>
    <path class="cls-2" d="M9.58,20.33c-.25.08-.56.12-.94.13-.02,0-.04-.02-.04-.04,0-.02.02-.04.04-.04.83-.02,1.33-.2,1.47-.52.17-.4-.24-.91-.42-1.11-.18-.2-.4-.39-.64-.56-2.72-1.91-4.68-2.07-4.7-2.07-2.1-.45-2.7-.24-2.83.01-.21.42.65,1.2.66,1.21.02.02.02.04,0,.06-.02.02-.04.02-.06,0-.04-.03-.93-.83-.68-1.31.21-.41,1.19-.43,2.92-.06.01,0,1.99.16,4.74,2.09.25.18.48.37.66.57.19.22.63.76.44,1.21-.09.2-.29.35-.6.44Z"/>
    <circle class="cls-2" cx="1.99" cy="15.78" r=".31"/>
    <circle class="cls-2" cx="10.12" cy="19.69" r=".27"/>
    <circle class="cls-2" cx="7.9" cy="17.37" r=".31"/>
    <g>
      <path class="cls-10" d="M21.64.5c-5.98,1.84-9.35,8.19-7.51,14.17.22.73.51,1.41.86,2.05.08,0,.16,0,.24.01-.37-.66-.67-1.37-.9-2.13-1.8-5.87,1.51-12.11,7.38-13.92,5.62-1.73,11.58,1.23,13.66,6.64.1.03.19.08.27.14C33.58,1.83,27.43-1.28,21.64.5Z"/>
      <path class="cls-10" d="M28.24,21.99c-3.19.98-6.5.45-9.13-1.19-.05.05-.1.09-.17.13,2.7,1.69,6.08,2.25,9.36,1.25,3.34-1.02,5.86-3.46,7.11-6.45-.08.03-.16.04-.24.05-1.25,2.88-3.7,5.22-6.93,6.21Z"/>
    </g>
    <path class="cls-3" d="M35.01,14.43s-.01,0-.02,0c-1.59-.38-1.8-1.22-1.8-1.26,0-.04.02-.08.06-.09.04,0,.08.02.09.06h0s.2.78,1.69,1.14c.04,0,.07.05.06.09,0,.03-.04.06-.07.06Z"/>
    <path class="cls-3" d="M36.06,12.95s-.01,0-.02,0c-1.3-.34-1.47-1.07-1.48-1.1,0-.04.02-.08.06-.09.04,0,.08.02.09.06h0s.16.68,1.37.99c.04.01.06.05.05.09,0,.03-.04.06-.07.06Z"/>
    <circle class="cls-2" cx="2.05" cy="20.91" r=".27"/>
  </g>
</svg>