<?xml version="1.0" encoding="iso-8859-1"?>
<!-- Uploaded to: SVG Repo, www.svgrepo.com, Generator: SVG Repo Mixer Tools -->
<svg version="1.1" id="Layer_1" xmlns="http://www.w3.org/2000/svg" xmlns:xlink="http://www.w3.org/1999/xlink" 
	 viewBox="0 0 512.001 512.001" xml:space="preserve">
<g>
	<rect x="160.345" y="413.484" style="fill:#FFD311;" width="50.346" height="50.346"/>
	<rect x="160.345" y="307.763" style="fill:#FFD311;" width="50.346" height="50.346"/>
</g>
<path style="fill:#445764;" d="M256,66.1c13.896,0,25.173,11.277,25.173,25.173S269.896,116.446,256,116.446
	c-13.896,0-25.173-11.277-25.173-25.173C230.828,77.378,242.105,66.1,256,66.1z"/>
<path style="fill:#E7ECED;" d="M256,116.445c13.896,0,25.173-11.277,25.173-25.173S269.896,66.099,256,66.099
	c-13.896,0-25.173,11.277-25.173,25.173S242.105,116.445,256,116.445z M256,10.72l186.279,171.175h-30.207H99.93H69.722L256,10.72z"
	/>
<polygon style="fill:#445764;" points="412.072,272.517 386.899,272.517 125.102,272.517 99.93,272.517 99.93,181.895 
	412.072,181.895 "/>
<path style="fill:#009AD2;" d="M210.69,463.829v-50.346h-50.346v50.346H210.69z M386.899,272.517v231.59H125.102v-231.59H386.899z
	 M210.69,358.104v-50.346h-50.346v50.346H210.69z"/>
<g>
	<path style="fill:#9DA1A4;" d="M447.314,282.586v211.452c0,5.538-4.531,10.069-10.069,10.069h-50.346v-231.59h25.173h25.173
		C442.782,272.517,447.314,277.048,447.314,282.586z"/>
	<path style="fill:#9DA1A4;" d="M125.102,272.517v231.59H74.757c-5.538,0-10.069-4.531-10.069-10.069V282.586
		c0-5.538,4.531-10.069,10.069-10.069H99.93L125.102,272.517L125.102,272.517z"/>
</g>
<path style="fill:#B2B6B8;" d="M230.942,91.167c0-13.856,11.216-25.097,25.058-25.161V10.719L69.837,181.789h30.207h155.956v-65.461
	C242.159,116.264,230.942,105.023,230.942,91.167z"/>
<path d="M299.6,386.136c40.744,0,54.195,33.748,54.736,35.155l14.782-5.543c-0.695-1.853-17.62-45.398-69.518-45.398
	c-41.608,0-62.608,29.869-67.899,45.662l14.958,5.048C247.15,419.633,259.173,386.136,299.6,386.136z"/>
<path d="M299.6,410.625c-28.809,0-37.344,24.483-37.692,25.524l14.969,5.015c0.049-0.147,5.146-14.752,22.723-14.752
	c17.578,0,23.504,14.465,23.723,15.017l14.782-5.544C337.718,434.854,328.301,410.625,299.6,410.625z"/>
<rect x="291.24" y="455.94" width="20.134" height="15.787"/>
<g>
	<rect x="240.901" y="299.87" style="fill:#FFFFFF;" width="20.134" height="15.787"/>
	<rect x="336.549" y="330.075" style="fill:#FFFFFF;" width="20.144" height="15.787"/>
	<rect x="306.343" y="330.075" style="fill:#FFFFFF;" width="20.134" height="15.787"/>
</g>
<rect x="276.137" y="299.87" width="80.556" height="15.787"/>
<g>
	<rect x="245.932" y="214.272" style="fill:#FFFFFF;" width="20.134" height="15.787"/>
	<rect x="281.168" y="214.272" style="fill:#FFFFFF;" width="20.134" height="15.787"/>
	<rect x="210.695" y="214.272" style="fill:#FFFFFF;" width="20.134" height="15.787"/>
</g>
<path d="M256,58.207c-18.233,0-33.066,14.833-33.066,33.066S237.768,124.34,256,124.34c18.233,0,33.066-14.834,33.066-33.066
	S274.233,58.207,256,58.207z M256,108.553c-9.528,0-17.279-7.751-17.279-17.279S246.473,73.994,256,73.994
	c9.528,0,17.279,7.751,17.279,17.279C273.28,100.8,265.529,108.553,256,108.553z"/>
<path d="M437.244,264.623h-17.278v-74.836h42.569L256,0L49.466,189.789h42.569v74.836H74.757c-9.905,0-17.962,8.058-17.962,17.962
	v211.452c0,9.905,8.058,17.962,17.962,17.962h362.488c9.905,0,17.962-8.058,17.962-17.962V282.587
	C455.207,272.681,447.149,264.623,437.244,264.623z M89.978,174.002l21.171-19.455h220.37V138.76H128.33L256,21.44l166.023,152.561
	H89.978V174.002z M107.823,230.065h52.521v-15.787h-52.521v-24.49H404.18v24.49h-52.521v15.787h52.521v34.559H107.823V230.065z
	 M379.006,280.41v215.801h-246.01V280.41H379.006z M72.581,494.037V282.586c0-1.179,0.996-2.175,2.175-2.175h42.452v215.801H74.757
	C73.577,496.213,72.581,495.216,72.581,494.037z M439.42,494.037c0,1.179-0.996,2.175-2.175,2.175h-42.451V280.41h42.451
	c1.18,0,2.175,0.997,2.175,2.175L439.42,494.037L439.42,494.037z"/>
<rect x="86.998" y="332.928" width="15.787" height="100.69"/>
<rect x="409.212" y="378.247" width="15.787" height="20.134"/>
<path d="M218.583,299.865h-66.132v66.132h66.132V299.865z M202.796,350.21h-34.558v-34.558h34.558V350.21z"/>
<path d="M218.583,471.723V405.59h-66.132v66.133H218.583z M168.237,421.378h34.558v34.559h-34.558V421.378z"/>
</svg>