<?xml version="1.0" encoding="iso-8859-1"?>
<!-- Uploaded to: SVG Repo, www.svgrepo.com, Generator: SVG Repo Mixer Tools -->
<svg version="1.1" id="Layer_1" xmlns="http://www.w3.org/2000/svg" xmlns:xlink="http://www.w3.org/1999/xlink" 
	 viewBox="0 0 512.001 512.001" xml:space="preserve">
<path style="fill:#E7ECED;" d="M477.472,215.708h-35.914H70.443H34.529L256.001,12.194L477.472,215.708z M285.929,107.966
	c0-16.521-13.408-29.929-29.929-29.929s-29.929,13.408-29.929,29.929s13.408,29.929,29.929,29.929S285.929,124.485,285.929,107.966z
	"/>
<g>
	<rect x="70.443" y="215.713" style="fill:#445764;" width="371.114" height="287.314"/>
	<path style="fill:#445764;" d="M256.001,78.037c16.521,0,29.929,13.408,29.929,29.929s-13.408,29.929-29.929,29.929
		s-29.929-13.408-29.929-29.929S239.48,78.037,256.001,78.037z"/>
</g>
<path style="fill:#B2B6B8;" d="M226.072,107.966c0-16.474,13.336-29.839,29.792-29.914V12.319L34.529,215.708h35.914h185.421V137.88
	C239.407,137.803,226.072,124.439,226.072,107.966z"/>
<path d="M450.536,224.687h49.976L256.001,0L11.489,224.687h49.976v269.357H22.558v17.957h466.886v-17.957h-38.907V224.687z
	 M57.569,206.73l26.056-23.943h262.161V164.83h-242.62L256.001,24.387l198.431,182.342H57.569V206.73z M79.422,272.573h62.85
	v-17.957h-62.85v-29.929h353.157v29.929h-62.85v17.957h62.85v221.471H79.422L79.422,272.573L79.422,272.573z"/>
<path d="M256.001,69.058c-21.454,0-38.907,17.454-38.907,38.907s17.453,38.907,38.907,38.907c21.454,0,38.907-17.454,38.907-38.907
	S277.455,69.058,256.001,69.058z M256.001,128.916c-11.551,0-20.95-9.399-20.95-20.95s9.399-20.95,20.95-20.95
	s20.95,9.399,20.95,20.95S267.552,128.916,256.001,128.916z"/>
<rect x="100.368" y="452.149" style="fill:#FFFFFF;" width="23.943" height="17.957"/>
<rect x="136.283" y="452.149" width="23.943" height="17.957"/>
<rect x="100.368" y="416.235" width="23.943" height="17.957"/>
<g>
	<rect x="100.368" y="296.52" style="fill:#FFFFFF;" width="23.943" height="17.957"/>
	<rect x="387.683" y="296.52" style="fill:#FFFFFF;" width="23.943" height="17.957"/>
</g>
<rect x="247.018" y="377.327" width="17.957" height="23.943"/>
<rect x="387.683" y="452.149" style="fill:#FFFFFF;" width="23.943" height="17.957"/>
<rect x="351.768" y="452.149" width="23.943" height="17.957"/>
<rect x="387.683" y="416.235" width="23.943" height="17.957"/>
<path style="fill:#FFFFFF;" d="M290.454,285.183l-6.657,16.677c28.565,11.404,47.024,38.675,47.024,69.476
	c0,41.256-33.564,74.821-74.821,74.821s-74.821-33.565-74.821-74.821c0-31.245,18.885-58.686,48.112-69.911l-6.437-16.764
	c-17.357,6.666-32.184,18.244-42.874,33.483c-10.962,15.626-16.758,34.02-16.758,53.191c0,51.159,41.621,92.779,92.779,92.779
	s92.779-41.62,92.779-92.779C348.779,333.146,325.886,299.328,290.454,285.183z"/>
<rect x="247.018" y="263.599" width="17.957" height="101.757"/>
</svg>