<?xml version="1.0" encoding="iso-8859-1"?>
<!-- Uploaded to: SVG Repo, www.svgrepo.com, Generator: SVG Repo Mixer Tools -->
<svg version="1.1" id="Layer_1" xmlns="http://www.w3.org/2000/svg" xmlns:xlink="http://www.w3.org/1999/xlink" 
	 viewBox="0 0 512.001 512.001" xml:space="preserve">
<g>
	<polygon style="fill:#FDB51E;" points="327.829,305.494 327.829,383.307 327.829,413.236 256.001,443.164 256.001,305.494 	"/>
	<polygon style="fill:#FDB51E;" points="256.001,305.494 256.001,443.164 184.172,413.236 184.172,383.307 184.172,305.494 	"/>
</g>
<polygon style="fill:#FFD311;" points="327.829,263.594 327.829,305.494 256.001,305.494 184.172,305.494 184.172,263.594 "/>
<path style="fill:#445764;" d="M256.001,78.037c16.521,0,29.929,13.408,29.929,29.929s-13.408,29.929-29.929,29.929
	s-29.929-13.408-29.929-29.929S239.48,78.037,256.001,78.037z"/>
<path style="fill:#E7ECED;" d="M34.529,215.708L256.001,12.194l221.471,203.514h-35.914H70.443H34.529z M256.001,137.894
	c16.521,0,29.929-13.408,29.929-29.929s-13.408-29.929-29.929-29.929s-29.929,13.408-29.929,29.929S239.48,137.894,256.001,137.894z
	"/>
<path style="fill:#445764;" d="M70.443,503.021V215.707h371.114v287.314H70.443z M327.829,413.236v-29.929v-77.814v-41.9H184.172
	v41.9v77.814v29.929l71.829,29.929L327.829,413.236z"/>
<path style="fill:#B2B6B8;" d="M226.209,107.839c0-16.474,13.336-29.839,29.792-29.914v-65.73L34.666,215.583H70.58h185.421v-77.829
	C239.543,137.677,226.209,124.313,226.209,107.839z"/>
<path d="M450.536,224.687h49.976L256.001,0L11.489,224.687h49.976v269.357H22.558v17.957h466.886v-17.957h-38.907V224.687z
	 M57.569,206.73l26.056-23.943h262.161V164.83h-242.62L256.001,24.387l198.431,182.342H57.569V206.73z M79.422,272.573h62.85
	v-17.957h-62.85v-29.929h353.157v29.929h-62.85v17.957h62.85v221.471H79.422L79.422,272.573L79.422,272.573z"/>
<path d="M256.001,69.058c-21.454,0-38.907,17.453-38.907,38.907s17.453,38.907,38.907,38.907c21.454,0,38.907-17.453,38.907-38.907
	S277.455,69.058,256.001,69.058z M256.001,128.916c-11.551,0-20.95-9.399-20.95-20.95s9.399-20.95,20.95-20.95
	s20.95,9.399,20.95,20.95S267.552,128.916,256.001,128.916z"/>
<g>
	<rect x="100.368" y="452.149" style="fill:#FFFFFF;" width="23.943" height="17.957"/>
	<rect x="136.283" y="452.149" style="fill:#FFFFFF;" width="23.943" height="17.957"/>
	<rect x="100.368" y="416.235" style="fill:#FFFFFF;" width="23.943" height="17.957"/>
</g>
<rect x="100.368" y="296.52" width="23.943" height="17.957"/>
<rect x="387.683" y="296.52" width="23.943" height="17.957"/>
<g>
	<rect x="387.683" y="452.149" style="fill:#FFFFFF;" width="23.943" height="17.957"/>
	<rect x="351.768" y="452.149" style="fill:#FFFFFF;" width="23.943" height="17.957"/>
	<rect x="387.683" y="416.235" style="fill:#FFFFFF;" width="23.943" height="17.957"/>
</g>
<path d="M175.193,419.221l80.807,33.67l80.807-33.67V254.614H175.193L175.193,419.221L175.193,419.221z M193.151,314.471h53.871
	v115.225l-53.871-22.446V314.471z M264.979,429.696V314.471h53.871v92.779L264.979,429.696z M318.851,272.573v23.943h-125.7v-23.943
	H318.851z"/>
<rect x="208.111" y="332.435" width="23.943" height="17.957"/>
<rect x="279.94" y="332.435" width="23.943" height="17.957"/>
</svg>